<svg id="Layer_1" data-name="Layer 1" xmlns="http://www.w3.org/2000/svg" xmlns:xlink="http://www.w3.org/1999/xlink" viewBox="0 0 54 54"><defs><style>.cls-1{fill:url(#linear-gradient);}.cls-2{fill:url(#linear-gradient-2);}.cls-3{fill:url(#linear-gradient-3);}.cls-4{fill:url(#linear-gradient-4);}.cls-5{fill:url(#linear-gradient-5);}.cls-6{fill:url(#linear-gradient-6);}</style><linearGradient id="linear-gradient" x1="27.35" y1="27.49" x2="27.35" y2="10.83" gradientUnits="userSpaceOnUse"><stop offset="0" stop-color="#52c6f6"/><stop offset="1" stop-color="#f021da"/></linearGradient><linearGradient id="linear-gradient-2" x1="27.35" y1="27.29" x2="27.35" y2="11.03" xlink:href="#linear-gradient"/><linearGradient id="linear-gradient-3" x1="27.35" y1="43.65" x2="27.35" y2="27.59" xlink:href="#linear-gradient"/><linearGradient id="linear-gradient-4" x1="27.35" y1="43.45" x2="27.35" y2="27.79" xlink:href="#linear-gradient"/><linearGradient id="linear-gradient-5" x1="27.35" y1="37.85" x2="27.35" y2="28.17" xlink:href="#linear-gradient"/><linearGradient id="linear-gradient-6" x1="27.35" y1="37.65" x2="27.35" y2="28.37" xlink:href="#linear-gradient"/></defs><path class="cls-1" d="M35.75,27.49a3.87,3.87,0,0,1-1.15-.2,4,4,0,0,1-1.69-1.2,3.57,3.57,0,0,1-2.74,1.4,3.47,3.47,0,0,1-2.8-1.4,3.78,3.78,0,0,1-2.75,1.39h0a3.54,3.54,0,0,1-2.81-1.39A3.68,3.68,0,0,1,19,27.48a3.59,3.59,0,0,1-2.79-1.36l-.14.13c-.21.18-.42.37-.64.54a3.32,3.32,0,0,1-2,.69,3.62,3.62,0,0,1-3-1.79,6.92,6.92,0,0,1-.37-.84c0-.12-.09-.25-.14-.37l0-1.77.16-.48c.11-.29.22-.59.34-.88l1.38-3.09c.94-2.12,1.89-4.23,2.8-6.36a1.56,1.56,0,0,1,1.62-1.07l5.53,0H39.05a1.4,1.4,0,0,1,1.5,1c1,2.61,2.11,5.2,3.17,7.8l1.11,2.69v2.23l-.13.33-.2.43a3.47,3.47,0,0,1-3,2.14l-.28,0a3.46,3.46,0,0,1-2.38-1,4.11,4.11,0,0,1-.29-.31l-.38.27a13.06,13.06,0,0,1-1.24.79A2.44,2.44,0,0,1,35.75,27.49ZM16,12.63c-.08.16-.16.3-.23.46l-2.1,4.69L13,19.31c-.38.84-.75,1.69-1.13,2.54A4,4,0,0,0,11.49,24a2,2,0,0,0,1.3,1.77,1.71,1.71,0,0,0,.65.13,2,2,0,0,0,1.32-.6A2.18,2.18,0,0,0,15.37,24l0-.16a1.42,1.42,0,0,1,.08-.4.71.71,0,0,1,.7-.52h.11a.76.76,0,0,1,.71.64,3,3,0,0,1,0,.31,2,2,0,0,0,0,.23,2.1,2.1,0,0,0,1.84,1.81H19a2,2,0,0,0,1.87-1.55,2.17,2.17,0,0,0,0-.25l0-.19a3.94,3.94,0,0,1,.1-.47.74.74,0,0,1,.78-.53h0a.72.72,0,0,1,.73.63,1.27,1.27,0,0,1,0,.28,1.09,1.09,0,0,0,0,.18,2.21,2.21,0,0,0,1.28,1.75,1.65,1.65,0,0,0,.69.15,2,2,0,0,0,1.84-1.43,3.74,3.74,0,0,0,.17-.79.81.81,0,0,1,.75-.79h0c.42,0,.68.28.79.74,0,.11,0,.21.05.31s0,.29.09.43a2,2,0,0,0,1.53,1.49,2.46,2.46,0,0,0,.37,0,1.85,1.85,0,0,0,1.46-.78,2.48,2.48,0,0,0,.52-1.45.79.79,0,0,1,1.57-.1,2.23,2.23,0,0,1,0,.36c0,.08,0,.17,0,.26a2,2,0,0,0,1.9,1.69,1.93,1.93,0,0,0,1.23-.45,2.09,2.09,0,0,0,.72-1.32.65.65,0,0,0,0-.19,1.27,1.27,0,0,1,0-.28.84.84,0,0,1,.8-.74.86.86,0,0,1,.8.77,2.45,2.45,0,0,1,0,.27,1.36,1.36,0,0,0,0,.2,2.13,2.13,0,0,0,1.82,1.75h0a1.91,1.91,0,0,0,1.95-1.46A3.74,3.74,0,0,0,43,22c-.56-1.35-1.12-2.7-1.67-4.06l-2.26-5.47h-23Z"/><path class="cls-2" d="M44.64,24.56c-.1.22-.21.45-.31.68a3.32,3.32,0,0,1-2.86,2,3.2,3.2,0,0,1-2.5-.95c-.15-.14-.28-.31-.39-.43-.59.38-1.14.82-1.75,1.14a2.7,2.7,0,0,1-2.16.07,4,4,0,0,1-1.77-1.32,3.43,3.43,0,0,1-2.73,1.51,3.33,3.33,0,0,1-2.78-1.52,3.73,3.73,0,0,1-2.77,1.51,3.35,3.35,0,0,1-2.8-1.5A3.63,3.63,0,0,1,19,27.28a3.39,3.39,0,0,1-2.74-1.45c-.32.28-.61.55-.93.8a3.23,3.23,0,0,1-4.76-1,11.46,11.46,0,0,1-.5-1.19V22.71c.16-.42.3-.86.49-1.27,1.39-3.16,2.81-6.3,4.18-9.47A1.36,1.36,0,0,1,16.18,11c4.07,0,8.13,0,12.2,0,3.56,0,7.11,0,10.67,0a1.19,1.19,0,0,1,1.31.87c1.4,3.51,2.85,7,4.28,10.49ZM39.21,12.31H16c-.12.24-.25.46-.35.69l-2.1,4.7c-.6,1.35-1.19,2.71-1.8,4.06A4.15,4.15,0,0,0,11.3,24a2.15,2.15,0,0,0,1.41,1.92,2,2,0,0,0,2.18-.5A2.37,2.37,0,0,0,15.57,24a3,3,0,0,1,.1-.52.53.53,0,0,1,.59-.39.56.56,0,0,1,.54.47c0,.17,0,.36.05.53a2.3,2.3,0,0,0,2,2,2.17,2.17,0,0,0,2.18-1.7,3.65,3.65,0,0,0,.07-.46c0-.15.06-.3.1-.44a.56.56,0,0,1,.6-.39.52.52,0,0,1,.53.47c0,.15,0,.31,0,.46a2.42,2.42,0,0,0,1.4,1.89,2.1,2.1,0,0,0,2.8-1.4,3.75,3.75,0,0,0,.18-.82.63.63,0,0,1,.57-.62c.28,0,.49.19.58.59s.08.5.15.75A2.16,2.16,0,0,0,29.75,26a2,2,0,0,0,2-.81,2.74,2.74,0,0,0,.56-1.55.61.61,0,0,1,.59-.59.6.6,0,0,1,.59.51c0,.2,0,.41.08.61a2.11,2.11,0,0,0,3.45,1.36,2.27,2.27,0,0,0,.8-1.44c0-.15,0-.31,0-.46a.61.61,0,0,1,1.21,0c0,.15,0,.31,0,.46a2.3,2.3,0,0,0,2,1.92,2.1,2.1,0,0,0,2.16-1.61A3.91,3.91,0,0,0,43.19,22c-.82-2-1.62-3.93-2.43-5.89Z"/><path class="cls-3" d="M15.6,43.65a2.11,2.11,0,0,1-2.34-2.34c0-1.64,0-3.27,0-4.91V33.66c0-1.52,0-3,0-4.57a5.69,5.69,0,0,1,.08-.82.7.7,0,0,1,.7-.68.81.81,0,0,1,.82.66,2.36,2.36,0,0,1,0,.59V40.89c0,.56,0,.9.11,1s.46.11,1,.11H38.9l.16.2V42c.69,0,.74-.06.75-.65V28.92a4,4,0,0,1,0-.64.74.74,0,0,1,.68-.67h.1a.75.75,0,0,1,.71.52,1.88,1.88,0,0,1,.12.66v.82c0,3.93,0,7.86,0,11.78a2,2,0,0,1-2,2.24,4.07,4.07,0,0,1-.5,0H15.6Z"/><path class="cls-4" d="M27.28,43.45H15.6a1.92,1.92,0,0,1-2.14-2.14q0-3.3,0-6.61c0-1.87,0-3.74,0-5.61a4.79,4.79,0,0,1,.09-.83.48.48,0,0,1,.51-.47.59.59,0,0,1,.6.5,3.16,3.16,0,0,1,0,.69V40.89c0,1.32,0,1.32,1.32,1.32H39.13c.73,0,.86-.14.88-.84,0-.13,0-.26,0-.39V28.92a4.16,4.16,0,0,1,0-.61.55.55,0,0,1,.5-.5.52.52,0,0,1,.6.38,1.67,1.67,0,0,1,.11.59c0,4.2,0,8.4,0,12.6a1.81,1.81,0,0,1-1.82,2,5,5,0,0,1-.77,0Z"/><path class="cls-5" d="M33.76,37.84H19.06a3,3,0,0,1-1.12-.17,1.79,1.79,0,0,1-1.18-1.81V31c0-.24,0-.48,0-.72a1.91,1.91,0,0,1,2.07-2.06h16.9a2.13,2.13,0,0,1,1.68.61A1.75,1.75,0,0,1,37.94,30V31.9c0,1.37,0,2.74,0,4.11A1.84,1.84,0,0,1,36,37.83l-1,0Zm2-1.64h.12c.33,0,.36-.07.38-.39a4.34,4.34,0,0,0,0-.51V30.53c0-.71,0-.71-.73-.71H19.07c-.67,0-.67,0-.67.68,0,1.37,0,2.73,0,4.1v.74c0,.86,0,.86.89.86H35.8Z"/><path class="cls-6" d="M27.36,37.64c-2.77,0-5.54,0-8.3,0a2.88,2.88,0,0,1-1-.16A1.6,1.6,0,0,1,17,35.85V31.24c0-.33,0-.66,0-1a1.72,1.72,0,0,1,1.87-1.86h16.9a1.92,1.92,0,0,1,1.54.55A1.6,1.6,0,0,1,37.74,30c0,2,0,4,0,6A1.65,1.65,0,0,1,36,37.63c-.76,0-1.53,0-2.3,0Zm0-8c-2.76,0-5.52,0-8.29,0-.8,0-.87.07-.87.88,0,1.61,0,3.23,0,4.84,0,1,0,1.06,1.09,1.06H35.94c.42,0,.53-.15.56-.58,0-.25,0-.51,0-.76V30.53c0-.85-.07-.91-.93-.91-.1,0-.2,0-.31,0Z"/></svg>