<svg id="Layer_1" data-name="Layer 1" xmlns="http://www.w3.org/2000/svg" xmlns:xlink="http://www.w3.org/1999/xlink" viewBox="0 0 54 54"><defs><style>.cls-1{fill:url(#linear-gradient);}.cls-2{fill:url(#linear-gradient-2);}.cls-3{fill:url(#linear-gradient-3);}.cls-4{fill:url(#linear-gradient-4);}</style><linearGradient id="linear-gradient" x1="27" y1="35.42" x2="27" y2="16.3" gradientUnits="userSpaceOnUse"><stop offset="0" stop-color="#52c6f6"/><stop offset="1" stop-color="#f021da"/></linearGradient><linearGradient id="linear-gradient-2" x1="29.97" y1="28.94" x2="29.97" y2="12.59" xlink:href="#linear-gradient"/><linearGradient id="linear-gradient-3" x1="23.18" y1="41.41" x2="23.18" y2="37.36" xlink:href="#linear-gradient"/><linearGradient id="linear-gradient-4" x1="36" y1="41.41" x2="36" y2="37.36" xlink:href="#linear-gradient"/></defs><path class="cls-1" d="M13.1,18.12V16.61a3.29,3.29,0,0,1,4.55,1.87l5,13.26c.13.34.28.67.39,1a1.32,1.32,0,0,0,1.42,1c2.34,0,4.69,0,7,0l3.38,0c1,0,1.09-.1,1.41-1,.92-2.65,1.82-5.31,2.74-8,.08-.25.18-.49.31-.84l1.55.54-1.53,4.47c-.51,1.5-1,3-1.53,4.5A2.69,2.69,0,0,1,35,35.41H24.42a2.76,2.76,0,0,1-2.93-2.05l-5.24-13.8-.17-.47c-.37-.9-.47-1-1.48-1C14.14,18.11,13.68,18.12,13.1,18.12Z"/><path class="cls-2" d="M30,28.94l-8-8a2,2,0,0,1,2.83.22c1.16,1.13,2.3,2.28,3.45,3.42l.85.79V12.59h1.63V25.48c.69-.68,1.22-1.22,1.75-1.75.85-.84,1.68-1.69,2.53-2.52A2.06,2.06,0,0,1,38,21Z"/><path class="cls-3" d="M23.15,41.41a2,2,0,0,1,0-4,2,2,0,1,1,0,4Z"/><path class="cls-4" d="M36.05,37.36a2,2,0,1,1-2.11,2A2.07,2.07,0,0,1,36.05,37.36Z"/></svg>