<svg id="Layer_1" data-name="Layer 1" xmlns="http://www.w3.org/2000/svg" xmlns:xlink="http://www.w3.org/1999/xlink" viewBox="0 0 54 54"><defs><style>.cls-1{fill:url(#linear-gradient);}.cls-2{fill:url(#linear-gradient-2);}.cls-3{fill:#b1e3f4;}.cls-4{fill:url(#linear-gradient-3);}.cls-5{fill:url(#linear-gradient-4);}.cls-6{fill:#00152b;}.cls-7{fill:#4b5561;}.cls-8{fill:#10172a;}.cls-9{fill:#f9fcfd;}.cls-10{fill:#f7f7f7;}.cls-11{fill:#061c2f;}.cls-12{fill:#3c5262;}.cls-13{fill:#fefefe;}.cls-14{fill:#fdfefe;}.cls-15{fill:#fcfdfe;}.cls-16{fill:#263342;}.cls-17{fill:#b0e1f2;}.cls-18{fill:#fcfcfc;}.cls-19{fill:#fafbfb;}.cls-20{fill:#253342;}</style><linearGradient id="linear-gradient" x1="24.81" y1="42.24" x2="24.81" y2="10.84" gradientUnits="userSpaceOnUse"><stop offset="0" stop-color="#52c6f6"/><stop offset="1" stop-color="#f021da"/></linearGradient><linearGradient id="linear-gradient-2" x1="24.91" y1="42.04" x2="24.91" y2="11.04" xlink:href="#linear-gradient"/><linearGradient id="linear-gradient-3" x1="41.37" y1="43.72" x2="41.37" y2="22.4" xlink:href="#linear-gradient"/><linearGradient id="linear-gradient-4" x1="41.35" y1="43.52" x2="41.35" y2="22.6" xlink:href="#linear-gradient"/></defs><path class="cls-1" d="M18.82,42.23c-.22,0-.44,0-.67,0l-.29,0-.3-.16-.1-.08a.77.77,0,0,1-.19-.62c.06-.24.3-.37.53-.48A2.76,2.76,0,0,1,19,40.61a3.83,3.83,0,0,0,.76,0V37.33l-.05,0a.66.66,0,0,0-.26-.1H15.08l-4,0a1.08,1.08,0,0,0-.32,0c-.05,0-.31,0-.36,0a2.34,2.34,0,0,1-2.21-1.48,4.27,4.27,0,0,1-.31-1s-.4-16.17,0-21.34a1.72,1.72,0,0,1,.24-.58,3.28,3.28,0,0,1,2.85-1.89H38.52a3.15,3.15,0,0,1,2.9,1.52,4.3,4.3,0,0,1,.48,1.73A13.31,13.31,0,0,1,42,15.76c0,.23,0,.47,0,.7l0,2.52v.57a10.77,10.77,0,0,1,0,1.27,1,1,0,0,1-.53.75.83.83,0,0,1-.34.07.7.7,0,0,1-.67-.56l0-.21-.08-4.69.2.06a.33.33,0,0,0,0-.46h-.1a1.75,1.75,0,0,0-.32,0H9.79a1.65,1.65,0,0,0-.31,0H9.43l0,.07a.86.86,0,0,0-.08.28q0,8,0,15.94a.79.79,0,0,0,.08.3l0,.13a.28.28,0,0,1,.07.16c.11.11.16.13.2.13a.46.46,0,0,0,.22-.09l0-.12.24-.06h.31l.64,0H32.89l.67,0h.36l.25.2.09.11.08.08a.52.52,0,0,1,.21.34.52.52,0,0,1-.14.35l-.15.23-.08,0-.23.15-.75,0c-.48,0-1,.06-1.44.06H11.29q-.31,0-.63,0l-.32,0H9.52a1.25,1.25,0,0,0,.4,1.18c.07.08.11.14.26.3l.21,0,.37,0a6.77,6.77,0,0,0,.78,0h22c.61,0,1,.36,1,.82s-.39.79-1,.8H30v3.19h.89l.68,0a.93.93,0,0,1,.75.28c.16.22.12.52,0,.94l0,.09-.47.24-1.52,0c-1,0-2.08,0-3.11,0h-8.4Zm2.67-1.51a.64.64,0,0,0,.22.11H28a.55.55,0,0,0,.19-.08l.06,0,0-.1a1.19,1.19,0,0,0,.08-.34q0-1.31,0-2.61a.68.68,0,0,0-.07-.26l0-.09,0,0a.37.37,0,0,0-.14-.07H21.63a1,1,0,0,0-.17.09l0,0v3.36ZM16.65,12.28H11.31a1.86,1.86,0,0,0-.49.1l-.26.07a1.64,1.64,0,0,0-1.07,1.85.25.25,0,0,0,.21.07h0l.2,0,.24,0H40a1.27,1.27,0,0,0,.28,0,.35.35,0,0,1,.06-.09,1.76,1.76,0,0,0-1.11-1.79,2.81,2.81,0,0,0-.79-.16H16.65Z"/><path class="cls-2" d="M10.52,37.15a2.67,2.67,0,0,1-2.19-1.59c-.08-.17-.18-.33-.27-.49V13.14a3.37,3.37,0,0,0,.21-.31,2.89,2.89,0,0,1,2.67-1.78H38.52a2.94,2.94,0,0,1,2.72,1.42,4.23,4.23,0,0,1,.46,1.65c.08.78,0,1.57.06,2.36s0,1.67,0,2.51c0,.61,0,1.22,0,1.82a.84.84,0,0,1-.41.59.49.49,0,0,1-.73-.36l0-.17-.07-4.41.06,0a.56.56,0,0,0,0-.88,4.43,4.43,0,0,0-.51-.06H9.79a3,3,0,0,0-.51.07,2.14,2.14,0,0,0-.16.53q0,8,0,15.94a2.28,2.28,0,0,0,.1.56s0,.15,0,.2c.3.32.53.21.92-.07l0,0,1,0H32.89l1,0,.22.17c.06.19.45.27.19.57l-.13.19a.1.1,0,0,0-.07.07l-.2.1c-.7,0-1.4.08-2.1.09H11.29c-.32,0-.64,0-1,.05H9.38c-.3.82.26,1.28.64,1.8.05.06.2.07.3.08.41,0,.81.07,1.22.07H32.92c.2,0,.4,0,.61,0,.5,0,.81.27.81.62s-.3.59-.81.6H29.81v3.59c.61,0,1.19,0,1.76,0s.78.23.58,1l-.39.2c-1.52,0-3,.06-4.54.06h-8.4c-.31,0-.63-.05-.94-.08l-.25-.16c-.26-.38-.27-.57.25-.8.68-.32,1.36-.06,2.1-.27V37.21a1.55,1.55,0,0,0-.51-.2H11A1.62,1.62,0,0,0,10.52,37.15Zm10.71,3.66c.16.07.32.22.48.22,2.09,0,4.18,0,6.27,0,.14,0,.28-.12.43-.18a4.35,4.35,0,0,0,.13-.58c0-.87,0-1.74,0-2.62a2.06,2.06,0,0,0-.13-.47c-.12-.06-.24-.17-.36-.17H21.63c-.13,0-.27.13-.41.21ZM9.29,14.33c.21.39.57.21.86.21q14.76,0,29.52,0a4.14,4.14,0,0,0,.61,0c.08,0,.15-.14.22-.22a1.93,1.93,0,0,0-1.22-2,1.34,1.34,0,0,0-.87-.18H11.31a3.84,3.84,0,0,0-.8.18A1.85,1.85,0,0,0,9.29,14.33Z"/><path class="cls-3" d="M33.85,32.78l-1,0H11.1l-1,0c0-.35,0-.7,0-1V17.81c0-1.21.13-1.34,1.36-1.34H32.65l7.81,0,.07,4.41a.15.15,0,0,0,0,.17.49.49,0,0,0,.73.36.84.84,0,0,0,.41-.59c.06-.6,0-1.21,0-1.82,0-.84,0-1.68,0-2.51.7.13.85.25.86.84,0,1.55,0,3.09,0,4.71-.25,0-.47.06-.69.06H37.72a2.75,2.75,0,0,0-2.82,2.79c0,2.92,0,5.85,0,8.77v1a6.3,6.3,0,0,1-.71.07H11.32c-.86,0-.86,0-1-.71.32,0,.64-.05,1-.05H31.76c.7,0,1.4-.06,2.1-.09l.2-.1a.1.1,0,0,1,.07-.07l.13-.19c.26-.3-.13-.38-.19-.57ZM24.85,21H38.09a.46.46,0,0,0,.49-.5c0-.73,0-1.46,0-2.19a.64.64,0,0,0-.61-.63,4.14,4.14,0,0,0-.61,0H11.75a.49.49,0,0,0-.53.55c0,.76,0,1.52,0,2.28a.45.45,0,0,0,.48.5H24.85ZM11.21,26.79c0,1.34,0,2.69,0,4,0,.67.08.74.76.75s1.64,0,2.46,0c.44,0,.63-.18.63-.62,0-2.69,0-5.38,0-8.07,0-.54-.25-.77-.8-.79q-1.14,0-2.28,0c-.68,0-.76.08-.76.76C11.21,24.16,11.21,25.48,11.21,26.79Zm11.32-4.7h-4.2c-.33,0-.74,0-.82.32a3.6,3.6,0,0,0-.07,1.53c.1.47.61.43,1,.43q3.72,0,7.44,0c1.6,0,1.45.11,1.45-1.47,0-.74-.07-.8-.8-.81C25.22,22.08,23.88,22.09,22.53,22.09Zm-5,3.5a3.28,3.28,0,0,0-.13.52c0,.85,0,1.69,0,2.53,0,.65.18.8.85.81s1.4,0,2.1,0,.87-.09.88-.92,0-1.4,0-2.1c0-.91,0-.91-.91-.84-.2,0-.4,0-.61,0ZM30,25.65c0,1.14-.17,2.21-.15,3.33,0,.36.3.47.63.47.82,0,1.63,0,2.45,0,.55,0,.73-.19.74-.76,0-.84,0-1.69,0-2.54,0-.41-.19-.56-.59-.56C32,25.6,31.13,25.65,30,25.65Zm-2.82.07c-1.19.06-2.25-.16-3.37-.11a11.37,11.37,0,0,0-.14,3.15,3.17,3.17,0,0,0,.29.69c1,0,1.86,0,2.76,0,.57,0,.68-.12.69-.66q0-1.3,0-2.61C27.37,25.94,27.23,26,27.15,25.72Zm2.66-1.63c.2.11.36.25.51.25.91,0,1.81.05,2.72,0a.64.64,0,0,0,.63-.7c0-.27,0-.53,0-.79,0-.51-.26-.75-.76-.77-.81,0-1.63,0-2.45,0-.55,0-.63.12-.65.7C29.8,23.2,29.81,23.6,29.81,24.09Zm-10.52,7.5h1.4a.45.45,0,0,0,.52-.46c0-.35-.15-.58-.49-.59q-1.39,0-2.79,0a.52.52,0,0,0-.54.57c0,.35.25.5.59.49Zm12.39,0h0c.43,0,.87,0,1.31,0s.65-.12.61-.44a.86.86,0,0,0-.56-.61c-.89-.07-1.8,0-2.7,0a.5.5,0,0,0-.53.56c0,.38.22.51.56.51Zm-4.55,0c.38-.9.29-1.06-.56-1.07H24.22c-.39,0-.6.18-.59.58s.24.49.57.49C25.16,31.58,26.12,31.59,27.13,31.59Z"/><path class="cls-4" d="M37.68,43.72A2.43,2.43,0,0,1,35.27,41c0-3.45,0-6.89,0-10.34V25a3.78,3.78,0,0,1,.26-1.25,2.09,2.09,0,0,1,2.08-1.36l3.64,0h3.79a2.32,2.32,0,0,1,2.3,1.86,2.16,2.16,0,0,1,.08.26c.1,2.82,0,11.27,0,11.27,0,1.33,0,5.77,0,5.77v.18a2.3,2.3,0,0,1-2.44,1.94H38.56l-.59,0h-.29Zm-.06-20.13a1.43,1.43,0,0,0-.34.06,1.07,1.07,0,0,0-.79,1.19q0,8.22,0,16.44a1,1,0,0,0,0,.43l.09.2c.1.28.17.42.4.44l.35.07a3.25,3.25,0,0,0,.66.11h6.83c1,0,1.4-.45,1.41-1.44q0-8.06,0-16.12a2.09,2.09,0,0,0-.16-.59c0-.11-.08-.21-.11-.32a1,1,0,0,0-.92-.47l-.24,0c-.42.72-.54.78-1.35.78l-4.36,0-1-.25,0-.08C37.9,23.66,37.78,23.59,37.62,23.59Z"/><path class="cls-5" d="M47.23,24.53l0,11.27c0,1.93,0,3.85,0,5.77v.16a2.1,2.1,0,0,1-2.24,1.76H38.56c-.29,0-.57,0-.86,0A2.22,2.22,0,0,1,35.47,41c0-5.33,0-10.67,0-16a5.46,5.46,0,0,1,.08-.68c.32-.11.18-.36.18-.57a1.91,1.91,0,0,1,1.88-1.16c2.48,0,5,0,7.43,0a2.14,2.14,0,0,1,2.11,1.77l0,.17ZM38.29,24c-.31-.61-.49-.7-1.06-.55a1.28,1.28,0,0,0-.94,1.39q0,8.22,0,16.44a1.27,1.27,0,0,0,.05.52c.15.3.2.71.65.75a7.67,7.67,0,0,0,1,.18c2.28,0,4.56,0,6.83,0a1.44,1.44,0,0,0,1.61-1.64q0-8.06,0-16.12a4.43,4.43,0,0,0-.28-1,1.31,1.31,0,0,0-1.47-.58c-.43.74-.47.77-1.23.77l-4.36,0Z"/><path class="cls-6" d="M10.52,37.15A1.62,1.62,0,0,1,11,37h8.49a1.55,1.55,0,0,1,.51.2l-8.5,0C11.16,37.19,10.84,37.17,10.52,37.15Z"/><path class="cls-7" d="M31.76,42l.39-.2Z"/><path class="cls-8" d="M47.18,24.55l0-.17Z"/><path class="cls-7" d="M17.63,41.79l.25.16Z"/><path class="cls-9" d="M40.46,16.45l-7.81,0H11.53c-1.23,0-1.36.13-1.36,1.34V31.67c0,.35,0,.7,0,1v.11c-.28,0-.59,0-.87,0V15.6a3,3,0,0,1,.51-.07H40a4.43,4.43,0,0,1,.51.06l0,.88Z"/><path class="cls-10" d="M28.41,37.18a2.06,2.06,0,0,1,.13.47c0,.88,0,1.75,0,2.62a4.35,4.35,0,0,1-.13.58l-7.18,0V37.22Z"/><path class="cls-6" d="M28.41,37.18l-7.19,0c.14-.08.28-.21.41-.21h6.42C28.17,37,28.29,37.12,28.41,37.18Z"/><path class="cls-11" d="M21.23,40.81l7.18,0c-.15.06-.29.18-.43.18-2.09,0-4.18,0-6.27,0C21.55,41,21.39,40.88,21.23,40.81Z"/><path class="cls-12" d="M33.85,32.78l.22.17Z"/><path class="cls-12" d="M34.26,33.52l-.13.19Z"/><path class="cls-12" d="M34.06,33.78l-.2.1Z"/><path class="cls-8" d="M40.55,21a.15.15,0,0,1,0-.17Z"/><path class="cls-8" d="M47.16,41.73v-.16A.18.18,0,0,1,47.16,41.73Z"/><path class="cls-13" d="M24.85,21H11.7a.45.45,0,0,1-.48-.5c0-.76,0-1.52,0-2.28a.49.49,0,0,1,.53-.55h25.6a4.14,4.14,0,0,1,.61,0,.64.64,0,0,1,.61.63c0,.73,0,1.46,0,2.19a.46.46,0,0,1-.49.5H24.85Z"/><path class="cls-14" d="M11.21,26.79c0-1.31,0-2.63,0-3.94,0-.68.08-.75.76-.76s1.52,0,2.28,0c.55,0,.8.25.8.79,0,2.69,0,5.38,0,8.07,0,.44-.19.63-.63.62-.82,0-1.64,0-2.46,0s-.76-.08-.76-.75C11.21,29.48,11.21,28.13,11.21,26.79Z"/><path class="cls-15" d="M22.53,22.09c1.35,0,2.69,0,4,0,.73,0,.8.07.8.81,0,1.58.15,1.47-1.45,1.47q-3.72,0-7.44,0c-.42,0-.93,0-1-.43a3.6,3.6,0,0,1,.07-1.53c.08-.34.49-.33.82-.32Z"/><path class="cls-15" d="M29.81,24.09c0-.49,0-.89,0-1.3,0-.58.1-.68.65-.7.82,0,1.64,0,2.45,0,.5,0,.72.26.76.77,0,.26,0,.52,0,.79a.64.64,0,0,1-.63.7c-.91,0-1.81,0-2.72,0C30.17,24.34,30,24.2,29.81,24.09Z"/><path class="cls-16" d="M19.29,31.59H18c-.34,0-.58-.14-.59-.49a.52.52,0,0,1,.54-.57q1.39,0,2.79,0c.34,0,.51.24.49.59a.45.45,0,0,1-.52.46Z"/><path class="cls-16" d="M25.48,31.59H24.17c-.34,0-.58-.14-.59-.49a.52.52,0,0,1,.54-.57q1.39,0,2.79,0c.34,0,.51.24.49.59a.45.45,0,0,1-.52.46Z"/><path class="cls-16" d="M31.7,31.59H30.39c-.35,0-.58-.14-.59-.49a.52.52,0,0,1,.53-.57c.93,0,1.86,0,2.8,0a.48.48,0,0,1,.48.59.45.45,0,0,1-.51.46Z"/><path class="cls-17" d="M46.45,25a4.43,4.43,0,0,0-.28-1c-.26,0-.5,0-.64.32s-.5.41-.89.41c-1.59,0-3.19,0-4.79,0-.37,0-.72,0-.74-.5L38.29,24A1.35,1.35,0,0,0,37,25.37c0,.21,0,.41,0,.62q0,8.28,0,16.56a7.67,7.67,0,0,0,1,.18c2.28,0,4.56,0,6.83,0a1.44,1.44,0,0,0,1.61-1.64Q46.46,33,46.45,25Zm-8.13,9.89a.55.55,0,0,1,.43-.34c.72,0,1.44,0,2.25,0a10.43,10.43,0,0,1,0,2.68H38.47A4.82,4.82,0,0,1,38.32,34.86Zm0-3.84c.83,0,1.47,0,2.1,0s.67.08.69.64,0,.93,0,1.39a.54.54,0,0,1-.59.6H38.91a.58.58,0,0,1-.62-.6C38.26,32.4,38.28,31.74,38.28,31Zm2.53,9.85c-.66,0-1.25,0-1.83,0s-.67-.14-.7-.67,0-1,0-1.49a.59.59,0,0,1,.66-.64,13.87,13.87,0,0,1,1.58,0c.18,0,.5.23.5.36A4.34,4.34,0,0,1,40.81,40.87ZM38.47,30a3.6,3.6,0,0,1-.22-.78c0-.53,0-1.05,0-1.58s.25-.79.8-.8h4.72c.44,0,.63.2.62.64,0,.61,0,1.22,0,1.83s-.1.69-.73.7C42,30,40.27,30,38.47,30Z"/><path class="cls-18" d="M38.29,24A1.35,1.35,0,0,0,37,25.37c0,.21,0,.41,0,.62q0,8.28,0,16.56c-.45,0-.5-.45-.65-.75a1.27,1.27,0,0,1-.05-.52q0-8.22,0-16.44a1.28,1.28,0,0,1,.94-1.39C37.8,23.3,38,23.39,38.29,24Z"/><path class="cls-19" d="M46.17,24c-.26,0-.5,0-.64.32s-.5.41-.89.41c-1.59,0-3.19,0-4.79,0-.37,0-.72,0-.74-.5l4.36,0c.76,0,.8,0,1.23-.77A1.31,1.31,0,0,1,46.17,24Z"/><path class="cls-13" d="M38.47,30a3.6,3.6,0,0,1-.22-.78c0-.53,0-1.05,0-1.58s.25-.79.8-.8h4.72c.44,0,.63.2.62.64,0,.61,0,1.22,0,1.83s-.1.69-.73.7C42,30,40.27,30,38.47,30Z"/><rect class="cls-20" x="38.24" y="30.9" width="2.88" height="2.88" rx="0.41"/><rect class="cls-20" x="17.37" y="25.58" width="3.86" height="3.86" rx="0.41"/><rect class="cls-20" x="23.56" y="25.58" width="3.86" height="3.86" rx="0.41"/><rect class="cls-20" x="29.78" y="25.58" width="3.86" height="3.86" rx="0.41"/><rect class="cls-15" x="29.78" y="22.08" width="3.86" height="2.27" rx="0.41"/><rect class="cls-20" x="38.24" y="34.4" width="2.88" height="2.88" rx="0.41"/><rect class="cls-20" x="38.24" y="38.02" width="2.88" height="2.88" rx="0.41"/></svg>