<svg id="Layer_1" data-name="Layer 1" xmlns="http://www.w3.org/2000/svg" xmlns:xlink="http://www.w3.org/1999/xlink" viewBox="0 0 54 54"><defs><style>.cls-1{fill:url(#linear-gradient);}.cls-2{fill:url(#linear-gradient-2);}.cls-3{fill:url(#linear-gradient-3);}.cls-4{fill:url(#linear-gradient-4);}.cls-5{fill:url(#linear-gradient-5);}</style><linearGradient id="linear-gradient" x1="27.22" y1="36.77" x2="27.22" y2="10.99" gradientUnits="userSpaceOnUse"><stop offset="0" stop-color="#52c6f6"/><stop offset="1" stop-color="#f021da"/></linearGradient><linearGradient id="linear-gradient-2" x1="35.49" y1="44.6" x2="35.49" y2="38.13" xlink:href="#linear-gradient"/><linearGradient id="linear-gradient-3" x1="24.29" y1="44.6" x2="24.29" y2="38.13" xlink:href="#linear-gradient"/><linearGradient id="linear-gradient-4" x1="29.88" y1="23.21" x2="29.88" y2="21.34" xlink:href="#linear-gradient"/><linearGradient id="linear-gradient-5" x1="29.89" y1="27.85" x2="29.89" y2="25.94" xlink:href="#linear-gradient"/></defs><path class="cls-1" d="M9.09,11.41a1.32,1.32,0,0,1,1.68-.22c1.06.51,2.14,1,3.24,1.42a2.12,2.12,0,0,1,1.38,1.72c.14.76.32,1.52.49,2.37H43.1A2.12,2.12,0,0,1,45.35,18v1.29c-.3,1.32-.62,2.65-.9,4-.51,2.44-1,4.88-1.5,7.33a1.91,1.91,0,0,1-2.23,1.81H19.12l.51,2.47H40.21a4.33,4.33,0,0,1,.88,0,.9.9,0,0,1,.75.91.92.92,0,0,1-.79.89,4.33,4.33,0,0,1-.72,0q-10.15,0-20.3,0c-1.48,0-2-.43-2.32-1.89-1.33-6.49-2.68-13-4-19.46A1.64,1.64,0,0,0,12.55,14,22.67,22.67,0,0,1,10,12.88a5.46,5.46,0,0,1-.87-.67Zm32,19.11,2.44-11.87c-1.58-.21-26.55-.13-27.19.11l2.42,11.76Z"/><path class="cls-2" d="M32.25,41.35a3.24,3.24,0,0,1,6.48,0,3.31,3.31,0,0,1-3.25,3.24A3.28,3.28,0,0,1,32.25,41.35Zm4.56,0A1.36,1.36,0,0,0,35.45,40a1.41,1.41,0,0,0-1.33,1.36,1.33,1.33,0,0,0,1.38,1.34A1.27,1.27,0,0,0,36.81,41.36Z"/><path class="cls-3" d="M27.51,41.37a3.24,3.24,0,0,1-3.23,3.23,3.29,3.29,0,0,1-3.22-3.26,3.23,3.23,0,1,1,6.45,0Zm-1.86,0A1.4,1.4,0,0,0,24.29,40,1.36,1.36,0,0,0,23,41.31a1.28,1.28,0,0,0,1.26,1.37A1.32,1.32,0,0,0,25.65,41.39Z"/><path class="cls-4" d="M29.89,23.21H24c-1,0-1.41-.28-1.43-.92s.43-.94,1.38-.94c3.51,0,7,0,10.54,0,.51,0,1,0,1.52,0,.76,0,1.16.35,1.14.94s-.42.91-1.17.92Z"/><path class="cls-5" d="M29.8,27.84c-1.69,0-3.39,0-5.08,0a2.58,2.58,0,0,1-.87-.12.82.82,0,0,1-.57-.88.85.85,0,0,1,.66-.82,2.89,2.89,0,0,1,.72-.07H35.13c.89,0,1.34.32,1.37.91s-.46,1-1.39,1C33.34,27.85,31.57,27.84,29.8,27.84Z"/></svg>