<?xml version="1.0" encoding="utf-8"?>
<!-- Generator: Adobe Illustrator 24.0.0, SVG Export Plug-In . SVG Version: 6.00 Build 0)  -->
<svg version="1.1" id="Layer_1" xmlns="http://www.w3.org/2000/svg" xmlns:xlink="http://www.w3.org/1999/xlink" x="0px" y="0px"
	 viewBox="0 0 80 80" style="enable-background:new 0 0 80 80;" xml:space="preserve">
<style type="text/css">
	.st0{fill:url(#SVGID_1_);}
	.st1{fill:url(#SVGID_2_);}
</style>
<g>
	<linearGradient id="SVGID_1_" gradientUnits="userSpaceOnUse" x1="38.9062" y1="75.2243" x2="40.3119" y2="28.6798">
		<stop  offset="0" style="stop-color:#52C6F6"/>
		<stop  offset="0.119" style="stop-color:#58BFF5"/>
		<stop  offset="0.2889" style="stop-color:#6AACF2"/>
		<stop  offset="0.4893" style="stop-color:#888EEC"/>
		<stop  offset="0.7131" style="stop-color:#B163E5"/>
		<stop  offset="0.9534" style="stop-color:#E52CDC"/>
		<stop  offset="1" style="stop-color:#F021DA"/>
	</linearGradient>
	<path class="st0" d="M45.8,49.4c-1.3-1.3-2.6-2.6-3.9-3.8c-3,2.4-7.1,1.9-9.7-0.6c0,0.2,0,0.3,0,0.5c0,4,0,8,0,12
		c0,1.6-1.2,2.7-2.7,2.6c-0.7,0-1.3-0.4-1.7-0.8c-0.5,0.3-0.9,0.6-1.3,0.7c-1.6,0.5-3.2-0.8-3.2-2.5c0-3.7,0-7.4,0-11
		c0-0.2,0-0.3,0-0.5c-0.2,0-0.5,0-0.7,0c-1.4,0-2.5-1.2-2.5-2.6c0-2.2-0.1-4.3,0-6.5c0.1-3.3,1.7-5.7,4.7-7c0.1,0,0.1-0.1,0.3-0.1
		c-1.7-1.2-2.5-2.8-2.4-4.8c0.1-1.4,0.7-2.6,1.8-3.5c2.2-1.8,5.4-1.6,7.3,0.6c1.8,2.1,1.7,5.7-1.2,7.7c1.9,0.8,3.3,2.1,4.2,3.9
		c1.2-0.5,2.5-0.6,3.8-0.4c1.3,0.2,2.4,0.7,3.4,1.5c1.3-1.3,2.6-2.6,3.8-3.8c-0.4-0.5-0.9-0.9-1.3-1.5c-1.5-1.9-1.5-4.6-0.2-6.6
		c1.3-2,3.8-3.1,6.1-2.5c2.4,0.5,4.2,2.5,4.5,4.9c0.6,4.2-3.3,7.6-7.4,6.4c-0.1,0-0.4,0-0.5,0.1c-1.3,1.3-2.6,2.6-3.9,3.9
		c0,0,0,0.1-0.1,0.1c0.9,1.1,1.4,2.4,1.6,3.8c1.3,0,2.6,0,3.9,0c0.3-2,1.3-3.5,3-4.4c1.2-0.7,2.5-0.9,3.9-0.6
		c2.9,0.6,4.8,3.2,4.6,6.1c-0.2,2.8-2.4,5.2-5.3,5.4c-2.8,0.2-5.7-1.7-6.3-5.1c-0.6,0-1.3,0-2,0c-0.6,0-1.3,0-2,0
		c-0.2,1.5-0.7,2.7-1.6,3.9c0.1,0.1,0.1,0.1,0.1,0.2c1.3,1.3,2.5,2.5,3.8,3.8c0.2,0.2,0.3,0.2,0.5,0.1c3.2-0.9,6.5,0.9,7.3,4.1
		c0.8,3.2-1.2,6.5-4.5,7.1c-2.6,0.5-5.3-0.8-6.4-3.3c-1.1-2.4-0.4-5.3,1.6-6.9C45.5,49.6,45.7,49.5,45.8,49.4z M29.5,43.7
		c-0.2,0.2-0.5,0.4-0.7,0.7c-0.2,0.3-0.4,0.6-0.4,0.9c0,4,0,8,0,12c0,0.3,0.1,0.6,0.3,0.8c0.3,0.5,0.9,0.6,1.4,0.5
		c0.6-0.2,0.9-0.7,0.9-1.3c0-4.7,0-9.4,0-14.1c0-0.2-0.1-0.4-0.1-0.6c-0.6-1.5-0.7-3-0.2-4.5c0.3-0.9,0.4-1.8,0.4-2.8
		c0-0.5,0-1,0-1.5c0-0.1,0-0.2,0-0.3c0.4,0,0.8,0,1.3,0c0,0.5,0,1,0,1.5c0.5-0.4,0.9-0.7,1.3-1.1c-0.5-1.1-1.3-2-2.4-2.7
		c-0.5,2.7-1.8,5-3.4,7.2c-1.6-2.2-2.9-4.5-3.4-7.2c-0.1,0.1-0.3,0.1-0.3,0.2c-1.7,1.3-2.7,3-2.7,5.2c0,2.1,0,4.1,0,6.2
		c0,1,0.7,1.8,2,1.5c0-3.6,0-7.3,0-10.9c0.4,0,0.8,0,1.3,0c0,0.2,0,0.3,0,0.5c0,7.7,0,15.3,0,23c0,0.1,0,0.3,0,0.4
		c0.1,0.6,0.5,1.1,1.1,1.2c0.6,0.1,1.2-0.3,1.3-0.9c0.1-0.2,0.1-0.4,0.1-0.7c0-3.8,0-7.7,0-11.5c0-1.3,0.6-2.1,1.5-2.9
		C28.9,43.1,29.2,43.4,29.5,43.7z M43.2,40c0-3.2-2.6-5.8-5.8-5.8c-3.2,0-5.8,2.6-5.8,5.8c0,3.2,2.6,5.8,5.8,5.8
		C40.6,45.8,43.2,43.2,43.2,40z M31.6,25.2c0-2.1-1.7-3.9-3.9-3.9c-2.1,0-3.9,1.7-3.9,3.9c0,2.1,1.7,3.9,3.9,3.9
		C29.9,29,31.6,27.3,31.6,25.2z M45.3,28.3c0.6-0.5,1.1-1,1.7-1.5c-0.8-1.3-0.8-2.6,0.2-3.5c0.9-0.8,2.3-0.9,3.3-0.2
		c0.5,0.4,0.8,0.8,1,1.4c0.2,0.9,0,1.7-0.5,2.3c0.6,0.5,1.2,1,1.7,1.5c1.1-1.3,1.2-3.9-0.6-5.7c-1.8-1.7-4.6-1.7-6.3,0
		C44,24.4,44.3,27.1,45.3,28.3z M57.9,42.5c1.1-1.3,1.2-4-0.6-5.8c-1.8-1.7-4.6-1.6-6.3,0.1c-1.8,1.8-1.5,4.5-0.6,5.6
		c0.3-0.2,0.6-0.5,0.9-0.7c0.3-0.2,0.6-0.4,0.9-0.7c-0.9-1.3-0.8-2.6,0.2-3.5c0.9-0.9,2.2-1,3.3-0.3c0.5,0.3,0.9,0.8,1,1.4
		c0.3,0.9,0,1.7-0.5,2.4C56.8,41.5,57.4,42,57.9,42.5z M52.8,56.7c1.3-1.6,0.9-4.4-0.8-5.9c-1.9-1.6-4.7-1.3-6.3,0.5
		c-1.6,1.8-1.2,4.4-0.3,5.4c0.6-0.5,1.1-1,1.7-1.5c-0.8-1.5-0.7-2.7,0.3-3.6c1-0.8,2.3-0.8,3.3,0c1.1,0.9,1.2,2.1,0.4,3.7
		C51.6,55.7,52.2,56.2,52.8,56.7z M46.3,29.3c1.3,1.3,4.3,1.3,5.5,0c-0.7-1-1.6-1.6-2.8-1.6C47.8,27.8,46.9,28.3,46.3,29.3z
		 M51.4,43.5c1.6,1.4,4.2,1.2,5.5,0C55.7,41.4,52.7,41.4,51.4,43.5z M51.8,57.7c-0.7-1.1-1.7-1.7-3-1.6c-1.1,0.1-1.9,0.6-2.5,1.6
		C47.7,59,50.4,59,51.8,57.7z M49.1,23.9c-0.7,0-1.3,0.5-1.3,1.2c0,0.7,0.6,1.3,1.3,1.3c0.7,0,1.3-0.6,1.3-1.3
		C50.3,24.5,49.8,23.9,49.1,23.9z M55.5,39.4c0-0.7-0.6-1.3-1.3-1.3c-0.7,0-1.3,0.6-1.3,1.3c0,0.7,0.6,1.3,1.3,1.3
		C54.9,40.6,55.5,40.1,55.5,39.4z M49,54.8c0.7,0,1.3-0.6,1.3-1.3c0-0.7-0.6-1.3-1.3-1.3c-0.7,0-1.3,0.6-1.3,1.3
		C47.8,54.2,48.3,54.8,49,54.8z M27.7,36.2c0.4-0.3,0.5-0.7,0.5-1.1c-0.1-0.9-0.1-1.7-0.2-2.6c0-0.6-0.1-1.3-0.1-1.9
		c0-0.1-0.1-0.1-0.2-0.2c0,0.1-0.1,0.1-0.1,0.2c0,0.1,0,0.1,0,0.2c-0.1,1.3-0.2,2.6-0.3,3.9C27.2,35.2,27.3,35.7,27.7,36.2z
		 M29.2,30.5c0.1,0.8,0.1,1.5,0.2,2.3c0.2-0.5,0.4-0.9,0.5-1.4C30,30.7,30,30.7,29.2,30.5z M26.3,30.5c-0.2,0.1-0.4,0.1-0.5,0.2
		c-0.1,0-0.2,0.2-0.2,0.2c0.1,0.6,0.3,1.3,0.5,1.9c0,0,0.1,0,0.1,0c0-0.6,0.1-1.2,0.1-1.8C26.3,30.8,26.3,30.7,26.3,30.5z"/>
	<linearGradient id="SVGID_2_" gradientUnits="userSpaceOnUse" x1="36.3697" y1="75.1477" x2="37.7754" y2="28.6032">
		<stop  offset="0" style="stop-color:#52C6F6"/>
		<stop  offset="0.119" style="stop-color:#58BFF5"/>
		<stop  offset="0.2889" style="stop-color:#6AACF2"/>
		<stop  offset="0.4893" style="stop-color:#888EEC"/>
		<stop  offset="0.7131" style="stop-color:#B163E5"/>
		<stop  offset="0.9534" style="stop-color:#E52CDC"/>
		<stop  offset="1" style="stop-color:#F021DA"/>
	</linearGradient>
	<path class="st1" d="M36.1,38.1c0,0.2,0,0.4,0,0.6c0,0.4,0.3,0.7,0.7,0.7c0.4,0,0.8,0,1.2,0c1.1,0,1.9,0.8,1.9,1.9
		c0,0.6,0,1.3,0,1.9c-0.3,0-0.6,0-1,0c-0.3,0-0.6,0-1,0c0,0.4,0,0.8,0,1.3c-0.4,0-0.8,0-1.3,0c0-0.4,0-0.8,0-1.2
		c-1.3-0.3-1.9-0.9-1.9-2c0.4,0,0.8,0,1.2,0c0.2,0.5,0.3,0.6,0.9,0.6c0.5,0,1.1,0,1.7,0c0-0.2,0-0.4,0-0.6c0-0.4-0.3-0.6-0.7-0.7
		c-0.4,0-0.8,0-1.2,0c-1.1,0-1.9-0.8-2-1.9c0-0.6,0-1.3,0-1.9c0.6,0,1.3,0,1.9,0c0-0.4,0-0.8,0-1.3c0.5,0,0.9,0,1.3,0
		c0,0.4,0,0.8,0,1.2c0.7,0.1,1.2,0.3,1.6,0.8c0.2,0.3,0.3,0.7,0.5,1.1c-0.5,0-0.9,0-1.4,0c-0.1-0.5-0.5-0.7-1-0.6
		C37.2,38.1,36.7,38.1,36.1,38.1z"/>
</g>
</svg>
