<?xml version="1.0" encoding="utf-8"?>
<!-- Generator: Adobe Illustrator 24.0.0, SVG Export Plug-In . SVG Version: 6.00 Build 0)  -->
<svg version="1.1" id="Layer_1" xmlns="http://www.w3.org/2000/svg" xmlns:xlink="http://www.w3.org/1999/xlink" x="0px" y="0px"
	 viewBox="0 0 80 80" style="enable-background:new 0 0 80 80;" xml:space="preserve">
<style type="text/css">
	.st0{fill:url(#SVGID_1_);}
	.st1{fill:url(#SVGID_2_);}
	.st2{fill:url(#SVGID_3_);}
	.st3{fill:url(#SVGID_4_);}
	.st4{fill:url(#SVGID_5_);}
	.st5{fill:url(#SVGID_6_);}
	.st6{fill:url(#SVGID_7_);}
</style>
<g>
	<linearGradient id="SVGID_1_" gradientUnits="userSpaceOnUse" x1="41.834" y1="62.0644" x2="41.9555" y2="16.9926">
		<stop  offset="0" style="stop-color:#52C6F6"/>
		<stop  offset="0.119" style="stop-color:#58BFF5"/>
		<stop  offset="0.2889" style="stop-color:#6AACF2"/>
		<stop  offset="0.4893" style="stop-color:#888EEC"/>
		<stop  offset="0.7131" style="stop-color:#B163E5"/>
		<stop  offset="0.9534" style="stop-color:#E52CDC"/>
		<stop  offset="1" style="stop-color:#F021DA"/>
	</linearGradient>
	<path class="st0" d="M38.7,59.3c-2,0-4,0-6,0c-0.8,0-1.7-0.2-2.5-0.4c-0.3-0.1-0.6-0.1-1-0.2c-0.9-0.2-1.7-0.3-2.6-0.5L25,57.9
		c-1.7-0.3-2.8-1.7-2.7-3.5c0-0.1-0.1-0.3-0.1-0.3c-1.3-0.9-1.8-2.3-1.3-3.7c0.4-1.3,1.7-2.2,3.1-2.2l0.3,0c0.2-1.7,1.1-2.8,2.8-3.1
		c0,0-3.8-3.9-3.8-3.9c-0.1-0.1-0.2-0.2-0.3-0.3c-0.3-0.4-0.2-0.8,0.1-1.1c0.2-0.2,0.4-0.3,0.6-0.3c0.2,0,0.3,0.1,0.5,0.2
		c0.1,0.1,0.2,0.2,0.3,0.3l0.8,0.8c2.4,2.4,4.7,4.7,7.1,7.1c0.1,0.1,0.1,0.2,0.2,0.3c0.7-0.6,1.5-0.9,2.3-0.9c0.4,0,0.9,0.1,1.4,0.2
		c0.1,0,0.2,0.1,0.4,0.1l0.2,0l0.8,0.1c0.7,0.1,1.4,0.3,2,0.4c0.1,0,0.1,0,0.1,0c0.1,0,0.1,0,0.2-0.2c1.4-2.7,2.9-4.9,4.6-6.8
		c1.1-1.2,2.6-2.8,4.7-3.7c0.4-0.2,0.9-0.3,1.3-0.4c0.2-0.1,0.5-0.1,0.7-0.2c0.2-0.1,0.4-0.1,0.4-0.2c2.7-2.8,3.2-7,1.1-10.3
		c-0.3-0.4-0.6-1.1,0-1.5c0.2-0.1,0.3-0.2,0.5-0.2c0.3,0,0.6,0.2,0.9,0.7c2.2,3.5,2.1,7.9-0.3,11.2l-0.1,0.2l3.8,0
		c1.3,0,2.6,0,3.8,0c0.4,0,0.9,0.1,1.2,0.5l0,0v0.5c-0.3,0.6-0.7,0.7-1.1,0.7l-0.7,0c-0.8,0-3.8,0-4.6,0c-1.1,0-2.3,0-3.4,0l-0.2,0
		c-1.8,0-3.5,0.6-5,2c-1.7,1.4-3.2,3.2-4.7,5.6c-0.5,0.8-1,1.7-1.5,2.6l-0.4,0.7c-0.2,0.4-0.4,0.7-0.9,0.7c-0.1,0-0.2,0-0.4,0
		L39,49.8c-1.3-0.2-2.5-0.5-3.8-0.7c-0.1,0-0.2,0-0.3,0c-0.8,0-1.4,0.5-1.6,1.3c-0.2,0.9,0.2,1.8,1.1,2c2.5,0.8,5,1.5,6.9,2
		c0.2,0,0.4,0.1,0.5,0.1c0.4,0,0.9-0.2,1.4-0.5c1.8-1.2,3.5-2.4,5.3-3.6l2.3-1.6c0.1-0.1,0.1-0.1,0.2-0.1c0.2-0.1,0.3-0.1,0.5-0.1
		c0.3,0,0.5,0.1,0.7,0.4c0.3,0.4,0.2,0.9-0.2,1.2c-0.2,0.1-0.3,0.2-0.5,0.3L49.1,52c-1.7,1.1-3.3,2.3-5,3.4
		c-0.8,0.5-1.6,0.8-2.4,0.8c-0.4,0-0.9-0.1-1.3-0.2c-0.5-0.2-1.1-0.3-1.6-0.5c-0.6-0.2-1.3-0.4-1.9-0.6c-0.8-0.3-1.6-0.4-2.3-0.4
		c-0.1,0-0.3,0-0.4,0c-0.2,0-0.4,0-0.6,0c-1.2,0-2.4-0.2-3.6-0.5c-0.5-0.1-1-0.2-1.6-0.3c-0.5-0.1-0.9-0.2-1.4-0.3
		c-0.4-0.1-0.7-0.1-1.1-0.2c-0.1,0-0.2,0-0.3,0c-0.7,0-1.3,0.5-1.4,1.1c-0.1,0.4,0,0.8,0.2,1.2c0.2,0.3,0.5,0.5,0.9,0.6
		c1.9,0.4,3.8,0.7,5.8,1.1l1.5,0.3c0.1,0,0.2,0,0.3,0l7.4,0c2,0,4,0,6,0c0,0,0,0,0,0c1.3,0,2.3-0.4,3.2-1.2c1.4-1.2,2.7-2.4,4.1-3.6
		c1.2-1,2.3-2.1,3.5-3.1c1-0.9,2-1.3,3.3-1.3c0,0,0.7,0,0.9,0s0.5,0,0.7,0c0,0,0,0,0,0c0.5,0,0.9,0.2,1.1,0.5l0,0v0.5
		c-0.2,0.5-0.6,0.7-1,0.7c-0.3,0-0.4,0-0.6,0c0,0-1.1,0-1.1,0c-0.9,0-1.6,0.3-2.2,0.8c-1.3,1.2-2.7,2.3-4,3.5
		c-1.2,1.1-2.5,2.2-3.7,3.3c-1.2,1-2.5,1.6-4.1,1.6l-1.8,0L38.7,59.3z M25.4,51.6c0.3,0,0.6,0,1,0.1C26.7,51.7,28,52,28,52l4,0.7
		l-0.6-1.4L31,51.2c-0.5-0.1-1-0.1-1.5-0.2c-0.2,0-0.4-0.2-0.5-0.4c-0.1-0.2-0.2-0.4-0.1-0.6c0.1-0.4,0.4-0.7,0.9-0.7
		c0,0,0.1,0,0.1,0c0.1,0,0.2,0,0.3,0.1c0.1,0,0.2,0,0.3,0.1c0.3,0,0.7,0.1,1,0.1l0.1,0c0,0-0.1-0.1-0.1-0.1
		c-0.1-0.1-0.3-0.2-0.4-0.4c-0.3-0.3-0.6-0.5-0.8-0.8c-0.5-0.7-1.3-1-2.3-1.3c-0.1,0-0.3-0.1-0.5-0.1c-0.7,0-1.3,0.5-1.4,1.2
		c-0.1,0.5-0.1,0.6,0.4,0.7c0.3,0.1,0.5,0.2,0.7,0.4c0.2,0.2,0.2,0.4,0.1,0.7c-0.1,0.4-0.4,0.6-0.9,0.6c-0.1,0-0.2,0-0.3,0
		c-0.2,0-0.5-0.1-0.7-0.1C25,50.1,24.5,50,24,50c0,0-0.1,0-0.1,0c-0.6,0-1.2,0.4-1.3,1.1c-0.2,0.6,0.1,1.2,0.6,1.6
		C23.9,51.9,24.5,51.6,25.4,51.6z"/>
	<linearGradient id="SVGID_2_" gradientUnits="userSpaceOnUse" x1="34.4999" y1="62.0447" x2="34.6214" y2="16.9728">
		<stop  offset="0" style="stop-color:#52C6F6"/>
		<stop  offset="0.119" style="stop-color:#58BFF5"/>
		<stop  offset="0.2889" style="stop-color:#6AACF2"/>
		<stop  offset="0.4893" style="stop-color:#888EEC"/>
		<stop  offset="0.7131" style="stop-color:#B163E5"/>
		<stop  offset="0.9534" style="stop-color:#E52CDC"/>
		<stop  offset="1" style="stop-color:#F021DA"/>
	</linearGradient>
	<path class="st1" d="M21.5,39c-0.2,0-0.4-0.1-0.6-0.3c-2-1.8-3.2-3.9-3.7-6.3c-0.5-2.6,0.2-5.4,1.9-7.6c1.6-2.2,4-3.7,6.6-4
		c0.5-0.1,1-0.1,1.5-0.1c2.8,0,5.2,1,7.2,3.1l2.2,2.2c0.2-0.2,0.5-0.5,0.7-0.7c0.6-0.6,1.2-1.2,1.8-1.8c1.9-1.8,4.3-2.8,6.9-2.8
		c1.9,0,3.8,0.5,5.4,1.6c0.2,0.1,0.4,0.2,0.5,0.4c0.3,0.3,0.3,0.7,0.1,1.1c-0.2,0.2-0.4,0.4-0.7,0.4c-0.1,0-0.2,0-0.4-0.1
		c-0.1,0-0.2-0.1-0.3-0.2c-1.5-1-3.1-1.4-4.7-1.4c-2.2,0-4.2,0.9-5.8,2.4c-0.6,0.6-1.2,1.2-1.8,1.8l-1,1c-0.2,0.2-0.5,0.4-0.8,0.4
		c-0.3,0-0.6-0.2-0.8-0.4c-0.3-0.3-0.6-0.6-0.9-1c-0.7-0.7-1.3-1.3-2-2c-1.6-1.5-3.6-2.3-5.7-2.3c-3.9,0-7.2,2.6-8.1,6.4
		c-0.7,2.9,0,5.4,2.1,7.7c0.2,0.2,0.3,0.3,0.5,0.5c0.2,0.2,0.3,0.3,0.5,0.5c0.4,0.4,0.4,0.9,0,1.3C21.9,39,21.7,39,21.5,39z"/>
	<linearGradient id="SVGID_3_" gradientUnits="userSpaceOnUse" x1="37.3889" y1="62.0525" x2="37.5104" y2="16.9806">
		<stop  offset="0" style="stop-color:#52C6F6"/>
		<stop  offset="0.119" style="stop-color:#58BFF5"/>
		<stop  offset="0.2889" style="stop-color:#6AACF2"/>
		<stop  offset="0.4893" style="stop-color:#888EEC"/>
		<stop  offset="0.7131" style="stop-color:#B163E5"/>
		<stop  offset="0.9534" style="stop-color:#E52CDC"/>
		<stop  offset="1" style="stop-color:#F021DA"/>
	</linearGradient>
	<path class="st2" d="M35.5,44.7c-1,0-2-0.5-2.6-1.3c-1-1.2-1-2.9,0-4.2c0.4-0.5,0.5-0.9,0.5-1.5c0-1.7,1.2-3,2.9-3.3
		c0.2,0,0.3,0,0.5,0c1.4,0,2.6,0.9,3.1,2.3c0.2,0.6,0.6,1,1.1,1.3c1,0.6,1.5,1.5,1.6,2.6c0,1-0.4,1.9-1,2.6c-0.6,0.6-1.5,1-2.4,1
		c-0.2,0-0.5,0-0.7-0.1c-0.2,0-0.3,0-0.5,0c-0.4,0-0.7,0.1-1.1,0.3C36.6,44.6,36,44.7,35.5,44.7z M36.9,36.2c-0.1,0-0.2,0-0.2,0
		c-0.8,0.1-1.4,0.8-1.4,1.5c0,1-0.3,1.9-1,2.8c-0.4,0.5-0.4,1.4,0.1,1.9c0.3,0.4,0.8,0.6,1.3,0.6c0.2,0,0.4,0,0.6-0.1
		c0.6-0.3,1.3-0.5,2-0.5c0.3,0,0.6,0,1,0.1c0.1,0,0.2,0,0.3,0l0,0c0.4,0,0.8-0.2,1.1-0.4c0.3-0.3,0.5-0.8,0.5-1.3
		c0-0.3-0.1-0.9-0.8-1.2c-0.9-0.5-1.5-1.3-1.9-2.3C38.2,36.6,37.5,36.2,36.9,36.2z"/>
	<linearGradient id="SVGID_4_" gradientUnits="userSpaceOnUse" x1="38.8893" y1="62.0565" x2="39.0108" y2="16.9846">
		<stop  offset="0" style="stop-color:#52C6F6"/>
		<stop  offset="0.119" style="stop-color:#58BFF5"/>
		<stop  offset="0.2889" style="stop-color:#6AACF2"/>
		<stop  offset="0.4893" style="stop-color:#888EEC"/>
		<stop  offset="0.7131" style="stop-color:#B163E5"/>
		<stop  offset="0.9534" style="stop-color:#E52CDC"/>
		<stop  offset="1" style="stop-color:#F021DA"/>
	</linearGradient>
	<path class="st3" d="M38.9,33.9c-1.4,0-2.6-1.2-2.6-2.6c0-1.5,1.1-2.6,2.6-2.6c0.7,0,1.4,0.3,1.9,0.8c0.5,0.5,0.8,1.2,0.8,1.9
		C41.6,32.7,40.4,33.9,38.9,33.9L38.9,33.9z M39,30.4c-0.5,0-0.9,0.4-0.9,0.9c0,0.5,0.4,0.9,0.9,0.9c0,0,0,0,0,0
		c0.2,0,0.5-0.1,0.7-0.3c0.2-0.2,0.3-0.4,0.3-0.7C39.9,30.8,39.5,30.4,39,30.4l0-0.2L39,30.4z"/>
	<linearGradient id="SVGID_5_" gradientUnits="userSpaceOnUse" x1="33.3797" y1="62.0416" x2="33.5011" y2="16.9698">
		<stop  offset="0" style="stop-color:#52C6F6"/>
		<stop  offset="0.119" style="stop-color:#58BFF5"/>
		<stop  offset="0.2889" style="stop-color:#6AACF2"/>
		<stop  offset="0.4893" style="stop-color:#888EEC"/>
		<stop  offset="0.7131" style="stop-color:#B163E5"/>
		<stop  offset="0.9534" style="stop-color:#E52CDC"/>
		<stop  offset="1" style="stop-color:#F021DA"/>
	</linearGradient>
	<path class="st4" d="M33.4,34.6c-0.7,0-1.3-0.3-1.8-0.8c-0.5-0.5-0.8-1.2-0.8-1.9c0-1.4,1.2-2.6,2.6-2.6c0.7,0,1.4,0.3,1.9,0.8
		c0.5,0.5,0.8,1.2,0.8,1.9C36.1,33.5,34.9,34.6,33.4,34.6L33.4,34.6z M33.4,31.1c-0.5,0-0.9,0.4-0.9,0.9c0,0.5,0.4,0.9,0.9,0.9
		c0.5,0,0.9-0.4,0.9-0.9c0-0.2-0.1-0.5-0.3-0.6C33.9,31.2,33.7,31.1,33.4,31.1l0-0.2L33.4,31.1z"/>
	<linearGradient id="SVGID_6_" gradientUnits="userSpaceOnUse" x1="43.0972" y1="62.0678" x2="43.2186" y2="16.996">
		<stop  offset="0" style="stop-color:#52C6F6"/>
		<stop  offset="0.119" style="stop-color:#58BFF5"/>
		<stop  offset="0.2889" style="stop-color:#6AACF2"/>
		<stop  offset="0.4893" style="stop-color:#888EEC"/>
		<stop  offset="0.7131" style="stop-color:#B163E5"/>
		<stop  offset="0.9534" style="stop-color:#E52CDC"/>
		<stop  offset="1" style="stop-color:#F021DA"/>
	</linearGradient>
	<path class="st5" d="M43.2,37.7c-1.4,0-2.6-1.2-2.6-2.6c0-0.7,0.3-1.4,0.8-1.9c0.5-0.5,1.2-0.8,1.9-0.8c1.5,0,2.6,1.2,2.6,2.6
		c0,0.7-0.3,1.4-0.8,1.9C44.6,37.4,43.9,37.7,43.2,37.7L43.2,37.7z M43.2,34.1c-0.2,0-0.5,0.1-0.7,0.3c-0.2,0.2-0.3,0.4-0.3,0.7
		c0,0.5,0.4,0.9,0.9,0.9c0.5,0,0.9-0.4,0.9-0.9C44.1,34.6,43.7,34.1,43.2,34.1v-0.2V34.1z"/>
	<linearGradient id="SVGID_7_" gradientUnits="userSpaceOnUse" x1="30.2859" y1="62.0333" x2="30.4074" y2="16.9615">
		<stop  offset="0" style="stop-color:#52C6F6"/>
		<stop  offset="0.119" style="stop-color:#58BFF5"/>
		<stop  offset="0.2889" style="stop-color:#6AACF2"/>
		<stop  offset="0.4893" style="stop-color:#888EEC"/>
		<stop  offset="0.7131" style="stop-color:#B163E5"/>
		<stop  offset="0.9534" style="stop-color:#E52CDC"/>
		<stop  offset="1" style="stop-color:#F021DA"/>
	</linearGradient>
	<path class="st6" d="M30.3,39.4c-1.4,0-2.6-1.2-2.6-2.7c0-1.4,1.2-2.6,2.7-2.6c1.5,0,2.6,1.2,2.6,2.6C33,38.2,31.8,39.4,30.3,39.4
		L30.3,39.4z M30.4,35.8c-0.5,0-0.9,0.4-0.9,0.9c0,0.2,0.1,0.5,0.3,0.7c0.2,0.2,0.4,0.3,0.7,0.3c0.5,0,0.9-0.4,0.9-0.9
		C31.3,36.2,30.9,35.8,30.4,35.8v-0.2V35.8z"/>
</g>
</svg>
