<svg id="Layer_1" data-name="Layer 1" xmlns="http://www.w3.org/2000/svg" xmlns:xlink="http://www.w3.org/1999/xlink" viewBox="0 0 50 50"><defs><style>.cls-1{fill:url(#linear-gradient);}.cls-2{fill:url(#linear-gradient-2);}.cls-3{fill:url(#linear-gradient-3);}.cls-4{fill:url(#linear-gradient-4);}.cls-5{fill:url(#linear-gradient-5);}.cls-6{fill:url(#linear-gradient-6);}.cls-7{fill:url(#linear-gradient-7);}</style><linearGradient id="linear-gradient" x1="22.75" y1="37.76" x2="22.75" y2="8.48" gradientUnits="userSpaceOnUse"><stop offset="0" stop-color="#52c6f6"/><stop offset="1" stop-color="#f021da"/></linearGradient><linearGradient id="linear-gradient-2" x1="30.43" y1="42.56" x2="30.43" y2="25.61" xlink:href="#linear-gradient"/><linearGradient id="linear-gradient-3" x1="30.14" y1="18.84" x2="30.14" y2="15.68" xlink:href="#linear-gradient"/><linearGradient id="linear-gradient-4" x1="15.34" y1="22.83" x2="15.34" y2="19.67" xlink:href="#linear-gradient"/><linearGradient id="linear-gradient-5" x1="30.14" y1="22.83" x2="30.14" y2="19.67" xlink:href="#linear-gradient"/><linearGradient id="linear-gradient-6" x1="15.34" y1="18.85" x2="15.34" y2="15.68" xlink:href="#linear-gradient"/><linearGradient id="linear-gradient-7" x1="14.14" y1="26.4" x2="14.14" y2="23.94" xlink:href="#linear-gradient"/></defs><path class="cls-1" d="M7.07,9a1.19,1.19,0,0,1,1.52-.39c4.17,1.32,8.34,2.62,12.52,3.93,1.75.55,1.75.54,3.53,0L36.77,8.7a4.94,4.94,0,0,1,.55-.15.84.84,0,0,1,1,.66,2.81,2.81,0,0,1,.06.65c0,4.77,0,9.53,0,14.3a3,3,0,0,1-.08.73.87.87,0,0,1-.81.69.91.91,0,0,1-.86-.75,4.54,4.54,0,0,1,0-.74V10.58l-13,4.07v8.82a4.53,4.53,0,0,1-.08,1,.78.78,0,0,1-.81.67.84.84,0,0,1-.84-.66,2.93,2.93,0,0,1,0-.73V14.58l-13-4.07V32.73c.49.17,1,.35,1.52.51l8.53,2.67a3.38,3.38,0,0,1,.69.26A.85.85,0,0,1,19,37.75a4.61,4.61,0,0,1-.64-.16Q13.27,36,8.14,34.36a6.83,6.83,0,0,1-1.07-.56Z"/><path class="cls-2" d="M44.05,36.59c-.34.38-.71.69-1.28.43-.12-.06-.31,0-.46,0a.87.87,0,0,1-1.08-1.2s0-.06,0-.08c.79-1.38.38-2.88.49-4.42l-3.59,1c-2.41.72-4.82,1.44-7.22,2.18a2.5,2.5,0,0,1-1.6,0c-1.85-.57-3.71-1.12-5.67-1.7-.06,2.46,0,4.85,0,7.33a35.4,35.4,0,0,0,13,0V38.36c0-.85,0-1.69,0-2.54a2.22,2.22,0,0,1,.09-.73.78.78,0,0,1,.83-.53.75.75,0,0,1,.74.55,2.69,2.69,0,0,1,.11.81c0,1.5,0,3,0,4.51,0,.94-.23,1.3-1.23,1.48a38.13,38.13,0,0,1-9.23.58c-1.72-.11-3.42-.39-5.13-.63-.78-.11-1-.4-1-1.23V32.37l-1.4-.45-2.75-.83c-.64-.2-.9-.48-.9-.92s.28-.73.91-.92c2.64-.8,5.28-1.58,7.93-2.37,1.31-.39,2.62-.77,3.93-1.18a1.83,1.83,0,0,1,1.11,0l11.78,3.52c.89.26,1,.41,1,1.34s0,2.13,0,3.2a4.1,4.1,0,0,0,.6,2.17Zm-4.81-6.34v-.16c-2.93-.88-5.86-1.77-8.79-2.62a1.67,1.67,0,0,0-.88.07l-5.49,1.64L21,30.1a.66.66,0,0,0,.37.25c2.69.81,5.39,1.6,8.08,2.44a2.33,2.33,0,0,0,1.43,0c2.45-.75,4.91-1.48,7.37-2.22Z"/><path class="cls-3" d="M32.38,15.68a.88.88,0,0,1,.94.64.8.8,0,0,1-.38.91,1.75,1.75,0,0,1-.44.2l-4.3,1.34a1.27,1.27,0,0,1-.64,0,.78.78,0,0,1-.61-.69.79.79,0,0,1,.37-.84,2,2,0,0,1,.52-.23c1.36-.43,2.71-.85,4.07-1.26A3.68,3.68,0,0,1,32.38,15.68Z"/><path class="cls-4" d="M17.54,22.83a3.68,3.68,0,0,1-.47-.11l-4-1.24a2.14,2.14,0,0,1-.6-.26.83.83,0,0,1-.32-.94.86.86,0,0,1,.87-.61,3.5,3.5,0,0,1,.64.15l3.9,1.23a2.85,2.85,0,0,1,.46.17.85.85,0,0,1-.5,1.61Z"/><path class="cls-5" d="M27.88,22.83a.88.88,0,0,1-.91-.55.85.85,0,0,1,.37-1,2.39,2.39,0,0,1,.52-.22l4.07-1.27a1.91,1.91,0,0,1,.47-.12.88.88,0,0,1,.9.58.83.83,0,0,1-.36,1,1.46,1.46,0,0,1-.44.2l-4.14,1.29A3.77,3.77,0,0,1,27.88,22.83Z"/><path class="cls-6" d="M13.14,15.68l.45.13c1.33.4,2.67.81,4,1.23a2.17,2.17,0,0,1,.6.27.79.79,0,0,1,.32.93.84.84,0,0,1-.86.61,1.13,1.13,0,0,1-.32-.06l-4.46-1.4a1.69,1.69,0,0,1-.36-.17.86.86,0,0,1-.34-.94C12.27,15.9,12.59,15.68,13.14,15.68Z"/><path class="cls-7" d="M16.16,25.47a.82.82,0,0,1-1,.9,24.79,24.79,0,0,1-2.49-.79.81.81,0,0,1-.49-1.07A.85.85,0,0,1,13.23,24c.79.22,1.57.48,2.34.74A.76.76,0,0,1,16.16,25.47Z"/></svg>