<svg id="Layer_1" data-name="Layer 1" xmlns="http://www.w3.org/2000/svg" xmlns:xlink="http://www.w3.org/1999/xlink" viewBox="0 0 50 50"><defs><style>.cls-1{fill:url(#linear-gradient);}.cls-2{fill:url(#linear-gradient-2);}.cls-3{fill:url(#linear-gradient-3);}.cls-4{fill:url(#linear-gradient-4);}.cls-5{fill:url(#linear-gradient-5);}</style><linearGradient id="linear-gradient" x1="26" y1="41.45" x2="26" y2="11.37" gradientUnits="userSpaceOnUse"><stop offset="0" stop-color="#52c6f6"/><stop offset="1" stop-color="#f021da"/></linearGradient><linearGradient id="linear-gradient-2" x1="25.99" y1="23.96" x2="25.99" y2="16.37" xlink:href="#linear-gradient"/><linearGradient id="linear-gradient-3" x1="26.01" y1="26.38" x2="26.01" y2="25.1" xlink:href="#linear-gradient"/><linearGradient id="linear-gradient-4" x1="25.98" y1="31.38" x2="25.98" y2="30.1" xlink:href="#linear-gradient"/><linearGradient id="linear-gradient-5" x1="26" y1="28.89" x2="26" y2="27.6" xlink:href="#linear-gradient"/></defs><path class="cls-1" d="M41,35.15c0,.34-.05.64-.11.92a6.4,6.4,0,0,1-3.66,5,4.09,4.09,0,0,1-1.79.38c-5.59,0-11.17,0-16.76,0a3.92,3.92,0,0,1-4-4q0-9.48,0-18.95V17.7H11a3.64,3.64,0,0,1,0-.54,6.19,6.19,0,0,1,4.12-5.45,6.59,6.59,0,0,1,2-.32c5.14,0,10.27,0,15.41,0a5.18,5.18,0,0,1,2.94.8,4.17,4.17,0,0,1,1.79,3.16A13.67,13.67,0,0,1,37.29,17c0,5,0,9.91,0,14.86v.45c0,.29-.12.38-.39.37-.6,0-1.2,0-1.8,0-.27,0-.41-.1-.4-.38s0-.3,0-.45c0-5,0-10.07,0-15.1a6.42,6.42,0,0,0-.13-1.39A1.74,1.74,0,0,0,33.13,14a5.45,5.45,0,0,0-1-.1H16.59l-.48,0a4,4,0,0,1,1.16,3.4c0,5.27,0,10.53,0,15.8,0,1.24,0,2.47,0,3.7a3.3,3.3,0,0,0,.13.89,1.18,1.18,0,0,0,1.83.71,3.06,3.06,0,0,0,1-1,11.67,11.67,0,0,0,.86-2c.1-.3.23-.41.52-.4h18.6C40.5,35.11,40.73,35.13,41,35.15Z"/><path class="cls-2" d="M26,24a2.65,2.65,0,0,1-.54-.25,1.57,1.57,0,0,0-1.06-.34,1,1,0,0,1-1.06-.79,1.22,1.22,0,0,0-.55-.73c-.56-.4-.64-.6-.43-1.22a1.41,1.41,0,0,0,0-1,.83.83,0,0,1,.4-1.19,1.35,1.35,0,0,0,.6-.82.92.92,0,0,1,1-.72,1.69,1.69,0,0,0,1.11-.35.85.85,0,0,1,1.11,0,1.7,1.7,0,0,0,1.11.36.94.94,0,0,1,1,.76,1.3,1.3,0,0,0,.58.78c.53.37.61.58.41,1.18a1.46,1.46,0,0,0,0,1,.8.8,0,0,1-.38,1.15,1.44,1.44,0,0,0-.64.85.85.85,0,0,1-.91.7,1.82,1.82,0,0,0-1.25.4A2.17,2.17,0,0,1,26,24Zm-1.24-4.1-.53.46.14-.05,1.23,1.39,2.25-2.33-.52-.52-1.76,1.77Z"/><path class="cls-3" d="M31,25.19v1.19H21V25.2C21.38,25.08,30.36,25.06,31,25.19Z"/><path class="cls-4" d="M21,31.38V30.21c.38-.12,9.36-.15,10,0v1.2Z"/><path class="cls-5" d="M29.71,28.89H22.22c0-.36,0-.72,0-1.07,0-.07.14-.16.23-.2a.75.75,0,0,1,.3,0h6.49c.55,0,.55,0,.55.57,0,.18,0,.37,0,.55S29.74,28.81,29.71,28.89Z"/></svg>