<svg id="Layer_1" data-name="Layer 1" xmlns="http://www.w3.org/2000/svg" xmlns:xlink="http://www.w3.org/1999/xlink" viewBox="0 0 50 50"><defs><style>.cls-1{fill:url(#linear-gradient);}.cls-2{fill:url(#linear-gradient-2);}</style><linearGradient id="linear-gradient" x1="26.02" y1="37.11" x2="26.02" y2="12.16" gradientUnits="userSpaceOnUse"><stop offset="0" stop-color="#52c6f6"/><stop offset="1" stop-color="#f021da"/></linearGradient><linearGradient id="linear-gradient-2" x1="35.88" y1="40.22" x2="35.88" y2="24.59" xlink:href="#linear-gradient"/></defs><path class="cls-1" d="M26.9,30a6.53,6.53,0,0,1,1.57-4.12,6.74,6.74,0,0,1,8.16-1.73A6.6,6.6,0,0,1,40,27.94a6.88,6.88,0,0,1-.13,5l1.63,1c.17-.22.09-.49.09-.74V17.9c0-.69,0-1.38,0-2.06a1.55,1.55,0,0,0-.81-1.45,13.87,13.87,0,0,0-8.86-2.15,13.43,13.43,0,0,0-5.23,1.67l-.67.35c-.78-.37-1.49-.76-2.24-1.06A13.4,13.4,0,0,0,11.1,14.46a6,6,0,0,0-.65.59V36.6c.65.62.93.66,1.68.19A12.46,12.46,0,0,1,17,35a11.72,11.72,0,0,1,7.08,1.2c.43.23.85.49,1.27.75a1.1,1.1,0,0,0,1.12.08l2.83-1.54A6.82,6.82,0,0,1,26.9,30ZM39,23.21a.76.76,0,0,1-.8.4,1.47,1.47,0,0,1-.42-.13,7.75,7.75,0,0,0-4.18-.95,7.67,7.67,0,0,0-4,.93,1.25,1.25,0,0,1-.41.14.75.75,0,0,1-.86-.42.72.72,0,0,1,.14-.94,3.79,3.79,0,0,1,.8-.52,8.46,8.46,0,0,1,3-.84A11.48,11.48,0,0,1,37,21.3a12.64,12.64,0,0,1,1.42.61,1.57,1.57,0,0,1,.47.34A.82.82,0,0,1,39,23.21Zm-10.4-5a6.07,6.07,0,0,1,2.43-1,12.27,12.27,0,0,1,5.62.1,12.51,12.51,0,0,1,1.83.74,1.44,1.44,0,0,1,.49.43.78.78,0,0,1,0,.84.88.88,0,0,1-.86.42,5.12,5.12,0,0,1-.49-.2,8.21,8.21,0,0,0-4.76-.9,7.59,7.59,0,0,0-3.44,1,.83.83,0,1,1-.86-1.42Zm-15.35,0a6.42,6.42,0,0,1,2.59-1c.8-.13,1.61-.18,2.42-.27a11.46,11.46,0,0,1,3.9.71,6.6,6.6,0,0,1,1.17.63.82.82,0,0,1,.26,1.1.83.83,0,0,1-1.09.33.93.93,0,0,1-.2-.1,8.38,8.38,0,0,0-4.92-.9,7.4,7.4,0,0,0-3.3.95A.81.81,0,0,1,13,19.37.85.85,0,0,1,13.28,18.17Zm10.34,5a.87.87,0,0,1-1.09.34l-.2-.11a6.36,6.36,0,0,0-2.5-.82,9.91,9.91,0,0,0-4.65.38c-.39.13-.75.36-1.13.53a.84.84,0,0,1-.83-1.45,2.35,2.35,0,0,1,.57-.33A17.7,17.7,0,0,1,16,21a20.82,20.82,0,0,1,2.26-.26,11.45,11.45,0,0,1,3.76.67,8,8,0,0,1,1.3.67A.82.82,0,0,1,23.62,23.21Zm0,7.8a.8.8,0,0,1-1.16.26,7,7,0,0,0-2.2-.82,9.71,9.71,0,0,0-5.07.31,10.32,10.32,0,0,0-1.06.51A.85.85,0,0,1,13,31a.84.84,0,0,1,.32-1.2,7.46,7.46,0,0,1,1.81-.8c1-.26,2.11-.38,2.8-.49a12.9,12.9,0,0,1,4.34.73,6.1,6.1,0,0,1,1.1.59A.84.84,0,0,1,23.61,31Zm0-3.86a.83.83,0,0,1-1.16.24,8.3,8.3,0,0,0-4.68-1,7.67,7.67,0,0,0-3.53.92,1.32,1.32,0,0,1-.68.21.73.73,0,0,1-.67-.5.83.83,0,0,1,.17-.9,2.92,2.92,0,0,1,.54-.38,7.86,7.86,0,0,1,2.71-.89c.65-.1,1.31-.13,1.88-.18a11.24,11.24,0,0,1,4.39.87,5.19,5.19,0,0,1,.76.44A.85.85,0,0,1,23.6,27.15Z"/><path class="cls-2" d="M41.63,35.71a5.68,5.68,0,0,0-2.2-1.7,1.49,1.49,0,0,1-.73-.77c-.08-.17.13-.49.23-.74A5.85,5.85,0,0,0,39.26,29a5.64,5.64,0,0,0-11.16,1.4,5.61,5.61,0,0,0,6.72,5.34c.64-.14,1.25-.4,1.92-.62a2.35,2.35,0,0,1,.94,1.13,2.59,2.59,0,0,0,.55.85c.39.44.82.85,1.24,1.26s.88.93,1.36,1.35a1.67,1.67,0,0,0,2.53-.23l.3-.41V37.93A12.6,12.6,0,0,0,41.63,35.71Zm-4-5.44a3.88,3.88,0,1,1-3.85-3.89A3.83,3.83,0,0,1,37.6,30.27Z"/></svg>