<svg id="Layer_1" data-name="Layer 1" xmlns="http://www.w3.org/2000/svg" xmlns:xlink="http://www.w3.org/1999/xlink" viewBox="0 0 50 50"><defs><style>.cls-1{fill:url(#linear-gradient);}.cls-2{fill:url(#linear-gradient-2);}.cls-3{fill:url(#linear-gradient-3);}.cls-4{fill:url(#linear-gradient-4);}.cls-5{fill:url(#linear-gradient-5);}.cls-6{fill:url(#linear-gradient-6);}.cls-7{fill:url(#linear-gradient-7);}.cls-8{fill:url(#linear-gradient-8);}.cls-9{fill:url(#linear-gradient-9);}.cls-10{fill:url(#linear-gradient-10);}.cls-11{fill:url(#linear-gradient-11);}</style><linearGradient id="linear-gradient" x1="26" y1="40.85" x2="26" y2="7.15" gradientUnits="userSpaceOnUse"><stop offset="0" stop-color="#52c6f6"/><stop offset="1" stop-color="#f021da"/></linearGradient><linearGradient id="linear-gradient-2" x1="29.57" y1="30.2" x2="29.57" y2="26.94" xlink:href="#linear-gradient"/><linearGradient id="linear-gradient-3" x1="23.56" y1="31.08" x2="23.56" y2="27.82" xlink:href="#linear-gradient"/><linearGradient id="linear-gradient-4" x1="29.41" y1="26.63" x2="29.41" y2="22.57" xlink:href="#linear-gradient"/><linearGradient id="linear-gradient-5" x1="17.6" y1="30.13" x2="17.6" y2="26.93" xlink:href="#linear-gradient"/><linearGradient id="linear-gradient-6" x1="23.61" y1="31.85" x2="23.61" y2="21.85" xlink:href="#linear-gradient"/><linearGradient id="linear-gradient-7" x1="17.79" y1="26.63" x2="17.79" y2="22.57" xlink:href="#linear-gradient"/><linearGradient id="linear-gradient-8" x1="23.6" y1="27.56" x2="23.6" y2="23.51" xlink:href="#linear-gradient"/><linearGradient id="linear-gradient-9" x1="32.5" y1="13.28" x2="34.53" y2="13.28" xlink:href="#linear-gradient"/><linearGradient id="linear-gradient-10" x1="35.53" y1="13.28" x2="37.56" y2="13.28" xlink:href="#linear-gradient"/><linearGradient id="linear-gradient-11" x1="38.56" y1="13.28" x2="40.59" y2="13.28" xlink:href="#linear-gradient"/></defs><path class="cls-1" d="M39.34,19.37a8.48,8.48,0,0,0,5-2.72,4.63,4.63,0,0,0-.09-6.53,9.25,9.25,0,0,0-2.53-1.85,11.45,11.45,0,0,0-8-.71A8.74,8.74,0,0,0,29.34,10a4.76,4.76,0,0,0-.15,6.67,4.38,4.38,0,0,0-.8-.06H10.21A1.27,1.27,0,0,0,9,17.75a4.91,4.91,0,0,0,0,.78V35.48c0,.23,0,.46,0,.71l0,.6H7.86c-.25,0-.49,0-.77,0l-.76.05V38c0,.54,0,1,0,1.55,0,.94.36,1.26,1.34,1.31h32a1.12,1.12,0,0,0,1.19-1.18c0-.53,0-1.06,0-1.65V36.79H38.13V19.52C38.55,19.48,39,19.44,39.34,19.37Zm-8.2-.13-1.2,2.49.87-.11A6.36,6.36,0,0,0,34.38,20a1.45,1.45,0,0,1,1.15-.37V34.36H11.72V19.24ZM30,10.64A7.81,7.81,0,0,1,34,8.48a12.09,12.09,0,0,1,2.93-.38,10.09,10.09,0,0,1,4.46,1,8.5,8.5,0,0,1,2.27,1.66,3.73,3.73,0,0,1,0,5.24,7.55,7.55,0,0,1-4.49,2.41,16.61,16.61,0,0,1-3.57.2,2.38,2.38,0,0,0-1.85.61,5.67,5.67,0,0,1-2.16,1.25l.6-1.25h.23l-.14-.17.44-.93-.87-.57c-.32-.2-.61-.38-.89-.58a4.5,4.5,0,0,1-2.1-3.35A3.85,3.85,0,0,1,30,10.64ZM9.86,18.49a3.76,3.76,0,0,1,0-.58c0-.27.16-.33.36-.34H28.39a1.9,1.9,0,0,1,1.48.47l.3.27H10.77v17H36.48V20.21l.7,0V36.06H9.89a5.78,5.78,0,0,1,0-.58ZM26.73,37a1.3,1.3,0,0,0-.46.47,1.31,1.31,0,0,1-.46.06h-4.5a3.43,3.43,0,0,0-.4,0,1.47,1.47,0,0,0-.49-.5Zm13.39,1c0,.59,0,1.11,0,1.63,0,.32-.12.43-.44.44h-32c-.6,0-.6,0-.62-.57s0-1,0-1.52v-.41h.06c.25,0,.48,0,.71,0h11.4c.53,0,.79,0,1,.37s.5.38,1,.39c1.51,0,3,0,4.52,0,.57,0,.9-.12,1.05-.37s.54-.4,1.09-.39H40.11Z"/><path class="cls-2" d="M27.33,30.16l1.46,0,1.42,0c.74,0,1.49,0,2.24-.1l.25,0,0-.25a3.27,3.27,0,0,0-6.17-1.07l-.06.12.77,1.29Zm2.55-2.71a2.7,2.7,0,0,1,2.26,2.2c-1.12.09-2.25.07-3.35.05H27.47l-.5-.84A2.71,2.71,0,0,1,29.88,27.45Z"/><path class="cls-3" d="M20.3,31.08h6.52v-.25a3.19,3.19,0,0,0-3.16-3,3.24,3.24,0,0,0-3.33,3Zm3.33-2.78a2.67,2.67,0,0,1,2.68,2.3H20.83A2.77,2.77,0,0,1,23.63,28.3Z"/><path class="cls-4" d="M29.4,26.63a2,2,0,0,0,2-2h0a2.08,2.08,0,0,0-.61-1.5,2,2,0,0,0-1.46-.6,2,2,0,0,0-2,2.05,1.92,1.92,0,0,0,2,2Zm-1.54-2a1.54,1.54,0,0,1,1.51-1.58h0A1.57,1.57,0,0,1,31,24.66a1.49,1.49,0,0,1-1.56,1.5h0A1.44,1.44,0,0,1,27.86,24.63Z"/><path class="cls-5" d="M20.75,28.83l-.07-.12A3.21,3.21,0,0,0,17.17,27a3.28,3.28,0,0,0-2.68,2.87l0,.27H20ZM15,29.66a2.81,2.81,0,0,1,5.19-.83l-.46.83Z"/><path class="cls-6" d="M13.72,30.92h5.65a1.21,1.21,0,0,0,1.39.93h.13c1.85,0,3.71,0,5.52,0a1.49,1.49,0,0,0,1.11-.29,1,1,0,0,0,.25-.58H30.9c.53,0,1.08,0,1.63,0a.86.86,0,0,0,1-1.15,3.67,3.67,0,0,0-.11-.5l0-.12a4.19,4.19,0,0,0-2-2.53c1.09-1.58,1.08-3,0-4.06a2.78,2.78,0,0,0-3.62-.15c-1.31,1.05-1.4,2.39-.28,4.21L26,27.85l-.47-.27c1.08-1.59,1.07-3,0-4.07a2.76,2.76,0,0,0-3.7-.11c-1.23,1-1.29,2.43-.16,4.16l-.45.28-1.47-1.21c1.1-1.45,1.11-2.93,0-4a2.79,2.79,0,0,0-3.7-.14,2.73,2.73,0,0,0-1,1.88,2.89,2.89,0,0,0,.86,2.29,4.12,4.12,0,0,0-2.16,4Zm2.62-4,.26-.15-.2-.22a2.65,2.65,0,0,1-.93-2.13A2.32,2.32,0,0,1,19.38,23c1,.93.9,2.22-.18,3.53l-.15.18,2.1,1.74,1.14-.74-.14-.2c-1.11-1.6-1.13-2.82,0-3.72a2.27,2.27,0,0,1,3.06.08c1.24,1.17.59,2.63-.17,3.66l-.16.21,1.22.72,2-1.69-.11-.18c-1.09-1.68-1.07-2.84.06-3.75A2.35,2.35,0,0,1,31,23c1.23,1.15.58,2.62-.19,3.65l-.16.22.24.13a3.85,3.85,0,0,1,2,2.36l0,.13a3.2,3.2,0,0,1,.1.42.81.81,0,0,1,0,.5q-.09.11-.48.12c-.53,0-1.08,0-1.6,0H27.7a.32.32,0,0,0-.14,0l-.27.07v.19a.61.61,0,0,1-.12.43c-.14.15-.47.16-.77.16-.91,0-1.83,0-2.76,0s-1.84,0-2.76,0c-.66,0-1-.06-1.09-.73l0-.21h-5.6A3.7,3.7,0,0,1,16.34,26.93Z"/><path class="cls-7" d="M17.78,26.63a2,2,0,0,0,2-2,2,2,0,0,0-3.43-1.51,2.11,2.11,0,0,0-.62,1.51,1.92,1.92,0,0,0,2,2Zm-1.54-2a1.58,1.58,0,0,1,.47-1.17A1.54,1.54,0,0,1,17.78,23h0a1.57,1.57,0,0,1,1.51,1.6h0a1.49,1.49,0,0,1-1.56,1.52h0A1.45,1.45,0,0,1,16.24,24.65Z"/><path class="cls-8" d="M23.59,27.56a2,2,0,1,0,0-4h0a1.93,1.93,0,0,0-2,2,2,2,0,0,0,2,2Zm-1.54-2A1.45,1.45,0,0,1,23.56,24a1.51,1.51,0,0,1,1.59,1.49,1.54,1.54,0,0,1-.44,1.14,1.57,1.57,0,0,1-1.14.47A1.52,1.52,0,0,1,22.05,25.53Z"/><circle class="cls-9" cx="33.52" cy="13.28" r="1.02"/><circle class="cls-10" cx="36.55" cy="13.28" r="1.02"/><circle class="cls-11" cx="39.57" cy="13.28" r="1.02"/></svg>