<?xml version="1.0" encoding="utf-8"?>
<!-- Generator: Adobe Illustrator 24.0.0, SVG Export Plug-In . SVG Version: 6.00 Build 0)  -->
<svg version="1.1" id="Layer_1" xmlns="http://www.w3.org/2000/svg" xmlns:xlink="http://www.w3.org/1999/xlink" x="0px" y="0px"
	 viewBox="0 0 80 80" style="enable-background:new 0 0 80 80;" xml:space="preserve">
<style type="text/css">
	.st0{fill:#FFFFFF;}
	.st1{fill:url(#SVGID_1_);}
	.st2{fill:url(#SVGID_2_);}
	.st3{fill:url(#SVGID_3_);}
</style>
<path class="st0" d="M68.9,80H11.1C4.9,80,0,75.1,0,68.9V11.1C0,4.9,4.9,0,11.1,0h57.9C75.1,0,80,4.9,80,11.1v57.9
	C80,75.1,75.1,80,68.9,80z"/>
<g>
	<linearGradient id="SVGID_1_" gradientUnits="userSpaceOnUse" x1="40" y1="61.89" x2="40" y2="27.2289">
		<stop  offset="0" style="stop-color:#5DBBF4"/>
		<stop  offset="1" style="stop-color:#F021DA"/>
	</linearGradient>
	<path class="st1" d="M33.4,61c-0.1,0-0.1,0-0.2,0c-0.3-0.1-0.5-0.3-0.6-0.5c-0.1-0.3,0-0.6,0.2-0.9c0.9-1.1,1.8-2.3,2.6-3.4l4-5.2
		l-0.2-0.1c-0.2-0.2-0.5-0.3-0.7-0.5c-0.3-0.2-0.6-0.3-1-0.5c-0.3-0.2-0.6-0.3-0.9-0.5c-0.1,0-0.1,0-0.1,0c0,0-0.1,0-0.2,0.1
		c-1,1-2,2-3,3L32.8,53c-0.2,0.2-0.5,0.4-0.8,0.4c-0.3,0-0.6-0.2-0.8-0.4l-3.8-3.8c-3.6,1.5-5.6,3.5-6.5,6.4c-0.3,0.9-0.4,2-0.4,3.3
		c0,0.4,0,0.9,0,1.3c0,0.5-0.3,0.8-0.8,0.8c-0.5,0-0.8-0.3-0.9-0.7c0-2-0.1-4.1,0.7-6.1c1-2.3,2.6-4.1,4.7-5.3
		c0.7-0.4,1.3-0.7,2-1.1c0.4-0.2,0.8-0.4,1.2-0.6c1-0.6,1.6-1.6,1.4-2.7c0,0-0.1-0.1-0.1-0.1c-0.3-0.1-0.6-0.2-0.9-0.3
		c-0.5-0.1-0.9-0.3-1.4-0.4c-1.8-0.7-2.9-2.3-3-4.3c0-0.7,0-1.3,0-2l0-0.7l-0.4,0c-0.9,0-1.5-0.5-1.8-1.3c-0.3-0.8-0.2-1.5,0.4-2.2
		c0.1-0.1,0.2-0.3,0.2-0.4c0-0.6,0-1.3,0-1.9c0-0.9,0-1.9,0-2.8c0.1-1.7,0.6-3.2,1.5-4.7c0.1-0.2,0.4-0.4,0.7-0.4
		c0.4,0.1,0.7,0.4,0.8,0.6c0.1,0.3-0.1,0.6-0.2,0.8c-0.6,0.9-0.9,1.9-1.1,2.8c-0.1,0.3-0.1,0.7-0.1,1.1c0,1.1,0,2.2,0,3.4V32
		c0-0.8,0.3-0.8,1.3-0.9c2.9-0.2,5.6-1.4,8.3-3.7c0.2-0.2,0.4-0.3,0.6-0.5c0.1-0.1,0.3-0.3,0.4-0.4c0.7-0.6,1.4-0.9,2.2-0.9
		c0.4,0,0.9,0.1,1.4,0.3c1.2,0.5,1.8,1.5,1.8,2.9c0,0.9,0,1.7,0,2.6v1.3l0.1,0c0-0.1,0-0.1,0-0.2l0-1c0-0.9,0-1.9,0-2.8
		c0-4.5-3.6-8.1-8.1-8.1l-0.2,0c-1.7,0-3.3,0.6-4.8,1.7c-0.2,0.1-0.5,0.3-0.7,0.3l-0.1,0c-0.3,0-0.6-0.4-0.6-0.6
		c0-0.3,0.1-0.6,0.3-0.8c1.4-1.1,3-1.8,4.8-2.1c0.1,0,0.1,0,0.2,0l0.1,0l1.7,0c0.3,0.1,0.5,0.1,0.7,0.1c0.5,0.1,1,0.2,1.5,0.4
		c4,1.3,6.6,5,6.7,9.1c0,0.7,0,1.4,0,2.2c0,0.7,0,1.4,0,2.2c0,0.1,0,0.3,0.1,0.3c0.6,0.7,0.7,1.4,0.3,2.2c-0.4,0.8-1,1.2-1.8,1.2
		l-0.3,0l0,0.4c0,0.5,0,0.9,0,1.4l0,0.4c0,0.5,0,1-0.1,1.5c-0.3,1.5-1.2,2.7-2.7,3.3c-0.6,0.3-1.3,0.4-2,0.6c-0.2,0-0.2,0.1-0.2,0.2
		c-0.1,1.3,0.5,2.2,1.7,2.8c1,0.5,2,1,3,1.5c0.4,0.2,1.2,0.6,1.2,0.6l0.9-1.2c0.7-1,1.5-1.9,2.2-2.9c0.1-0.1,0.1-0.2,0-0.3
		c-0.2-0.3-0.4-0.7-0.5-1c-0.3-0.6-0.3-1.2,0-1.7c0.2-0.5,0.7-0.9,1.3-1c1.7-0.4,3.4-0.7,4.7-0.9c0.1,0,0.2,0,0.3,0
		c0.7,0,1.3,0.4,1.7,1.1c0,0.1,0.2,0.2,0.2,0.2c1.2,0.3,2.3,0.9,3,2c0.3,0.4,0.6,0.8,0.8,1.1c0.3,0.4,0.6,0.9,1,1.3
		c0.2,0.2,0.4,0.3,0.6,0.3c0.2,0,0.3,0,0.4,0l1,0c0.2,0,0.4,0,0.6,0c0.1,0,0.1,0,0.2,0c1,0,1.6,0.5,2,1.4l0,0.7l-0.2,0.5
		c-0.1,0.3-0.2,0.7-0.3,1c-0.7,2.1-2.7,3.5-4.9,3.5c-0.7,0-1.4,0-2.1,0l-3.3,0c-0.5,0-0.5,0-0.7,0.5l-0.2,0.6
		c-0.1,0.4-0.3,0.7-0.4,1.1c-0.2,0.5-0.6,0.6-0.7,0.6c-0.1,0-0.2,0-0.3-0.1c-0.5-0.2-0.6-0.6-0.5-1.1l0.1-0.1
		c0.2-0.6,0.4-1.2,0.7-1.8c0.4-0.8,1-1.3,2-1.3l3.4,0c0.7,0,1.3,0,2,0c1.2,0,2.2-0.5,2.9-1.6c-0.9-0.8-0.9-0.9-1.5-2.3l-0.2,0
		c-0.1,0-0.1,0-0.2,0c-0.8,0-1.3-0.4-1.8-1c-0.4-0.6-0.8-1.2-1.3-1.7L53,44.6c-0.5-0.7-1.1-1.1-1.9-1.2l-1.8,5.2
		c-0.3,0.8-0.9,1.3-1.7,1.3c-0.1,0-0.1,0-0.2,0c-0.7,0-1.3-0.4-1.7-1.1c-0.3-0.5-1.1-2-1.1-2L44.5,47L34.2,60.5
		C34,60.7,33.8,61,33.4,61z M32.1,51.4l2.9-2.9c-1.2-0.8-1.9-2-2-3.8h-2.4c0,1.7-0.6,2.8-1.7,3.6L32.1,51.4z M59.2,48.9
		C59.2,48.9,59.2,48.9,59.2,48.9c0-0.3,0.1-0.5,0-0.7c0,0,0,0-0.1,0c-0.1,0-0.2,0-0.3,0c0,0-0.1,0-0.1,0L59.2,48.9z M49.4,42.1
		c-0.1,0-0.1,0-0.2,0c-1.4,0.3-2.8,0.5-4.1,0.8c-0.3,0.1-0.4,0.1-0.5,0.2c0,0.1,0,0.2,0.1,0.5l2.3,4.4c0.1,0.2,0.2,0.3,0.3,0.3
		c0.2,0,0.2-0.1,0.3-0.4l1.8-5.3c0-0.1,0.1-0.2,0.1-0.2C49.6,42.2,49.5,42.1,49.4,42.1z M25.3,39.4c0,1.4,0.7,2.4,2,2.9
		c1.5,0.6,2.9,0.8,4.4,0.8l0,0c1.5,0,2.9-0.3,4.4-0.8c1.3-0.5,2-1.5,2-2.9c0-0.9,0-1.9,0-2.8c0,0,0-6.2,0-7.7c0-0.9-0.6-1.6-1.6-1.6
		c-0.1,0-0.1,0-0.2,0c-0.4,0-0.8,0.2-1.2,0.6c-2,1.9-4.1,3.3-6.3,4c-0.8,0.3-1.6,0.5-2.5,0.7c-0.3,0.1-0.7,0.2-1,0.2
		C25.3,32.8,25.3,37.8,25.3,39.4z M23.4,34.3c-0.2,0-0.3,0-0.3,0.2c-0.1,0.1,0,0.3,0,0.4c0.1,0.1,0.1,0.2,0.3,0.2c0.1,0,0.1,0,0.2,0
		c0,0,0.1,0,0.1,0v-0.7C23.6,34.3,23.4,34.3,23.4,34.3z M40,35.1c0.2,0,0.3,0,0.3-0.2c0.1-0.1,0-0.3,0-0.4c-0.1-0.1-0.2-0.1-0.3-0.1
		c-0.1,0-0.2,0-0.2,0c0,0,0,0-0.1,0v0.7L40,35.1z"/>
	<linearGradient id="SVGID_2_" gradientUnits="userSpaceOnUse" x1="27.3595" y1="61.9528" x2="27.3595" y2="24.9234">
		<stop  offset="0" style="stop-color:#5DBBF4"/>
		<stop  offset="1" style="stop-color:#F021DA"/>
	</linearGradient>
	<path class="st2" d="M27.4,61c-0.5,0-0.8-0.3-0.8-0.9l0-1.1l-0.6,0c-0.2,0-0.4,0-0.5,0c-0.3,0-0.6-0.1-0.7-0.4
		c-0.1-0.2-0.2-0.5-0.1-0.7c0.1-0.3,0.4-0.5,0.8-0.5l1.2,0c0,0,0-0.8,0-1.1c0-0.8,0.4-0.9,0.8-0.9h0c0.5,0,0.8,0.3,0.9,0.9
		c0,0.3,0,0.6,0,0.9l0,0.2l1.1,0c0.6,0,0.9,0.3,0.9,0.8c0,0.5-0.3,0.8-0.9,0.8l-1.1,0l0,0.2c0,0.3,0,0.6,0,0.9
		C28.2,60.6,27.9,61,27.4,61L27.4,61z"/>
	<linearGradient id="SVGID_3_" gradientUnits="userSpaceOnUse" x1="46.7507" y1="62.0021" x2="46.7507" y2="23.1008">
		<stop  offset="0" style="stop-color:#5DBBF4"/>
		<stop  offset="1" style="stop-color:#F021DA"/>
	</linearGradient>
	<path class="st3" d="M46.5,61c-0.4,0-0.7-0.2-0.8-0.4c-0.1-0.2-0.2-0.5-0.1-0.7c0.2-0.6,0.5-1.3,0.7-1.9c0.1-0.3,0.4-0.5,0.8-0.5
		c0.1,0,0.2,0,0.3,0.1c0.4,0.2,0.6,0.6,0.5,1.1c-0.3,0.7-0.5,1.3-0.8,1.9c-0.1,0.2-0.3,0.3-0.4,0.4c0,0-0.1,0-0.1,0.1L46.5,61
		L46.5,61z"/>
</g>
</svg>
