<svg id="Layer_1" data-name="Layer 1" xmlns="http://www.w3.org/2000/svg" xmlns:xlink="http://www.w3.org/1999/xlink" viewBox="0 0 200 60"><defs><style>.cls-1{fill:none;}.cls-2{fill:url(#radial-gradient);}.cls-3{clip-path:url(#clip-path);}.cls-4{fill:#fff;}.cls-5{fill:url(#linear-gradient);}.cls-6{fill:url(#linear-gradient-2);}.cls-7{fill:url(#linear-gradient-3);}.cls-8{fill:url(#radial-gradient-2);}.cls-9{fill:url(#radial-gradient-3);}.cls-10{fill:url(#radial-gradient-4);}.cls-11{fill:#00adee;}</style><radialGradient id="radial-gradient" cx="170.8" cy="32.55" fx="146.09856985712472" fy="49.53468990023818" r="29.98" gradientTransform="matrix(1, 0, 0, -1, 0, 62)" gradientUnits="userSpaceOnUse"><stop offset="0.26" stop-color="#1d82ac"/><stop offset="0.98" stop-color="#25a9e0"/></radialGradient><clipPath id="clip-path"><circle class="cls-1" cx="170.8" cy="29.45" r="23.61"/></clipPath><linearGradient id="linear-gradient" x1="72.1" y1="48.08" x2="87" y2="48.08" gradientTransform="matrix(1, 0, 0, -1, 0, 62)" xlink:href="#radial-gradient"/><linearGradient id="linear-gradient-2" x1="57.87" y1="19.7" x2="71.25" y2="19.7" gradientTransform="matrix(1, 0, 0, -1, 0, 62)" xlink:href="#radial-gradient"/><linearGradient id="linear-gradient-3" x1="43.3" y1="48.1" x2="59.74" y2="48.1" gradientTransform="matrix(1, 0, 0, -1, 0, 62)" xlink:href="#radial-gradient"/><radialGradient id="radial-gradient-2" cx="73" cy="40.96" r="51.95" gradientTransform="matrix(1, 0, 0, -1, 0, 62)" gradientUnits="userSpaceOnUse"><stop offset="0" stop-color="#56caf4"/><stop offset="1" stop-color="#0e6789"/></radialGradient><radialGradient id="radial-gradient-3" cy="26.96" r="51.95" xlink:href="#radial-gradient-2"/><radialGradient id="radial-gradient-4" cx="176.65" cy="32.53" r="26.29" gradientTransform="matrix(1, 0, 0, -1, 0, 62)" gradientUnits="userSpaceOnUse"><stop offset="0.73" stop-color="#56caf4"/><stop offset="1" stop-color="#0e6789"/></radialGradient></defs><title>logo-200x60-white</title><circle class="cls-2" cx="170.8" cy="29.45" r="23.61"/><g class="cls-3"><path class="cls-4" d="M179,35.71a17.78,17.78,0,0,0-3.47-2.82c-.2-.13-.37-.16-.56-.3l.55-1.33a3.29,3.29,0,0,0-1.66.56.56.56,0,0,1-.37.15c-.23,0-.34-.29-.39-.52a16.93,16.93,0,0,1-.3-2,19.62,19.62,0,0,0-3.8,5.87,4.84,4.84,0,0,1-1,1.73c-.71.66-2.59-.5-3.58-.45a25.82,25.82,0,0,1-1.15,8c-.41,1-2.68,7.37-3,8.42,1.51.34,2.71,2,4.31,2a20.69,20.69,0,0,0,4-.38c.11-.26,2.07-5.79,2.17-6,1.08-2.59,2.63-6.72,3.71-9.31a.47.47,0,0,1,.3-.46,1.48,1.48,0,0,1,.59-.08h1.12a4.53,4.53,0,0,0,1.22-.08,1.46,1.46,0,0,0,.95-.73,3.73,3.73,0,0,1,.32-.84c.11-.14.28-.24.37-.4C179.59,36.45,179.29,36,179,35.71Z"/><path class="cls-4" d="M163.28,40.78a45,45,0,0,0-.23-7.25,17.64,17.64,0,0,1,0-2.72,15,15,0,0,1-5.45-2,29.18,29.18,0,0,1-2.81-2l-.91-.72A14.18,14.18,0,0,1,149,29.85a18.29,18.29,0,0,1-4.59,1.61A21.15,21.15,0,0,0,160,50.79c1-3.26,2.73-6.35,3.16-9.73A1.29,1.29,0,0,0,163.28,40.78Z"/><path class="cls-4" d="M161.39,25.72a1.46,1.46,0,0,1-1,.67,1.68,1.68,0,0,1-1.13-.29,6.33,6.33,0,0,1-1.43-1.4,7.11,7.11,0,0,1-.93-1.6c-.23-.52-.38-1-.55-1.43a12.44,12.44,0,0,1-1.46,3l1,.75a27.93,27.93,0,0,0,2.65,1.92,13.22,13.22,0,0,0,4.81,1.79,8.43,8.43,0,0,1,1-2.65,1.89,1.89,0,0,1,.81-.82,2.28,2.28,0,0,1,1.1-.1l4.91.37a1.67,1.67,0,0,0,.63,0c.49-.15.75-.68.95-1.15L173.92,22a.86.86,0,0,0,.09-.39.81.81,0,0,0-.38-.47,20,20,0,0,0-3.63-2,1.07,1.07,0,0,1-.44-.28,1.22,1.22,0,0,1-.11-.82c0-1.68-1.75-2.82-3.38-3.21-2.95-.72-8.09-.24-9.85,2.68a1.75,1.75,0,0,0-.15,1.7h0a4.46,4.46,0,0,1,.58.72,6,6,0,0,1,.59,1.32c.16.47.3,1,.48,1.48a6.41,6.41,0,0,0,.76,1.47,5.75,5.75,0,0,0,1.17,1.29,1,1,0,0,0,.68.24.88.88,0,0,0,.6-.39,4.08,4.08,0,0,0,.68-1.67,10.24,10.24,0,0,0,.19-1.83,10.28,10.28,0,0,1,.1-1.77,13.72,13.72,0,0,1,.26-1.56c.11-.48.24-.91.36-1.28a3.66,3.66,0,0,1,.44-.94,1.16,1.16,0,0,1,.5-.43.86.86,0,0,1,.23,0,.62.62,0,0,0-.23.07,1.19,1.19,0,0,0-.46.43,3.48,3.48,0,0,0-.37.94,11.88,11.88,0,0,0-.47,2.84v1.75a15.18,15.18,0,0,1-.09,1.91A4.78,4.78,0,0,1,161.39,25.72Z"/><path class="cls-4" d="M180.47,45.92a1.65,1.65,0,0,0-.46-.32,12.84,12.84,0,0,1-1.21-1,1.52,1.52,0,0,0-1.4-.34,4.67,4.67,0,0,0-.92-3.25,2.59,2.59,0,0,0-.14.29v.14a4.72,4.72,0,0,0,.06,2.36,5.27,5.27,0,0,0,.19.51,3.22,3.22,0,0,1-.23-.5,4.39,4.39,0,0,1-.28-1.19,5.42,5.42,0,0,1,0-.57,3,3,0,0,0-.93-.91,3.75,3.75,0,0,0,.7,3.07.71.71,0,0,1,.23.51.87.87,0,0,1-.16.3,2,2,0,0,0-.35,1,4.84,4.84,0,0,1-2.39.12l-.64-.06-2.3,7h1.21a.21.21,0,0,0,0-.19.53.53,0,0,1-.11-.09s0-.14,0-.14a3.27,3.27,0,0,0,2.28-.66.39.39,0,0,1,.25-.12A.37.37,0,0,1,174,52l.68.75a1.26,1.26,0,0,0,.38.31h2.24a.34.34,0,0,0,.13-.3.45.45,0,0,0-.2-.28,1.61,1.61,0,0,0-.7-.29.67.67,0,0,1-.28-.06c-.29-.15-.27-.56-.17-.87a2.17,2.17,0,0,0,1.42-.91,4.53,4.53,0,0,0,.68-1.6,2,2,0,0,1,.43-1,2.58,2.58,0,0,1,1.2-.42C180.45,47.18,181,46.51,180.47,45.92Z"/></g><path class="cls-4" d="M11.93,15v6h5.63V13.61c0-2.53.26-3.24.84-3.63s2.2-.9,5.12-.9c4.33,0,8.09.71,11.06,2.59A14.86,14.86,0,0,1,41.36,21h6.52A18,18,0,0,0,43,12.44c-4-3.82-9.78-5.63-18.9-5.63H6.1V8.62C11.15,9.14,11.93,9.4,11.93,15Z"/><path class="cls-4" d="M41,35c-2.23,7-7.76,11.45-16.48,11.45-4.86,0-6.93-1.36-6.93-6.21V35H11.93v5.75c0,5.31-.26,5.77-5.83,6.28v1.82H21.25c8,0,14.24-1.43,19.16-5.12A19.74,19.74,0,0,0,46.93,35Z"/><path class="cls-4" d="M95,13.61c-.2,2.76-.37,5.22-.52,7.43H97.1c.11-2.27.23-4.78.36-7.56,1,2.33,2,4.9,3.16,7.56h5.76l-6.2-14.23H88.87V8.62C94.56,9.14,95.21,10.24,95,13.61Z"/><path class="cls-4" d="M125.94,21c1.32-2.91,2.59-5.71,3.71-8.21V21H135V14.39c-.13-4.54.59-5.12,6.15-5.77V6.81H129.78L123.12,21Z"/><path class="cls-4" d="M96.25,42.48c0-.66,0-2.44.2-7.44h-3c-.31,4.49-.43,5.86-.64,7.37-.51,3.5-2.07,4.28-5.82,4.66v1.82h15.34V47.07C97.93,46.62,96.31,46.1,96.25,42.48Z"/><path class="cls-4" d="M116.58,35l-2.15,4.59-2-4.59h-6.1c2.43,6,4.51,11.15,5.52,13.85h1.68c1-2.59,3.35-7.81,6.07-13.85Z"/><path class="cls-4" d="M135.21,39.24V35h-5.58v4.2c.07,6.93-.13,7.32-5.44,7.83v1.82h17.22V47.07C135.67,46.49,135.47,46.17,135.21,39.24Z"/><path class="cls-5" d="M76.76,13.61c-.86,2.32-1.83,4.83-2.85,7.43H77c1-2.49,1.82-4.43,2.23-5.43,2.33-5.82,3.43-6.4,7.77-7V6.81H72.1V8.62C77.41,9.27,78.19,9.85,76.76,13.61Z"/><path class="cls-6" d="M68.32,35,66,40.67c-.7-1.84-1.41-3.73-2.13-5.63h-6c1.91,5.17,3.78,10.27,5.35,14.56h2.14c1.3-3.28,3.55-8.84,5.89-14.56Z"/><path class="cls-7" d="M50.16,14.45,52.67,21h6c-1.37-3.75-2.49-6.87-3.12-8.73-.91-2.39-.65-3.17,4.14-3.69V6.81H43.3V8.62C47.25,9,48.35,9.66,50.16,14.45Z"/><path class="cls-8" d="M0,21c12.16-.2,24.33-.3,36.49-.38L73,20.54l36.49.12,18.25.14L146,21l-18.24.25-18.25.14L73,21.54l-36.49-.12C24.33,21.34,12.16,21.25,0,21Z"/><path class="cls-9" d="M0,35c12.16-.21,24.33-.31,36.49-.39L73,34.54l36.49.11,18.25.14L146,35l-18.24.24-18.25.14L73,35.53l-36.49-.11C24.33,35.34,12.16,35.24,0,35Z"/><path class="cls-4" d="M13,30.27a18.77,18.77,0,0,1-.82,2.32A13.62,13.62,0,0,1,9.41,33,5,5,0,0,1,4,28.43c0-.2,0-.4,0-.6,0-3.12,2.31-5.29,5.66-5.29a15,15,0,0,1,2.83.36c.06.69.16,1.61.28,2.37l-.46.11a2.65,2.65,0,0,0-1.42-2,4,4,0,0,0-1.57-.29c-2.47,0-3.77,1.87-3.77,4.4,0,3,1.5,4.86,3.92,4.86,1.52,0,2.27-.72,3-2.25Z"/><path class="cls-4" d="M33.84,30.29c-.09.4-.5,2-.65,2.44H25.93V32.3c1.39-.11,1.49-.25,1.49-1.51V24.74c0-1.37-.16-1.45-1.28-1.55v-.43h6.74c0,.38.07,1.53.13,2.34l-.45.08A5.59,5.59,0,0,0,32.12,24c-.24-.5-.59-.61-1.48-.61H29.22c-.47,0-.5.05-.5.49v3.39h1.66c1.12,0,1.2-.23,1.38-1.27h.46v3.16h-.46c-.2-1.11-.32-1.26-1.39-1.26H28.72V31c0,1.07.33,1.17,1.08,1.18h1.39c.91,0,1.06-.14,1.39-.53a7.06,7.06,0,0,0,.81-1.41Z"/><path class="cls-4" d="M56.88,23.19c-1,.1-1.27.26-1.31,1V32.9H55l-6.4-8v3.84c0,1.38,0,2.07.08,2.51,0,.78.4,1,1.48,1.11v.43H46.47V32.3c.93-.08,1.29-.31,1.35-1.06,0-.49.08-1.18.08-2.58V24.75a1.34,1.34,0,0,0-.3-1c-.29-.38-.6-.48-1.33-.55v-.43h2.24l6.34,7.71V26.71a23.86,23.86,0,0,0-.08-2.54c0-.69-.38-.91-1.58-1v-.43h3.69Z"/><path class="cls-4" d="M77.73,25.17a5.62,5.62,0,0,0-.48-1.28c-.24-.41-.39-.52-1.21-.52H74.55v7.47c0,1.2.12,1.36,1.54,1.46v.43H71.73V32.3c1.4-.1,1.51-.25,1.51-1.46V23.37H71.88c-.82,0-1.06.09-1.31.55a8,8,0,0,0-.5,1.25h-.44c.09-.94.18-1.91.22-2.76h.34c.23.36.39.35.81.35h5.92a.76.76,0,0,0,.77-.35H78c0,.72.06,1.82.14,2.71Z"/><path class="cls-4" d="M99.94,32.85h-.55a2.65,2.65,0,0,1-2.34-1.32c-.55-.81-1-1.78-1.57-2.53-.3-.49-.49-.58-1.25-.58H93.7v2.4c0,1.31.17,1.38,1.36,1.51v.43h-4V32.3c1.24-.14,1.35-.2,1.35-1.51V24.67c0-1.3-.17-1.34-1.35-1.48v-.43h3.81a4.19,4.19,0,0,1,2.4.52,2.31,2.31,0,0,1,1,2,2.84,2.84,0,0,1-1.92,2.64c.26.48.91,1.5,1.36,2.19a11.39,11.39,0,0,0,1.18,1.58,2.11,2.11,0,0,0,1.09.71Zm-5.52-5a2.42,2.42,0,0,0,1.65-.44,2.18,2.18,0,0,0,.82-1.89,2,2,0,0,0-1.73-2.24,1.93,1.93,0,0,0-.48,0,1.38,1.38,0,0,0-.8.16c-.13.11-.18.26-.18.66v3.75Z"/><path class="cls-4" d="M118,32.73V32.3c1-.13,1.09-.28.88-.86s-.5-1.37-.81-2.33h-3.23c-.24.69-.46,1.28-.67,1.91-.33,1-.12,1.12,1.11,1.28v.43h-3.46V32.3c.94-.13,1.18-.23,1.71-1.61l3.09-8,.48-.1,2.9,8.13c.47,1.33.61,1.45,1.67,1.58v.43Zm-1.5-8.18-1.43,3.93h2.79Z"/><path class="cls-4" d="M141.47,30.18c-.09.48-.54,2.07-.69,2.55h-6.95V32.3c1.36-.14,1.48-.22,1.48-1.52V24.69c0-1.3-.15-1.38-1.35-1.5v-.43h4v.43c-1.19.12-1.36.18-1.36,1.5v6.24c0,.94.12,1.15,1,1.17h1.18c.77,0,1-.09,1.33-.47a5.12,5.12,0,0,0,.92-1.58Z"/><path class="cls-10" d="M155,5.76a27.79,27.79,0,0,1,14.36-5A28.55,28.55,0,0,1,184.44,4.1a28.91,28.91,0,0,1,11.22,10.75,27.58,27.58,0,0,1,1.73,3.54,27,27,0,0,1,1.27,3.74,28.68,28.68,0,0,1-15.07,33.14l-.88.45c-.3.13-.61.24-.91.36l-1.82.71-1.89.53c-.31.08-.62.18-.94.25l-1,.16c-.64.1-1.28.23-1.92.31l-1.95.13a21.87,21.87,0,0,1-3.88-.06,27.69,27.69,0,0,1-14.19-5.5,28.28,28.28,0,0,0,14.26,4.52,21.23,21.23,0,0,0,3.74-.11l1.85-.2c.62-.1,1.22-.25,1.83-.37l.91-.2c.3-.08.6-.18.89-.27l1.78-.55,1.71-.73c.28-.12.57-.23.85-.37l.81-.45a27.55,27.55,0,0,0,6-4.28,30,30,0,0,0,4.66-5.7,27.45,27.45,0,0,0,4-14,26.71,26.71,0,0,0-.82-7.29A28.9,28.9,0,0,0,194,15.8,28,28,0,0,0,169.43,1.72,28.54,28.54,0,0,0,155,5.76Z"/><rect class="cls-11" x="6.1" y="52.38" width="135.26" height="1.37"/></svg>