<svg id="Layer_1" data-name="Layer 1" xmlns="http://www.w3.org/2000/svg" xmlns:xlink="http://www.w3.org/1999/xlink" viewBox="0 0 48 48"><defs><style>.cls-1{fill:url(#linear-gradient);}.cls-2{fill:#848484;}.cls-3{fill:url(#linear-gradient-2);}</style><linearGradient id="linear-gradient" x1="0.65" y1="30.46" x2="17.54" y2="30.46" gradientUnits="userSpaceOnUse"><stop offset="0" stop-color="#21a5ed"/><stop offset="1" stop-color="#0046cd"/></linearGradient><linearGradient id="linear-gradient-2" x1="1.43" y1="30.47" x2="16.83" y2="30.47" gradientUnits="userSpaceOnUse"><stop offset="0.09" stop-color="#0046cd"/><stop offset="1" stop-color="#21a5ed"/></linearGradient></defs><title>bill</title><path d="M10.56,43.72c1.43-.55,1.43-.55,3,.86a8.6,8.6,0,0,1,2-1.16c.91-.23,1.29.81,2,1.2,2.08-1.55,2.08-1.55,3.82-.06.67-.4,1.33-1.07,2-1.1s1.29.63,2,1c.58-.33,1.25-1,1.93-1s1.3.65,1.92,1c.63-.34,1.31-1,2-1s1.28.67,2,1.09c.81-.65,1.58-1.87,3.08-.62V7.47c0-1.57-.16-3.15.78-4.72H13.74a3.87,3.87,0,0,0-1.36.15,2.64,2.64,0,0,0-1.87,2.61c0,1.73,0,3.45,0,5.17,0,2.65,0,5.29,0,7.93a5.43,5.43,0,0,1-.09,1.14,1.18,1.18,0,0,1-1.21,1,1.26,1.26,0,0,1-1.35-1,4.34,4.34,0,0,1-.07-1c0-4.25,0-8.51,0-12.76a5.6,5.6,0,0,1,6-6q13.85,0,27.7,0a5.63,5.63,0,0,1,5.91,5.82c0,1.57,0,3.14,0,4.71a3.71,3.71,0,0,1,0,.58A1.34,1.34,0,0,1,45,12c-.32-.26-.61-.57-1-.92-.22.21-.44.4-.65.59-1.06,1-1.52,1-2.62,0l-.57-.52a2.52,2.52,0,0,0-1.34,2.45c0,10.57,0,21.15,0,31.72A2.51,2.51,0,0,1,38,47.43a1.41,1.41,0,0,1-2.21,0c-.26-.23-.5-.47-.81-.76-.24.2-.47.38-.68.58-1.06,1-1.54,1-2.62,0-.14-.13-.27-.27-.42-.39a.93.93,0,0,0-.2-.08c-1.89,1.51-1.89,1.51-3.87,0-2.11,1.76-1.85,1.62-3.86,0-2,1.51-2,1.51-3.8.05-.69.41-1.35,1.09-2,1.11s-1.28-.67-1.95-1.07c-.56.34-1.22,1.06-1.89,1.06s-1.35-.69-2.09-1.12c-.26.24-.57.57-.93.85a1.28,1.28,0,0,1-1.77,0,2.51,2.51,0,0,1-1.14-2.25c.08-1.14,0-2.29,0-3.44a3,3,0,0,1,.07-.8,1.25,1.25,0,0,1,1.26-1,1.18,1.18,0,0,1,1.29,1.05C10.51,42,10.51,42.87,10.56,43.72ZM42.09,9.11c.77-.58,1.28-1.53,2.5-1.31,0-.87,0-1.59,0-2.3A2.72,2.72,0,0,0,41.8,2.76a2.78,2.78,0,0,0-2.88,2.66c-.08.94,0,1.88,0,3C40.42,7,41.18,8.36,42.09,9.11Z"/><path class="cls-1" d="M17.54,30.46a8.33,8.33,0,0,1-8.32,8.43,8.44,8.44,0,1,1,8.32-8.43Zm-1.9-1.62c0-3.2-3.3-4.12-6.47-4.15s-6.7,2-6.72,5.21,3.45,6.31,6.64,6.34S15.63,32,15.64,28.84Z"/><path d="M23.28,19.54H15a4.43,4.43,0,0,1-1-.07,1.26,1.26,0,0,1-1-1.35,1.18,1.18,0,0,1,1-1.21,5.43,5.43,0,0,1,1.14-.09H31.45a6.52,6.52,0,0,1,1.25.1,1.25,1.25,0,0,1,1,1.22,1.3,1.3,0,0,1-1,1.33,4.34,4.34,0,0,1-1,.07Z"/><path d="M25.67,22h6.09a4.63,4.63,0,0,1,.91,0,1.38,1.38,0,0,1,1.07,1.33,1.33,1.33,0,0,1-1.13,1.25,5.43,5.43,0,0,1-.8,0H19.41a5.29,5.29,0,0,1-.8,0,1.3,1.3,0,0,1-1.12-1.26,1.33,1.33,0,0,1,1-1.29,4.34,4.34,0,0,1,1-.07Z"/><path d="M26.58,29.9c-1.73,0-3.45,0-5.17,0a3.47,3.47,0,0,1-1-.11,1.24,1.24,0,0,1-.93-1.4,1.2,1.2,0,0,1,1.1-1.14,8.71,8.71,0,0,1,1.14-.06c3.3,0,6.59,0,9.89,0a6.93,6.93,0,0,1,.91,0,1.34,1.34,0,0,1,1.24,1.28,1.38,1.38,0,0,1-1.08,1.32,4,4,0,0,1-.91.07Z"/><path d="M26.58,35H21.41a7.06,7.06,0,0,1-.8,0,1.25,1.25,0,0,1-1.16-1.21,1.34,1.34,0,0,1,1-1.38,4,4,0,0,1,.91-.06H31.81a4,4,0,0,1,.69,0,1.38,1.38,0,0,1,1.23,1.41A1.28,1.28,0,0,1,32.44,35c-1.34,0-2.68,0-4,0Z"/><path d="M22.09,14.31a1.29,1.29,0,0,1-1.36-1.24,1.37,1.37,0,0,1,1.36-1.39A1.4,1.4,0,0,1,23.4,13,1.32,1.32,0,0,1,22.09,14.31Z"/><path d="M14.33,14.32A1.26,1.26,0,0,1,13,13.07a1.33,1.33,0,0,1,1.33-1.39A1.41,1.41,0,0,1,15.64,13,1.34,1.34,0,0,1,14.33,14.32Z"/><path d="M18.15,14.31A1.26,1.26,0,0,1,16.87,13a1.3,1.3,0,0,1,1.28-1.32,1.36,1.36,0,0,1,1.36,1.38A1.32,1.32,0,0,1,18.15,14.31Z"/><path class="cls-2" d="M42.09,9.11c-.91-.75-1.67-2.11-3.19-.66,0-1.15-.06-2.09,0-3A2.78,2.78,0,0,1,41.8,2.76,2.72,2.72,0,0,1,44.59,5.5c0,.71,0,1.43,0,2.3C43.37,7.58,42.86,8.53,42.09,9.11Z"/><path class="cls-3" d="M16.83,30.53a7.7,7.7,0,1,1-7.65-7.8A7.73,7.73,0,0,1,16.83,30.53ZM8,30.7c-.71-.86-1.21-1.59-1.83-2.2a1.76,1.76,0,0,0-2.71-.11A1.74,1.74,0,0,0,3.65,31c1,1.09,2.07,2.14,3.15,3.16s1.88,1,3,0c1.26-1.21,2.47-2.46,3.7-3.69A17.08,17.08,0,0,0,14.83,29a1.73,1.73,0,0,0-.13-2.38,1.82,1.82,0,0,0-2.38-.08,11.14,11.14,0,0,0-1,.94Z"/></svg>