<svg id="Layer_1" data-name="Layer 1" xmlns="http://www.w3.org/2000/svg" xmlns:xlink="http://www.w3.org/1999/xlink" viewBox="0 0 48 48"><defs><style>.cls-1{fill:url(#linear-gradient);}.cls-2{fill:url(#linear-gradient-2);}.cls-3{fill:#fff;}.cls-4{fill:url(#linear-gradient-3);}</style><linearGradient id="linear-gradient" x1="6.71" y1="-280.34" x2="24.26" y2="-280.34" gradientTransform="translate(-70.61 283.59) rotate(19.64)" gradientUnits="userSpaceOnUse"><stop offset="0.09" stop-color="#3554a5"/><stop offset="1" stop-color="#3da2db"/></linearGradient><linearGradient id="linear-gradient-2" x1="-2.1" y1="-284.54" x2="15.91" y2="-284.54" xlink:href="#linear-gradient"/><linearGradient id="linear-gradient-3" x1="9.35" y1="-279.04" x2="17.39" y2="-279.04" xlink:href="#linear-gradient"/></defs><title>Pay online</title><path d="M0,34.53c.42,0,.85-.08,1.29-.09,3.82,0,7.64,0,11.47,0a2.67,2.67,0,0,1,1.79.61,3.24,3.24,0,0,0,1.8.63c2.84.06,5.67.07,8.51,0A6.26,6.26,0,0,0,26.78,35a4.18,4.18,0,0,1,1.31-.51c4.11,0,8.22,0,12.33,0a5.59,5.59,0,0,1,.82.12,3.45,3.45,0,0,1-2.75,3.61,7.52,7.52,0,0,1-1.71.17q-16.09,0-32.19,0a9.3,9.3,0,0,1-1.83-.17A3.45,3.45,0,0,1,0,34.53Z"/><path d="M37,13.37c0-2.68-1.53-4.15-4.26-4.16H8.53c-2.8,0-4.24,1.46-4.24,4.28q0,9,0,18c0,.45,0,.89.06,1.42H36.86c0-.45.1-.81.1-1.17Q37,22.56,37,13.37Z"/><path class="cls-1" d="M36.08,30.32,30,28.14a2,2,0,0,1-1.31-2.8q1.24-3.51,2.51-7A2,2,0,0,1,34,17c1.65.57,3.29,1.17,4.94,1.76,2.42.87,4.84,1.76,7.28,2.59a2.26,2.26,0,0,1,1.43,3c-.81,2.23-1.6,4.46-2.4,6.69a3.09,3.09,0,0,1-.34.68,1.92,1.92,0,0,1-2.48.88l-6.37-2.27Zm9.08-3.49L31.45,21.94a5.57,5.57,0,0,0-.23.52l-1.14,3.18c-.23.65-.13.89.5,1.19.12.06.26.1.39.15l11.49,4.1c.13,0,.26.1.39.13a.68.68,0,0,0,.89-.42C44.22,29.5,44.67,28.2,45.16,26.83ZM46,24.3c.08-.17.13-.27.17-.38a3,3,0,0,0,.11-.32.57.57,0,0,0-.37-.77l-.52-.19-4.36-1.55L33.52,18.4c-.58-.21-.78-.11-1,.45a4.74,4.74,0,0,0-.17.57Z"/><path class="cls-2" d="M29,21.09l-1.08,3a20.65,20.65,0,0,1-2.83,0,2,2,0,0,1-1.69-1.95q0-3.27,0-6.54c0-.43,0-.87,0-1.3a2,2,0,0,1,2-2c1.95,0,3.9,0,5.84,0,1.77,0,3.53,0,5.3-.06.78,0,1.56-.06,2.33,0a2,2,0,0,1,2,2c0,.64,0,1.28,0,1.92v1.44c0,.25,0,.49,0,.83-.33-.11-.57-.17-.8-.26-2-.7-4-1.35-5.9-2.12a3.16,3.16,0,0,0-4,1.89c-.21.61-.46,1.21-.64,1.82a.62.62,0,0,1-.71.5c-.62,0-1.24,0-1.85,0a4.4,4.4,0,0,0-.89.07c-.17,0-.35.12-.33.37a.37.37,0,0,0,.31.4,6,6,0,0,0,.95.07C27.66,21.1,28.28,21.09,29,21.09Zm-2.66-2.91.13,0c.6,0,1.2,0,1.79,0a.77.77,0,0,0,.64-.72,6.62,6.62,0,0,0,0-1.09.72.72,0,0,0-.76-.74,12.68,12.68,0,0,0-1.51,0,.77.77,0,0,0-.8.83,6.15,6.15,0,0,0,0,1A.81.81,0,0,0,26.36,18.18Z"/><path class="cls-3" d="M45.16,26.83c-.49,1.37-.94,2.67-1.42,4a.68.68,0,0,1-.89.42c-.13,0-.26-.09-.39-.13L31,27c-.13-.05-.27-.09-.39-.15-.63-.3-.73-.54-.5-1.19l1.14-3.18a5.57,5.57,0,0,1,.23-.52Zm-9.23-2h0L34,24.1c-.45-.16-.9-.34-1.36-.48a.45.45,0,0,0-.63.24.55.55,0,0,0,.23.66,1.7,1.7,0,0,0,.44.18l5.83,2.08A5.25,5.25,0,0,0,39,27a.42.42,0,0,0,.5-.26c.16-.34.06-.58-.35-.74Z"/><path class="cls-3" d="M46,24.3,32.34,19.42a4.74,4.74,0,0,1,.17-.57c.23-.56.43-.66,1-.45l7.54,2.69,4.36,1.55.52.19a.57.57,0,0,1,.37.77,3,3,0,0,1-.11.32C46.16,24,46.11,24.13,46,24.3Z"/><path class="cls-3" d="M26.36,18.18a.81.81,0,0,1-.53-.74,6.15,6.15,0,0,1,0-1,.77.77,0,0,1,.8-.83,12.68,12.68,0,0,1,1.51,0,.72.72,0,0,1,.76.74,6.62,6.62,0,0,1,0,1.09.77.77,0,0,1-.64.72c-.59,0-1.19,0-1.79,0Z"/><path class="cls-4" d="M35.93,24.79,39.17,26c.41.16.51.4.35.74A.42.42,0,0,1,39,27a5.25,5.25,0,0,1-.52-.17L32.67,24.7a1.7,1.7,0,0,1-.44-.18.55.55,0,0,1-.23-.66.45.45,0,0,1,.63-.24c.46.14.91.32,1.36.48l1.94.69Z"/><rect class="cls-3" x="6.79" y="13.55" width="11.76" height="0.93" rx="0.47"/><rect class="cls-3" x="6.79" y="15.56" width="11.76" height="0.93" rx="0.47"/><rect class="cls-3" x="6.79" y="17.77" width="6.36" height="0.93" rx="0.34"/><rect class="cls-3" x="6.79" y="20.17" width="4.32" height="0.93" rx="0.28"/><rect class="cls-3" x="6.79" y="22.56" width="9.1" height="0.93" rx="0.41"/><rect class="cls-3" x="6.79" y="25.03" width="9.1" height="0.93" rx="0.41"/><rect class="cls-3" x="6.79" y="27.83" width="10.66" height="0.93" rx="0.44"/></svg>