<svg id="Layer_1" data-name="Layer 1" xmlns="http://www.w3.org/2000/svg" xmlns:xlink="http://www.w3.org/1999/xlink" viewBox="0 0 48 48"><defs><style>.cls-1{fill:url(#linear-gradient);}</style><linearGradient id="linear-gradient" x1="32.52" y1="6.42" x2="20.46" y2="27.32" gradientUnits="userSpaceOnUse"><stop offset="0.09" stop-color="#0046cd"/><stop offset="1" stop-color="#21a5ed"/></linearGradient></defs><title>delivery-status</title><path class="cls-1" d="M15.11,13.54c0,1.58,0,2.94,0,4.29s-.5,1.6-1.49.84C10,15.9,6.44,13.07,2.87,10.26a4.36,4.36,0,0,1-.57-.81C6.39,6.27,10.33,3,14.48,0L15,.24l.25,5.31,2.24.14c3.6.21,7.22.22,10.79.67a25.66,25.66,0,0,1,14.22,6.48c4.33,3.91,5.54,9,4.8,14.59a15.23,15.23,0,0,1-5.71,10.48,3,3,0,0,1-1.22.66,1.33,1.33,0,0,1-1-.45,1.18,1.18,0,0,1,0-1,3.67,3.67,0,0,1,.83-.94A8.81,8.81,0,0,0,42.54,32c1.78-6.17,0-11.27-5.28-15a18.64,18.64,0,0,0-7.51-2.95C24.89,13.2,16.32,13.45,15.11,13.54Z"/><path d="M4.88,24.86l12.82,4a4.23,4.23,0,0,0,2.85,0l12.82-4.18c1-.34,1-1.31,0-1.65L20.12,20.1a4.21,4.21,0,0,0-2.78,0l-12.46,3A.87.87,0,0,0,4.88,24.86Z"/><path d="M3.19,29V42.65a1.63,1.63,0,0,0,1.14,1.53l11.08,3.73a1.7,1.7,0,0,0,2.28-1.53l0-13.78a1.64,1.64,0,0,0-1.16-1.54L5.45,27.49A1.7,1.7,0,0,0,3.19,29Z"/><path d="M20,32.57v13.6a1.69,1.69,0,0,0,2.24,1.54L35.3,43.47a1.63,1.63,0,0,0,1.15-1.58l-.36-13.2a1.69,1.69,0,0,0-2.21-1.51L21.17,31A1.63,1.63,0,0,0,20,32.57Z"/></svg>