<svg id="Layer_1" data-name="Layer 1" xmlns="http://www.w3.org/2000/svg" xmlns:xlink="http://www.w3.org/1999/xlink" viewBox="0 0 48 48"><defs><style>.cls-1{fill:#fff;}.cls-2{fill:url(#linear-gradient);}</style><linearGradient id="linear-gradient" x1="0.21" y1="32.92" x2="47.9" y2="32.92" gradientUnits="userSpaceOnUse"><stop offset="0" stop-color="#21a5ed"/><stop offset="0.62" stop-color="#0046cd"/></linearGradient></defs><title>worldwide-shipping</title><path d="M10.16,11.64c5.82-7.19,13-9,21.58-5.45l.32-.64A4.15,4.15,0,0,1,36.4,3.31a4.21,4.21,0,0,1,3.41,3.38,2.83,2.83,0,0,1-.18,1.8c-.36.8-.81,1.57-1.23,2.35-.17.29-.37.56-.54.8.56,1.12,1.17,2.15,1.6,3.25A16.62,16.62,0,0,1,27.85,37.27,16,16,0,0,1,13,33.53a16.26,16.26,0,0,1-5.43-9.81,8.05,8.05,0,0,1-.19-1.62,2.15,2.15,0,0,0-.53-1.38c-.79-1.07-1.57-2.15-2.26-3.28a5.21,5.21,0,0,1-.73-2,4,4,0,0,1,5.41-4.19C9.57,11.37,9.88,11.52,10.16,11.64Zm9.33,2.2a18.55,18.55,0,0,0-1.3,6.6c1.6.17,10.87.12,11.65-.07a18.39,18.39,0,0,0-1.34-6.53Zm-11,7.81a14.71,14.71,0,0,0,3,8.66l6.85-1.84A23.59,23.59,0,0,1,17,21.65Zm31,0H31a24,24,0,0,1-1.34,7,27.27,27.27,0,0,1,6.78,1.82A14.73,14.73,0,0,0,39.51,21.66Zm-2.42-9-1.34,1.53-1.44-1.67L29.63,13.6A22.87,22.87,0,0,1,31,20.47h8.55A14.49,14.49,0,0,0,37.09,12.68Zm-26-.24.4.68a3.55,3.55,0,0,1,.15,3.51c-.4.79-.86,1.55-1.32,2.3-.32.52-.7,1-1.08,1.53h7.87a21.82,21.82,0,0,1,1.31-7,25.69,25.69,0,0,1-6.78-1.82ZM27.82,28.36c.42.15.67.13.8-.34.31-1.22.73-2.41,1-3.64a5.92,5.92,0,0,0,.14-2.79c-3.85,0-7.69,0-11.5,0-.26,1.8.69,5.12,1.19,6.48.15.4.4.41.71.2-.46-2.37.06-3.88,1.7-4.91a4.09,4.09,0,0,1,4.61.19C27.92,24.69,28.4,26.28,27.82,28.36Zm-5-22.81a15.6,15.6,0,0,0-10.44,5.23,24.13,24.13,0,0,0,6.49,1.7A34.3,34.3,0,0,1,22.79,5.55ZM12.34,31.34a15.48,15.48,0,0,0,10.44,5.22,34.56,34.56,0,0,1-4-6.87A22.89,22.89,0,0,0,12.34,31.34Zm23.3,0a19,19,0,0,0-6.5-1.63,32.12,32.12,0,0,1-3.91,6.83A15.65,15.65,0,0,0,35.64,31.38ZM24,5.82a29,29,0,0,0-4,6.83,52.63,52.63,0,0,0,8,0A27.8,27.8,0,0,0,24,5.82Zm7.61,1.73c-1.91-1.19-4.92-2.07-6.28-1.81a34.19,34.19,0,0,1,3.89,6.81l4.34-.93C32.76,10.23,31.83,9,31.62,7.55ZM24,32a17.36,17.36,0,0,0,2.77-4,2.75,2.75,0,0,0,0-2.28,3,3,0,0,0-4-1.58,2.9,2.9,0,0,0-1.43,4A20.89,20.89,0,0,0,24,32ZM7.9,20.3a17.44,17.44,0,0,0,2.87-4.45,2,2,0,0,0,.16-.89,3,3,0,0,0-5.37-1.75,2.78,2.78,0,0,0-.29,3.23A20.29,20.29,0,0,0,7.9,20.3Zm27.85-7.75a22.51,22.51,0,0,0,2.71-4A2.87,2.87,0,0,0,37.59,5a3,3,0,0,0-3.68,0A2.78,2.78,0,0,0,33,8.44,19,19,0,0,0,35.75,12.55ZM24,36.34a29.81,29.81,0,0,0,4-6.77l-.72-.14a24.66,24.66,0,0,1-3.37,4.31l-3.26-4.32-.62.2A30.35,30.35,0,0,0,24,36.34Z"/><path class="cls-1" d="M19.49,13.84h9a18.39,18.39,0,0,1,1.34,6.53c-.78.19-10,.24-11.65.07A18.55,18.55,0,0,1,19.49,13.84Z"/><path class="cls-1" d="M8.5,21.65H17a23.59,23.59,0,0,0,1.34,6.82l-6.85,1.84A14.71,14.71,0,0,1,8.5,21.65Z"/><path class="cls-1" d="M39.51,21.66a14.73,14.73,0,0,1-3.11,8.78,27.27,27.27,0,0,0-6.78-1.82,24,24,0,0,0,1.34-7Z"/><path class="cls-1" d="M37.09,12.68a14.49,14.49,0,0,1,2.43,7.79H31a22.87,22.87,0,0,0-1.34-6.87l4.68-1.06,1.44,1.67Z"/><path class="cls-1" d="M11.07,12.44l.55-.75a25.69,25.69,0,0,0,6.78,1.82,21.82,21.82,0,0,0-1.31,7H9.22c.38-.53.76-1,1.08-1.53.46-.75.92-1.51,1.32-2.3a3.55,3.55,0,0,0-.15-3.51Z"/><path class="cls-1" d="M27.82,28.36c.58-2.08.1-3.67-1.37-4.77a4.09,4.09,0,0,0-4.61-.19c-1.64,1-2.16,2.54-1.7,4.91-.31.21-.56.2-.71-.2-.5-1.36-1.45-4.68-1.19-6.48,3.81-.06,7.65,0,11.5,0a5.92,5.92,0,0,1-.14,2.79c-.25,1.23-.67,2.42-1,3.64C28.49,28.49,28.24,28.51,27.82,28.36Z"/><path class="cls-1" d="M22.79,5.55a34.3,34.3,0,0,0-3.95,6.93,24.13,24.13,0,0,1-6.49-1.7A15.6,15.6,0,0,1,22.79,5.55Z"/><path class="cls-1" d="M12.34,31.34a22.89,22.89,0,0,1,6.48-1.65,34.56,34.56,0,0,0,4,6.87A15.48,15.48,0,0,1,12.34,31.34Z"/><path class="cls-1" d="M35.64,31.38a15.65,15.65,0,0,1-10.41,5.2,32.12,32.12,0,0,0,3.91-6.83A19,19,0,0,1,35.64,31.38Z"/><path class="cls-1" d="M24,5.82a27.8,27.8,0,0,1,4,6.83,52.63,52.63,0,0,1-8,0A29,29,0,0,1,24,5.82Z"/><path class="cls-1" d="M31.62,7.55c.21,1.48,1.14,2.68,1.95,4.07l-4.34.93a34.19,34.19,0,0,0-3.89-6.81C26.7,5.48,29.71,6.36,31.62,7.55Z"/><path class="cls-1" d="M24,32a20.89,20.89,0,0,1-2.62-3.84,2.9,2.9,0,0,1,1.43-4,3,3,0,0,1,4,1.58,2.75,2.75,0,0,1,0,2.28A17.36,17.36,0,0,1,24,32ZM24,24.57a2.31,2.31,0,0,0-2.37,2.28,2.39,2.39,0,0,0,2.26,2.31,2.32,2.32,0,0,0,2.41-2.25A2.24,2.24,0,0,0,24,24.57Z"/><path class="cls-1" d="M7.9,20.3a20.29,20.29,0,0,1-2.63-3.86,2.78,2.78,0,0,1,.29-3.23A3,3,0,0,1,10.93,15a2,2,0,0,1-.16.89A17.44,17.44,0,0,1,7.9,20.3Zm2.31-5.22a2.35,2.35,0,0,0-2.33-2.33A2.37,2.37,0,0,0,5.58,15,2.25,2.25,0,0,0,7.87,17.4,2.31,2.31,0,0,0,10.21,15.08Z"/><path class="cls-1" d="M35.75,12.55A19,19,0,0,1,33,8.44,2.78,2.78,0,0,1,33.91,5a3,3,0,0,1,3.68,0,2.87,2.87,0,0,1,.87,3.54A22.51,22.51,0,0,1,35.75,12.55ZM33.44,7.38A2.31,2.31,0,1,0,35.72,5,2.32,2.32,0,0,0,33.44,7.38Z"/><path class="cls-1" d="M24,36.34a30.35,30.35,0,0,1-4-6.72l.62-.2,3.26,4.32a24.66,24.66,0,0,0,3.37-4.31l.72.14A29.81,29.81,0,0,1,24,36.34Z"/><path d="M24,24.57a2.24,2.24,0,0,1,2.3,2.34,2.32,2.32,0,0,1-2.41,2.25,2.39,2.39,0,0,1-2.26-2.31A2.31,2.31,0,0,1,24,24.57ZM24,25.65a1.24,1.24,0,0,0-1.24,1.22A1.37,1.37,0,0,0,24,28.1a1.32,1.32,0,0,0,1.22-1.26A1.19,1.19,0,0,0,24,25.65Z"/><path d="M10.21,15.08A2.31,2.31,0,0,1,7.87,17.4,2.25,2.25,0,0,1,5.58,15a2.37,2.37,0,0,1,2.3-2.28A2.35,2.35,0,0,1,10.21,15.08Zm-2.27,1.2A1.2,1.2,0,0,0,9.13,15a1.31,1.31,0,0,0-1.27-1.21,1.26,1.26,0,0,0-1.18,1.28A1.18,1.18,0,0,0,7.94,16.28Z"/><path d="M33.44,7.38A2.32,2.32,0,0,1,35.72,5a2.33,2.33,0,1,1-2.28,2.38Zm1.11,0A1.21,1.21,0,0,0,35.8,8.57,1.34,1.34,0,0,0,37,7.27,1.36,1.36,0,0,0,35.7,6.06,1.29,1.29,0,0,0,34.55,7.38Z"/><path class="cls-1" d="M24,25.65a1.19,1.19,0,0,1,1.25,1.19A1.32,1.32,0,0,1,24,28.1a1.37,1.37,0,0,1-1.27-1.23A1.24,1.24,0,0,1,24,25.65Z"/><path class="cls-1" d="M7.94,16.28a1.18,1.18,0,0,1-1.26-1.17,1.26,1.26,0,0,1,1.18-1.28A1.31,1.31,0,0,1,9.13,15,1.2,1.2,0,0,1,7.94,16.28Z"/><path class="cls-1" d="M34.55,7.38A1.29,1.29,0,0,1,35.7,6.06,1.36,1.36,0,0,1,37,7.27a1.34,1.34,0,0,1-1.19,1.3A1.21,1.21,0,0,1,34.55,7.38Z"/><path class="cls-2" d="M8.21,43.69a.25.25,0,0,1-.16-.07c-.24-.18-.48-.36-.73-.53l-.64-.47a.67.67,0,0,0-.44-.15H6.12c-.94.11-1.88.19-2.83.28h0a.56.56,0,0,1-.2,0,.46.46,0,0,1,.06-.22,7.15,7.15,0,0,1,.53-.57l.08-.08L4,41.65l.13-.11a.11.11,0,0,0,0-.09.11.11,0,0,0-.07-.08L.21,40.07.42,40a2.53,2.53,0,0,0,.36-.2,1.5,1.5,0,0,1,.88-.25l.47,0c.59.08,1.18.15,1.79.21l.83.08a.1.1,0,0,0,.09,0,.09.09,0,0,0,0-.1L2.62,35.3l.87-.4a4.32,4.32,0,0,0,.61-.3.45.45,0,0,1,.17-.05.42.42,0,0,1,.23.09A35.78,35.78,0,0,0,8.5,37a9.63,9.63,0,0,0,2.06.82,1.76,1.76,0,0,0,.31,0,1.29,1.29,0,0,0,.56-.14l6.42-3.32,2.26-1.16.26-.15a.12.12,0,0,0,.05-.1.11.11,0,0,0-.07-.08L20,32.76l-1.12-.46h-.05a.39.39,0,0,0-.26.08l-.26.18-.27.19a.46.46,0,0,1-.14.07,1.2,1.2,0,0,1,.25-.34,1.79,1.79,0,0,0,.2-.26.11.11,0,0,0,0-.08.09.09,0,0,0-.06-.06L18,31.94l-.71-.29c-.54-.21-1.07-.43-1.6-.67a.94.94,0,0,0-.36-.09.64.64,0,0,0-.44.2,2.27,2.27,0,0,1-.35.26,1.21,1.21,0,0,1-.19.1,1.17,1.17,0,0,1,.27-.36,2.34,2.34,0,0,0,.24-.31.08.08,0,0,0,0-.08.09.09,0,0,0-.06-.06L13.36,30l.25-.16a.1.1,0,0,0,0-.13.53.53,0,0,0-.11-.14l-3.29-1.08h0a.11.11,0,0,0-.07,0l-.34.38a.89.89,0,0,0-.35-.73h.4A6.63,6.63,0,0,0,11.6,28l.2,0a1.24,1.24,0,0,1,.27,0c2.63.48,10.09,1.88,10.09,1.88l.44.08c.31.06.62.11.92.18l.19,0a1,1,0,0,0,.35-.08l1.13-.47c.67-.27,1.34-.54,2-.83a1.2,1.2,0,0,1,.51-.13,1,1,0,0,1,.66.28l.07,0h0l.44-.21,3.25-1.64,8.35-4.18a7.84,7.84,0,0,1,2.94-.75h.27a3.43,3.43,0,0,1,1.15.19,1.74,1.74,0,0,0,.63.1h.7q.38,0,.75,0a1,1,0,0,1,.76.51,1.06,1.06,0,0,1,.13.9,3.5,3.5,0,0,1-.47.83,5.56,5.56,0,0,1-1.83,1.42l-12.86,6.5a.76.76,0,0,0-.27.21.09.09,0,0,0,0,.12s0,0,.08,0h0l.28-.1L34,32.41a.71.71,0,0,1,.32-.07.89.89,0,0,1,.45.13,1.57,1.57,0,0,1,.68,1.6.85.85,0,0,1-.53.63l-2.26.93-.33.15a.09.09,0,0,0-.06.1l.05.63c0,.47.06.94.11,1.41.06.67.06.67-.5.95a1.47,1.47,0,0,0-.7.67,2.16,2.16,0,0,1-.19.31v0a.49.49,0,0,1,0-.11.83.83,0,0,0-.45-.59.34.34,0,0,0-.15-.39.57.57,0,0,1-.1-.13.1.1,0,0,0-.06,0h-.08l-.17.11-.35.23-.15,0a1.15,1.15,0,0,1,.06-.17.37.37,0,0,1,.07-.12c0-.05.07-.18,0-.21L29,38l-.79.27a1.14,1.14,0,0,1,.19-.34,1.56,1.56,0,0,0,.16-.28.11.11,0,0,0,0-.11L28,37a.09.09,0,0,0-.07,0h0l-.71.31a.3.3,0,0,1-.14,0,.14.14,0,0,1-.1,0c0-.06,0-.11.07-.23l.4-.42a.11.11,0,0,0,0-.07.2.2,0,0,0,0-.08l-.22-.17-.64-.48-.15,0a.51.51,0,0,0-.22.05l-.4.19c-.6.28-1.2.56-1.78.86a55.45,55.45,0,0,1-13.76,4.9l-.79.17a.11.11,0,0,0-.08.1v1a.17.17,0,0,1-.12.21,8.86,8.86,0,0,0-.87.44Z"/><path d="M43.73,22.25a3.3,3.3,0,0,1,1.12.19,1.91,1.91,0,0,0,.66.1h.7c.25,0,.5,0,.74,0a.94.94,0,0,1,.69.46.93.93,0,0,1,.11.81,3.26,3.26,0,0,1-.44.8A5.41,5.41,0,0,1,45.5,26l-9.29,4.7-3.56,1.8a.77.77,0,0,0-.31.24.2.2,0,0,0,.16.32h.06l.09,0,.2-.07L34,32.5a.73.73,0,0,1,.69.06,1.44,1.44,0,0,1,.63,1.49.75.75,0,0,1-.47.56l-1.74.72-.52.21-.22.1-.11,0a.24.24,0,0,0-.12.2l0,.63c0,.48.06,1,.11,1.46s.05.56-.45.81a1.62,1.62,0,0,0-.74.72l-.08.15a.86.86,0,0,0-.41-.53.48.48,0,0,0-.19-.42l-.08-.09a.17.17,0,0,0-.12-.1h-.06l-.11,0-.16.11-.28.18a.43.43,0,0,0,0-.07l.05-.07a.19.19,0,0,0-.05-.27l-.35-.27-.27-.2a.21.21,0,0,0-.13,0l-.07,0-.46.18.07-.09a2.16,2.16,0,0,0,.18-.3.22.22,0,0,0,0-.22L28,36.9a.18.18,0,0,0-.14-.06l-.08,0L27.6,37l-.5.22-.08,0a.06.06,0,0,1-.05,0s0,0,.07-.08l.27-.28.13-.14a.22.22,0,0,0,.06-.15.28.28,0,0,0-.08-.15l-.23-.18c-.22-.16-.42-.32-.64-.47a.32.32,0,0,0-.2-.06.63.63,0,0,0-.27.06l-.4.19c-.59.27-1.19.56-1.78.86a55.56,55.56,0,0,1-13.74,4.9l-.51.11-.27.06a.2.2,0,0,0-.16.19v1c0,.08,0,.09-.07.12-.31.14-.6.29-.87.44l-.07,0a.19.19,0,0,1-.1-.05L7.39,43l-.65-.47a.8.8,0,0,0-.5-.17H6.11c-.94.11-1.91.2-2.84.28H3.2a.3.3,0,0,1,0-.09A7.15,7.15,0,0,1,3.76,42l.07-.07L4,41.73l.14-.11a.2.2,0,0,0,.06-.19.18.18,0,0,0-.13-.15L2.7,40.8.48,40.05a3.24,3.24,0,0,0,.36-.2,1.37,1.37,0,0,1,.82-.23l.45,0c.6.08,1.19.15,1.81.21l.81.08h0a.22.22,0,0,0,.17-.09.18.18,0,0,0,0-.2L4.08,38,2.76,35.34h0l.48-.22L3.53,35a5,5,0,0,0,.62-.3l.12,0a.38.38,0,0,1,.18.08,37.39,37.39,0,0,0,4,2.37,9.8,9.8,0,0,0,2.08.83,2.09,2.09,0,0,0,.34,0,1.2,1.2,0,0,0,.6-.16L18,34.43l2.12-1.1.16-.09.11-.05a.24.24,0,0,0,.1-.19.21.21,0,0,0-.13-.17L20,32.68c-.39-.17-.77-.32-1.16-.47l-.1,0a.7.7,0,0,0-.3.1l-.18.13a1.34,1.34,0,0,0,.11-.14.2.2,0,0,0,0-.17.17.17,0,0,0-.1-.12l-.1,0L18,31.85l-.71-.29c-.54-.22-1.07-.43-1.6-.67a1,1,0,0,0-.4-.1.73.73,0,0,0-.51.23l-.06.06a1.64,1.64,0,0,0,.19-.25.23.23,0,0,0,0-.16.18.18,0,0,0-.12-.12L13.58,30l.09-.05a.23.23,0,0,0,.06-.29l-.05-.08a.2.2,0,0,0-.11-.09l-3.23-1.06-.06,0h-.07a.18.18,0,0,0-.14.06l-.2.22a1,1,0,0,0-.16-.39h.14a7.23,7.23,0,0,0,1.77-.23.5.5,0,0,1,.18,0l.25,0,8.16,1.53,1.93.36.42.07.94.19.2,0a1,1,0,0,0,.4-.09l1.14-.47c.67-.27,1.34-.54,2-.83a1.13,1.13,0,0,1,.47-.12.9.9,0,0,1,.6.25.19.19,0,0,0,.13.05.11.11,0,0,0,.08,0l.14-.06.3-.15,3.2-1.61L40.56,23a7.88,7.88,0,0,1,2.91-.74h.26m0-.2h-.28a8,8,0,0,0-3,.76c-3.88,1.93-7.74,3.88-11.61,5.82l-.43.21a1.13,1.13,0,0,0-.73-.3,1.46,1.46,0,0,0-.55.13c-1,.46-2.09.87-3.14,1.31a.92.92,0,0,1-.32.07l-.16,0c-.45-.1-.91-.17-1.36-.26L12.09,27.9l-.29,0-.23,0a6.72,6.72,0,0,1-1.72.23H9.18l0,.08c.52.12.58.52.58,1l.5-.56,3.3,1.07.05.1-.42.25,1.63.68c-.19.3-.52.47-.59.89a2.94,2.94,0,0,0,.32-.13,3.65,3.65,0,0,0,.45-.32.48.48,0,0,1,.37-.18.74.74,0,0,1,.32.09c.76.33,1.54.64,2.31,1a2.28,2.28,0,0,1,.28.13c-.17.27-.46.43-.52.82a2.82,2.82,0,0,0,.34-.16c.18-.11.35-.25.53-.37a.44.44,0,0,1,.19-.07h0c.5.19,1,.39,1.52.61l-.26.15-8.68,4.48a1.07,1.07,0,0,1-.51.13,1,1,0,0,1-.29,0,9.43,9.43,0,0,1-2-.81,37.87,37.87,0,0,1-4-2.36.5.5,0,0,0-.29-.11.4.4,0,0,0-.22.07c-.27.15-.57.27-.86.41l-.7.32,2.26,4.5c-.91-.1-1.76-.18-2.61-.29a2.59,2.59,0,0,0-.48,0,1.53,1.53,0,0,0-.93.27A5.68,5.68,0,0,1,.18,40,1.29,1.29,0,0,0,0,40.1l4.05,1.36c-.15.13-.26.21-.36.31s-.43.42-.62.65a.46.46,0,0,0-.06.34c0,.05.16.09.26.09h0c1-.08,1.89-.16,2.84-.27h.1a.6.6,0,0,1,.38.13c.45.34.92.66,1.37,1a.35.35,0,0,0,.22.09.32.32,0,0,0,.17-.06c.28-.15.57-.3.86-.43A.28.28,0,0,0,9.42,43V42l.79-.17A55.24,55.24,0,0,0,24,37c.72-.37,1.45-.71,2.18-1.05a.53.53,0,0,1,.18,0l.09,0c.29.2.56.42.86.65l-.4.42c-.11.1-.18.22-.08.35a.2.2,0,0,0,.18.1.41.41,0,0,0,.18,0l.71-.31.54.58c-.11.27-.37.44-.38.81l.85-.34.63.48a2.53,2.53,0,0,0-.13.22,3.18,3.18,0,0,0-.09.33,1.08,1.08,0,0,0,.32-.09,5.1,5.1,0,0,0,.53-.33c.09.18.39.25.19.54.46.08.44.51.62.84.13-.2.23-.34.31-.49a1.42,1.42,0,0,1,.65-.63c.64-.32.62-.33.56-1.05s-.11-1.36-.16-2l.33-.14,2.25-.93a.93.93,0,0,0,.59-.71,1.66,1.66,0,0,0-.72-1.71,1.05,1.05,0,0,0-.5-.14.92.92,0,0,0-.36.07l-1.15.47-.27.1a.53.53,0,0,1,.24-.18l12.85-6.5a5.65,5.65,0,0,0,1.87-1.45,3.28,3.28,0,0,0,.48-.86,1.21,1.21,0,0,0-1-1.54c-.25,0-.51,0-.76,0h-.7a1.73,1.73,0,0,1-.59-.09,3.42,3.42,0,0,0-1.19-.2Z"/></svg>