<svg id="Layer_1" data-name="Layer 1" xmlns="http://www.w3.org/2000/svg" viewBox="0 0 48 48"><defs><style>.cls-1{fill:#0288d1;}.cls-2{fill:#fff;}</style></defs><rect class="cls-1" width="48" height="48" rx="23.99998"/><path class="cls-1" d="M24,4A20,20,0,1,0,44,24,20.0588,20.0588,0,0,0,24,4Z"/><rect class="cls-2" x="14" y="19" width="4" height="15"/><path class="cls-2" d="M16,17h0a2,2,0,1,1,2-2A1.94421,1.94421,0,0,1,16,17Z"/><path class="cls-2" d="M35,24.5A5.54882,5.54882,0,0,0,29.5,19,5.44809,5.44809,0,0,0,25,21.3V19H21V34h4V26a3,3,0,0,1,6,0v8h4Z"/></svg>