<?xml version="1.0" encoding="utf-8"?>
<!-- Generator: Adobe Illustrator 24.0.0, SVG Export Plug-In . SVG Version: 6.00 Build 0)  -->
<svg version="1.1" id="Layer_1" xmlns="http://www.w3.org/2000/svg" xmlns:xlink="http://www.w3.org/1999/xlink" x="0px" y="0px"
	 viewBox="0 0 250 250" style="enable-background:new 0 0 250 250;" xml:space="preserve">
<style type="text/css">
	.st0{fill:#FFFFFF;}
	.st1{enable-background:new    ;}
	.st2{fill:#231F20;}
	.st3{fill:url(#SVGID_1_);}
	.st4{fill:#2263AF;}
	.st5{fill:url(#SVGID_2_);}
</style>
<rect class="st0" width="250" height="250"/>
<g class="st1">
	<path class="st2" d="M111.9,178.1c0.1-0.1,0.2-0.1,0.3-0.1c0.1,0,0.2,0,0.3,0.1c0.1,0.1,0.1,0.1,0,0.2c-0.3,0.4-1,1.1-1.9,2.1
		c-0.9,0.9-1.9,1.8-2.9,2.7c-1,0.9-1.8,1.6-2.4,1.9c-0.3,0.2-0.6,0.2-1,0.2c-0.7-0.2-1.1-0.6-1.2-1.2c-0.1-0.6-0.1-1.2,0-1.6
		c0-0.3,0.1-0.6,0.2-1c0.1-0.4,0.3-0.7,0.4-1c-0.2,0.2-0.4,0.5-0.7,0.8c-0.6,0.7-1.3,1.4-2,2.2c-0.7,0.8-1.3,1.4-1.7,1.8
		c-0.2,0.1-0.4,0.2-0.6,0.2c-0.8-0.1-1.4-0.4-1.8-0.8c-0.4-0.4-0.7-0.9-0.8-1.5c-0.1-1,0.1-2.1,0.7-3.1c0.6-1,1.3-1.9,2.3-2.7
		c0.7-0.6,1.6-1,2.6-1.4c1-0.3,2.1-0.4,3.2-0.2c0.3,0.1,0.6,0.1,0.9,0.3c0,0,0,0,0,0c0,0,0-0.1,0.1-0.1c0.2-0.3,0.5-0.4,0.9-0.5
		c0.4,0,0.8,0.1,1.1,0.3c0.3,0.2,0.3,0.5,0.1,0.8c-0.5,0.6-0.9,1.3-1.2,1.9c-0.8,1.3-1.3,2.7-1.7,4.1c0,0.1-0.1,0.3-0.1,0.6
		c0,0.3,0,0.6,0,0.8c0,0.2,0.2,0.4,0.4,0.4c0.2,0,0.5-0.3,1.1-0.8c0.6-0.5,1.3-1.1,2-1.8c0.8-0.7,1.4-1.4,2.1-2.1
		C111.2,179,111.6,178.5,111.9,178.1z M99.4,183.9c0.4-0.3,1-1,1.8-1.8c0.8-0.9,1.6-1.7,2.3-2.6c0.7-0.9,1.2-1.4,1.4-1.7
		c0,0-0.1,0-0.1,0c-0.2-0.1-0.4-0.1-0.6-0.1c-0.2,0-0.4,0-0.5,0c-1.2,0.2-2.2,0.8-3.1,1.7c-0.9,0.9-1.4,1.8-1.7,2.6
		c-0.1,0.3-0.2,0.7-0.2,1.1c0,0.4,0.1,0.7,0.4,1c0.1,0.1,0.1,0.1,0.2,0.1C99.3,184,99.4,184,99.4,183.9z"/>
	<path class="st2" d="M127.9,177.9c0.1-0.1,0.2-0.1,0.3-0.1c0.1,0,0.2,0,0.2,0.1c0.1,0.1,0.1,0.1,0,0.2c-1.1,1.3-2.2,2.6-3.4,3.9
		c-0.1,0.1-0.2,0.2-0.4,0.4c-0.5,0.5-1.1,1.1-1.8,1.7c-0.7,0.6-1.3,0.9-2,1c-1.2,0-2.1-0.4-2.5-1c-0.4-0.7-0.6-1.4-0.4-2.3
		c0.1-0.9,0.3-1.7,0.6-2.5c0.3-0.8,0.5-1.3,0.6-1.5c0-0.1,0.1-0.1,0.1-0.1c-0.2-0.1-0.6,0.2-1.1,0.8c-0.6,0.6-1.2,1.4-1.9,2.3
		c-0.7,0.9-1.4,1.8-2,2.6c-0.4,0.5-0.7,0.9-0.9,1.2c-0.2,0.3-0.4,0.5-0.5,0.5c-0.1,0-0.1,0.1-0.2,0.1c-0.1,0-0.1,0.1-0.3,0.1l0,0
		c-0.1,0-0.1,0-0.1,0c-0.1,0-0.1,0-0.2,0h0c0,0,0,0-0.1,0c-0.5-0.1-0.9-0.3-1-0.7c-0.2-0.4-0.3-0.8-0.2-1.3c0-0.5,0-0.9,0.1-1.3
		c0-0.1,0-0.2,0-0.3c0.2-1.6,0.7-3.1,1.5-4.6c0.1-0.2,0.4-0.4,0.7-0.5c0.3-0.1,0.7-0.1,1,0c0.4,0.1,0.6,0.3,0.8,0.5
		c0.1,0.2,0.1,0.5-0.1,0.7c-0.5,0.7-1.1,1.7-1.6,2.9c-0.5,1.2-0.7,2.3-0.8,3.2c0,0,0.1-0.2,0.3-0.4c0.5-0.8,1.4-2,2.5-3.6
		c1.2-1.6,2.4-2.9,3.8-4c0.3-0.3,0.8-0.4,1.3-0.4c0.2,0,0.3,0,0.5,0l0.1,0c0,0,0,0,0.1,0c0.6,0.2,1,0.5,1,1c0,0.5,0,0.9-0.1,1.3
		c-0.2,0.8-0.5,1.6-0.9,2.4c0,0.1-0.1,0.2-0.1,0.3c0,0.1-0.1,0.2-0.2,0.4c-0.1,0.3-0.3,0.7-0.4,1.2c-0.1,0.4-0.2,0.9-0.2,1.2
		c0,0.4,0.1,0.7,0.4,0.8c0.1,0,0.1,0.1,0.3,0.1c0.1,0,0.2,0,0.3,0c0.5-0.2,0.9-0.4,1.2-0.7c0.1-0.1,0.1-0.1,0.2-0.1
		c0.7-0.5,1.4-1.1,2-1.7C125.6,180.5,126.8,179.2,127.9,177.9z"/>
	<path class="st2" d="M143.1,157.7c0.3-0.3,0.6-0.5,1.1-0.6c0.5,0,0.8,0.1,1.2,0.3c0.3,0.2,0.4,0.5,0.3,0.9
		c-1.3,2.6-2.7,5.1-4.1,7.7c-2.1,4.8-3.9,9.6-5.3,14.5c-0.6,1.9-1,3.8-1.2,5.7c0,0.1,0,0.1,0,0.2c-0.1,0.5,0,0.9,0.2,1.3
		c0,0,0,0,0,0.1c0.2,0.1,0.2,0.1,0.2,0.2s-0.1,0.2-0.2,0.2c-0.1,0.1-0.2,0.1-0.4,0v0c-0.1,0-0.1,0-0.1-0.1c0,0,0,0-0.1,0l-0.1,0
		c-0.3-0.3-0.5-0.9-0.5-1.8c0-0.9,0.1-1.8,0.3-2.8c0.2-1,0.3-1.8,0.5-2.5c0.1-0.2,0.1-0.4,0.1-0.6c0.2-1,0.5-1.9,0.7-2.9
		c-0.2,0.1-0.5,0.1-0.7,0c-0.4,0.7-0.8,1.4-1.3,2.2c-0.5,0.8-0.9,1.5-1.3,2.1c-0.4,0.6-0.7,1.2-1.1,1.8c0,0.1-0.1,0.1-0.1,0.1
		c-0.1,0.2-0.3,0.4-0.6,0.7c-0.1,0.1-0.3,0.2-0.5,0.3c-0.1,0-0.2,0-0.3,0c-0.1,0-0.1,0-0.2,0c0,0,0,0-0.1,0c-0.1,0-0.2,0-0.3,0
		l-0.3-0.1c-1.2-0.3-2-0.9-2.4-1.7c-0.4-0.9-0.4-1.8-0.1-2.8c0.3-1,0.8-1.8,1.6-2.6c0.6-0.7,1.4-1.3,2.4-1.8c1-0.5,2-0.7,3.3-0.7
		c0.3,0,0.6,0,1,0.1c0.6-1,1.1-2.1,1.7-3.1c0.9-1.6,1.7-3.2,2.5-4.8c0.7-2,1.5-3.9,2.3-5.8C141.7,160.2,142.4,159,143.1,157.7z
		 M132.2,179.2c0.4-0.7,0.8-1.4,1.2-2.1c-0.6-0.1-1.1,0-1.6,0.2c-0.5,0.2-1,0.4-1.4,0.8c-1.3,1-2,2.2-2.2,3.5
		c-0.1,0.4,0,0.7,0.2,1.1c0.2,0.4,0.5,0.6,0.9,0.8c0.2-0.2,0.3-0.4,0.5-0.7c0-0.1,0.1-0.1,0.1-0.2
		C130.7,181.5,131.5,180.3,132.2,179.2z M136.1,175.7c0-0.1,0.1-0.2,0.1-0.3c0-0.1,0-0.1,0.1-0.1
		C136.2,175.4,136.1,175.5,136.1,175.7c-0.1-0.1-0.1-0.1-0.1-0.1C136.1,175.7,136.1,175.7,136.1,175.7z"/>
</g>
<path class="st0" d="M233,168.7c-0.8,1.2-0.7,3,0.4,4c1.1,1,2.6,0.8,3.5-0.5c0.8-1.2,0.7-3-0.4-4c0,0,0,0,0,0
	C235.3,167.3,233.8,167.5,233,168.7z"/>
<linearGradient id="SVGID_1_" gradientUnits="userSpaceOnUse" x1="23.7969" y1="121.4634" x2="135.365" y2="121.4634" gradientTransform="matrix(1 0 0 -1 0 252.5)">
	<stop  offset="0.59" style="stop-color:#2263AF"/>
	<stop  offset="1" style="stop-color:#00AEEF"/>
</linearGradient>
<path class="st3" d="M77.6,67.1c1.8-0.1,3.6,0.4,5.2,1.4c1.3,0.8,2.5,1.9,3.4,3.1c0.7,0.8,1.3,1.8,1.9,2.8c-2.4,9.5-4.2,19.2-5.4,29
	c-2.1,14-4,28.3-5.6,43.1c-1.3,10.4-2.1,20.8-2.4,31.3c0,0.9,0.1,1.9,0.4,2.8c0.2,0.8,0.8,1.4,1.6,1.4c2.4,0,6.3-5.7,11.6-17.1
	c5.7-12.5,10.3-25.5,14-39c-3.6-2.1-6.5-5.5-8.1-9.8c-1.7-4.4-2.5-9.1-2.4-13.9c0-5.9,0.8-11.9,2.5-17.5c1.4-5.2,3.6-10.1,6.4-14.4
	c2.6-3.9,5.2-5.8,7.9-5.8c2.7-0.2,5.3,1,7.2,3.2c1.8,2.3,2.9,5.1,3.4,8.1c0.6,3.2,0.9,6.4,0.9,9.7v0.8c-0.2,10.1-2.6,23.2-7.4,39.5
	c2.5,0.4,5,0.6,7.5,0.6c5.2,0,10.4-0.9,15.4-2.6c-4.6,3.6-10.5,5.4-17.7,5.4c-2,0-4.1-0.1-6.1-0.4c-2.5,8.3-5.4,16.5-8.6,24.4
	c-3.2,7.8-6.8,15.2-11,22.3c-3.4,6-7.5,11.3-12.2,16c-3.4,3.7-7.9,5.9-12.5,6.1c-2.7,0.2-5.5-0.7-7.7-2.6c-1.7-1.7-3-3.9-3.6-6.4
	c-0.6-2.2-0.9-4.6-1-6.9c0-6.6,0.6-16.9,1.8-30.9c1.2-14,2.7-27.9,4.6-41.8c1.3-10.8,3.3-21.5,5.8-32c-5.4,0.2-10.7,2.6-14.7,6.9
	C47.8,88.6,43.8,94.4,41,101c-2.9,6.2-4.5,13.1-4.6,20.1c0,3.8,0.6,7.6,2,11.2c1.4,3.6,3.7,6.6,6.5,8.7l-0.5,0.2
	c-1.1,0.6-2.2,1.2-3.3,1.6c-1.4,0.5-2.9,0.7-4.4,0.6c-2.6,0.1-5.2-0.8-7.3-2.5c-1.9-1.6-3.3-3.8-4.2-6.3c-0.8-2.3-1.3-4.8-1.3-7.3
	c0.1-7.6,1.8-15.1,5-21.8c3.4-7.2,7.7-13.7,12.9-19.3c5.1-5.6,11-10.3,17.3-13.9C64.9,69,71.2,67.2,77.6,67.1z M103.2,121.8
	c2.7-9.8,4.2-20,4.4-30.3c0-2.1-0.1-4.2-0.5-6.3c-0.3-1.8-1.1-2.7-2.2-2.7c-1.9,0-3.8,2.3-5.8,6.9c-2,4.7-3.1,9.9-3,15.1
	c0,3.3,0.6,6.6,1.7,9.7C98.9,117.3,100.8,120,103.2,121.8z"/>
<g class="st1">
	<path class="st4" d="M218.9,70.6c-0.1,1.7-0.5,3.9-1.3,6.7c-0.8,2.8-1.9,5.3-3.2,7.6c-1.3,2.3-2.8,3.7-4.5,4.3
		c-2.8-2.8-6.5-5.7-11.2-8.8c-4.7-3.1-9.9-5.3-15.7-6.6c-4.3-1-8.6-1.6-12.9-1.7c-1.6-0.1-3.1-0.1-4.7,0c-5.8,0.1-11.3,1.1-16.3,3.1
		c-5,2-9.1,5.2-12.3,9.5c-3.2,4.3-4.9,10.1-5.2,17.3c-0.1,4.3,1,7.7,3.3,10.2c2.3,2.5,5.3,3.8,8.7,4c-0.1,3.1-0.7,5.5-1.7,7.2
		c-1,1.7-2.2,2.9-3.7,3.6c-1.5,0.7-3,1-4.5,0.9c-4.8-0.2-8.6-2.5-11.4-6.8c-2.8-4.3-4.1-9.5-3.8-15.6c0.2-4.9,1.5-10,4-15.2
		c2.5-5.2,6.5-10,11.8-14.4c5.4-4.4,12.3-7.8,20.8-10.3c8.5-2.5,18.8-3.5,31-3.1C200.3,63.2,211.1,65.8,218.9,70.6z M154.3,135.5
		C161.1,110.2,164.7,93,165,84c2.9-3.3,7.9-4.9,15-5c3.5,0.1,6.4,1.1,8.7,3c-0.2,4.7-3.7,20.5-10.6,47.5
		c-6.9,27-10.6,48.1-11.1,63.4c-2.8,2.7-6.7,4.3-11.8,4.8c-1.2,0.1-2.3,0.2-3.3,0.1c-3.5-0.1-6.3-1.1-8.7-2.9
		C143.8,180.6,147.5,160.8,154.3,135.5z"/>
</g>
<linearGradient id="SVGID_2_" gradientUnits="userSpaceOnUse" x1="140.7361" y1="22.5059" x2="239.701" y2="22.5059" gradientTransform="matrix(1 4.000000e-02 4.000000e-02 -1 -25.02 145.06)">
	<stop  offset="0" style="stop-color:#007DC5"/>
	<stop  offset="0.66" style="stop-color:#2263AF"/>
</linearGradient>
<path class="st5" d="M218.9,70.8c-0.2,2.3-0.6,4.5-1.3,6.7c-0.8,2.7-1.8,5.2-3.2,7.6c-1,2-2.6,3.5-4.5,4.3
	c-3.5-3.4-7.3-6.3-11.2-8.8c-4.9-3.2-10.3-5.4-15.8-6.6c-4.3-1-8.6-1.6-12.9-1.7c-1.7,0-3.1,0-4.7,0c-5.5,0-11,1.1-16.3,3.1
	c-4.8,1.8-9,5.1-12.3,9.5c-3.4,4.9-5.2,11.1-5.1,17.4c-0.3,3.8,0.9,7.6,3.3,10.2c2.4,2.5,5.5,3.9,8.7,4c0,2.5-0.6,5-1.7,7.2
	c-0.9,1.6-2.2,2.8-3.7,3.5c-1.4,0.7-3,1-4.5,0.9c-4.5,0-8.7-2.6-11.4-6.8c-2.8-4.5-4.2-10-3.9-15.6c0.3-5.4,1.6-10.6,4-15.2
	c3-5.8,7-10.7,11.8-14.3c6.4-4.9,13.4-8.3,20.8-10.3c10.2-2.7,20.6-3.7,31-3C200.2,63.4,211.1,66,218.9,70.8z M154.3,135.6
	c6.8-25.3,10.4-42.4,10.6-51.5c2.8-3.3,7.9-4.9,15.1-4.9c3.1,0,6.1,1,8.7,3c-0.1,4.7-3.6,20.5-10.5,47.5c-6.9,27-10.5,48.1-11,63.2
	c-3.4,2.9-7.5,4.6-11.8,4.8c-1.1,0.1-2.2,0.2-3.3,0.1c-3.1,0-6.1-1-8.7-3C143.8,180.6,147.5,160.9,154.3,135.6z"/>
</svg>
