<svg id="Layer_1" data-name="Layer 1" xmlns="http://www.w3.org/2000/svg" viewBox="0 0 64 64"><title>icons-2</title><path d="M35.38,1.5H59.91a2.35,2.35,0,0,1,2.58,2.65q0,14.16,0,28.33v6h-61V4.25A2.42,2.42,0,0,1,3.28,1.58a3.57,3.57,0,0,1,.86-.07H35.38m0-1.5H4.14A5.12,5.12,0,0,0,2.9.13,3.88,3.88,0,0,0,0,4.25V38.79c0,.37,0,.75.06,1.19H64c0-.39,0-.64,0-.9q0-17.46,0-34.92A3.82,3.82,0,0,0,59.91,0Z"/><path d="M32.19,19.34h9.74a5.57,5.57,0,0,0,1,0,1.91,1.91,0,0,0,1.5-1.68,1.8,1.8,0,0,0-1.22-1.88,4.85,4.85,0,0,0-1.47-.17h-19a8.61,8.61,0,0,0-.88,0A1.88,1.88,0,0,0,22,19.33c.29,0,.58,0,.87,0Z"/><path d="M26.2,27.07c1.42,0,2.83,0,4.24,0a1.87,1.87,0,1,0,.06-3.74c-2.82,0-5.65-.05-8.48,0a2.34,2.34,0,0,0-1.43.64,1.6,1.6,0,0,0-.38,1.88A1.79,1.79,0,0,0,22,27.06C23.37,27.08,24.79,27.07,26.2,27.07Z"/><path d="M20.79,11.6c1.24,0,2.49,0,3.74,0a1.8,1.8,0,0,0,2-1.8,1.82,1.82,0,0,0-2-2q-3.67,0-7.35,0a1.89,1.89,0,1,0,0,3.76C18.38,11.62,19.58,11.6,20.79,11.6Z"/><path d="M20.78,34.8c1.25,0,2.5,0,3.74,0a1.88,1.88,0,1,0,0-3.75c-2.45,0-4.9,0-7.35,0a1.93,1.93,0,0,0-2.11,1.88,1.91,1.91,0,0,0,2.09,1.88C18.37,34.82,19.58,34.8,20.78,34.8Z"/><path d="M40.3,27.07c1,0,2,0,3,0a1.89,1.89,0,1,0,.09-3.76c-2,0-4.07,0-6.1,0a1.88,1.88,0,1,0,0,3.75C38.31,27.09,39.3,27.07,40.3,27.07Z"/><path d="M52.32,19.33h0c.75,0,1.5,0,2.25,0a1.86,1.86,0,0,0,.11-3.72c-1.53-.08-3.07-.07-4.61,0a1.86,1.86,0,0,0-1.79,1.94,1.88,1.88,0,0,0,1.92,1.8C50.91,19.36,51.62,19.33,52.32,19.33Z"/><path d="M52.28,27.07c.75,0,1.5,0,2.25,0a1.87,1.87,0,0,0,1.89-1.83,1.85,1.85,0,0,0-1.82-1.9c-1.5-.07-3-.07-4.49,0a1.87,1.87,0,0,0,0,3.73C50.87,27.1,51.58,27.07,52.28,27.07Z"/><path d="M11.23,9.7A1.92,1.92,0,0,0,9.35,7.85a1.93,1.93,0,0,0-1.76,2,1.89,1.89,0,0,0,1.82,1.77A1.89,1.89,0,0,0,11.23,9.7Z"/><path d="M11.23,17.42a1.92,1.92,0,0,0-1.89-1.84,1.94,1.94,0,0,0-1.75,2,1.89,1.89,0,0,0,1.83,1.76A1.9,1.9,0,0,0,11.23,17.42Z"/><path d="M11.23,25.37a2,2,0,0,0-1.68-2.05,1.87,1.87,0,0,0-.34,3.73A1.88,1.88,0,0,0,11.23,25.37Z"/><path d="M9.42,31.05A1.94,1.94,0,0,0,7.59,33,1.9,1.9,0,0,0,9.34,34.8,1.89,1.89,0,0,0,11.23,33,1.94,1.94,0,0,0,9.42,31.05Z"/><path d="M62.41,45.38v.07a18.31,18.31,0,0,1-.07,3.08,2.06,2.06,0,0,1-2.09,1.62H4.3c-.23,0-.5,0-.75,0a2.24,2.24,0,0,1-2-2c-.06-.88,0-1.8,0-2.76h60.9m1.47-1.5H0c0,1.54-.08,3,0,4.36a3.72,3.72,0,0,0,3.38,3.39,8.43,8.43,0,0,0,.87,0h56a3.54,3.54,0,0,0,3.51-2.91,35.72,35.72,0,0,0,0-4.86Z"/><path d="M41.7,57v4.29l1.38.11.42,0a8.29,8.29,0,0,0,.87.06h2c.42,0,1,0,1.52,0,.31,0,.34.37.34.41a.45.45,0,0,1-.35.5,2.29,2.29,0,0,1-.39,0H16.23a.47.47,0,0,1-.48-.51.4.4,0,0,1,.42-.43c.38,0,.79,0,1.3,0h4.77V57H41.7m1.5-1.5H20.74V60H17.47c-.46,0-.91,0-1.37,0a1.9,1.9,0,0,0-1.85,1.87A2,2,0,0,0,16.06,64a3,3,0,0,0,.42,0h31a3.26,3.26,0,0,0,.7-.06,2,2,0,0,0,1.54-2A1.87,1.87,0,0,0,48,60.06c-.53,0-1.07,0-1.6,0h-2c-.36,0-.71-.05-1.19-.09V55.53Z"/></svg>