<?xml version="1.0" encoding="utf-8"?>
<!-- Generator: Adobe Illustrator 25.2.0, SVG Export Plug-In . SVG Version: 6.00 Build 0)  -->
<svg version="1.1" id="Layer_1" xmlns="http://www.w3.org/2000/svg" xmlns:xlink="http://www.w3.org/1999/xlink" x="0px" y="0px"
	 viewBox="0 0 60 60" style="enable-background:new 0 0 60 60;" xml:space="preserve">
<style type="text/css">
	.st0{stroke:#000000;stroke-width:0.75;stroke-miterlimit:10;}
	.st1{stroke:#000000;stroke-width:0.5;stroke-miterlimit:10;}
</style>
<g>
	<path class="st1" d="M19.7,58.2c-1.1-0.3-2.2-0.6-3.1-1.4c-1.5-1.3-2.2-3-2.2-5c0-4.8,0-9.5,0-14.3c0-9.8,0-19.5,0-29.3
		c0-2.9,1.5-5.2,4.1-6.1c0.7-0.2,1.4-0.3,2.2-0.3c6.3,0,12.6,0,18.9,0c3.6,0,6.2,2.6,6.3,6.2c0,3.3,0,6.5,0,9.8
		c0,11.3,0,22.6,0,33.9c0,3-1.6,5.3-4.3,6.1c-0.4,0.1-0.7,0.2-1.1,0.3C33.4,58.2,26.6,58.2,19.7,58.2z M16.3,30c0,7.2,0,14.4,0,21.7
		c0,0.5,0,1,0.1,1.4c0.5,2,2.1,3.1,4.3,3.1c6.1,0,12.3,0,18.4,0c0.5,0,1,0,1.4-0.2c2-0.5,3.1-2,3.1-4.2c0-14.5,0-29,0-43.6
		c0-0.4,0-0.9-0.1-1.3c-0.5-2-2.1-3.1-4.2-3.1c-6.2,0-12.4,0-18.6,0c-0.7,0-1.4,0.1-2.1,0.4C17,5,16.3,6.4,16.3,8.2
		C16.3,15.5,16.3,22.7,16.3,30z"/>
	<path class="st1" d="M17.9,27.9c0-6.4,0-12.8,0-19.1c0-0.9,0.1-0.9,0.9-0.9c7.4,0,14.9,0,22.3,0c0.9,0,0.9,0.1,0.9,0.9
		c0,12.8,0,25.6,0,38.3c0,0.8-0.1,0.9-0.9,0.9c-7.5,0-14.9,0-22.4,0c-0.8,0-0.9-0.1-0.9-0.9C17.9,40.7,17.9,34.3,17.9,27.9z
		 M41.1,46.9c0-12.8,0-25.4,0-38.1c-7.4,0-14.8,0-22.1,0c0,12.7,0,25.4,0,38.1C26.3,46.9,33.7,46.9,41.1,46.9z"/>
	<path class="st1" d="M30,48.8c1.7,0,3.1,1.4,3,3.1c0,1.7-1.5,3.1-3.1,3c-1.7,0-3.1-1.5-3-3.1C27,50.2,28.4,48.8,30,48.8z
		 M27.9,51.9c0,1.1,0.9,2.1,2,2.1c1.1,0,2.1-0.9,2.1-2c0-1.1-0.9-2.1-2-2.1C28.9,49.8,27.9,50.7,27.9,51.9z"/>
	<path class="st1" d="M30,6.1c-0.9,0-1.8,0-2.7,0c-0.2,0-0.4-0.2-0.6-0.4c0.2-0.1,0.4-0.3,0.5-0.3c1.9,0,3.7,0,5.6,0
		c0.2,0,0.4,0.2,0.5,0.3c-0.2,0.1-0.4,0.3-0.6,0.4C31.8,6.2,30.9,6.1,30,6.1z"/>
</g>
</svg>
