<svg id="Layer_1" data-name="Layer 1" xmlns="http://www.w3.org/2000/svg" viewBox="0 0 64 64"><defs><style>.cls-1,.cls-2{fill:none;stroke:#000;}.cls-1{stroke-miterlimit:10;stroke-width:1.55px;}.cls-2{stroke-linecap:round;stroke-linejoin:round;stroke-width:1.03px;}</style></defs><title>final from nida</title><path class="cls-1" d="M51.23,49a4.5,4.5,0,0,1-1,5.88,4.59,4.59,0,0,1,.57,3.31,4.31,4.31,0,0,1-4.11,3.44q-10,0-19.93,0a12.4,12.4,0,0,1-2.46-.53c-.39.56-1.11.57-1.86.57-2.9,0-5.81,0-8.71,0-1.29,0-1.82-.52-1.82-1.8V37.12c0-1.27.53-1.79,1.83-1.79h8.89c1.49,0,1.95.47,1.95,2V38c.46-.29.82-.56,1.22-.76a8.87,8.87,0,0,0,3.31-3.35A7.44,7.44,0,0,0,30.5,29c-.12-1.56,0-3.13,0-4.69,0-1.13.58-1.73,1.69-1.68a12.92,12.92,0,0,1,2.41.3c3,.74,4.61,3,4.66,6.3,0,2,0,4,0,6.06h.67c2.7,0,5.4,0,8.1,0a4.44,4.44,0,0,1,4.36,2.34,4.32,4.32,0,0,1-.57,5A4.41,4.41,0,0,1,51.23,49Z"/><path class="cls-1" d="M25.13,19.18c.26-1.45.5-3,.79-4.46a1.26,1.26,0,0,0-.43-1.37c-1-.92-2-1.93-3-2.89a1.48,1.48,0,0,1,.82-2.69c1.5-.2,3-.45,4.51-.64a.82.82,0,0,0,.72-.52c.65-1.34,1.33-2.67,2-4a1.51,1.51,0,0,1,2.87,0c.65,1.34,1.33,2.66,2,4a.81.81,0,0,0,.73.5c1.55.21,3.09.45,4.63.68A1.41,1.41,0,0,1,42,8.8a1.39,1.39,0,0,1-.43,1.54c-1.1,1.07-2.19,2.14-3.32,3.19a.89.89,0,0,0-.3.9c.28,1.5.52,3,.8,4.51a1.44,1.44,0,0,1-.56,1.5,1.4,1.4,0,0,1-1.59.12c-1.37-.72-2.74-1.41-4.09-2.15a1,1,0,0,0-1.06,0q-2,1.09-4.09,2.12A1.47,1.47,0,0,1,25.13,19.18Z"/><path class="cls-1" d="M57.89,17.15a7.26,7.26,0,0,1,0,1.32,2.13,2.13,0,0,0,1.2,2.45c1,.58,1.83,1.34,2.74,2a1.52,1.52,0,0,1,.77,1.59,1.53,1.53,0,0,1-1.28,1.21c-1.43.38-2.84.8-4.27,1.18a.93.93,0,0,0-.74.67c-.46,1.42-1,2.81-1.44,4.22a1.5,1.5,0,0,1-2.79.37c-.82-1.24-1.67-2.47-2.48-3.72a.91.91,0,0,0-.88-.47c-1.5,0-3-.06-4.5-.07A1.47,1.47,0,0,1,43,25.39c.94-1.16,1.86-2.34,2.8-3.5A.84.84,0,0,0,46,21c-.47-1.42-.88-2.84-1.33-4.26A1.5,1.5,0,0,1,45,15a1.53,1.53,0,0,1,1.7-.22c1.4.53,2.82,1,4.21,1.56a.93.93,0,0,0,1-.15c1.18-.85,2.39-1.66,3.57-2.51a1.59,1.59,0,0,1,1.76-.26A1.52,1.52,0,0,1,58,15c0,.7,0,1.41,0,2.11Z"/><path class="cls-1" d="M10.48,33A1.43,1.43,0,0,1,9,31.88c-.5-1.45-1-2.89-1.48-4.34a.87.87,0,0,0-.7-.64c-1.45-.38-2.88-.8-4.33-1.19A1.48,1.48,0,0,1,2,22.94c1.2-.88,2.39-1.79,3.61-2.66A.84.84,0,0,0,6,19.47c-.08-1.5-.11-3-.18-4.52a1.49,1.49,0,0,1,.76-1.53,1.52,1.52,0,0,1,1.7.2c1.26.89,2.51,1.77,3.79,2.63a1,1,0,0,0,.76.09c1.43-.49,2.86-1,4.27-1.56a1.5,1.5,0,0,1,2.07,2c-.45,1.41-.87,2.84-1.33,4.26a.8.8,0,0,0,.17.87c1,1.17,1.89,2.37,2.84,3.54a1.47,1.47,0,0,1-1.18,2.49c-1.54,0-3.08,0-4.62.1a1,1,0,0,0-.72.38c-.88,1.26-1.73,2.53-2.57,3.81A1.48,1.48,0,0,1,10.48,33Z"/><path d="M18.31,57.87a1.46,1.46,0,1,1,1.43-1.5A1.47,1.47,0,0,1,18.31,57.87Z"/><polygon class="cls-2" points="24.8 60.82 24.15 60.82 24.15 35.79 24.8 37.63 24.8 60.82"/></svg>