<svg id="Layer_1" data-name="Layer 1" xmlns="http://www.w3.org/2000/svg" viewBox="0 0 64 64"><title>icons-2</title><path d="M33.12,2c10.21,0,21.62,6.92,23.7,20.14,1.53,9.73-1.9,17.71-10.18,23.73a7.83,7.83,0,0,1-.68.45,4.65,4.65,0,0,0-2.63,4.59c.05,2.85,0,5.76,0,8.58,0,.84,0,1.67,0,2.51H24.69V59.78c0-.48,0-1,0-1.46,0-3.62-1.24-4.85-4.81-4.87H14.35c0-1.3,0-2.57,0-3.84,0-3.41-1.33-4.76-4.71-4.8H6.32l.08-.53c.31-2,.6-3.91.86-5.82.19-1.36.39-2.71.59-4.07C8.38,30.73,8.93,27,9.34,23.22a24.26,24.26,0,0,1,20-20.91A22.8,22.8,0,0,1,33.12,2m0-2A25.94,25.94,0,0,0,7.35,23C6.79,28.07,6,33.11,5.28,38.16,4.89,41,4.46,43.74,4,46.8H9.61c2.27,0,2.72.5,2.73,2.81,0,1.88,0,3.75,0,5.74.81,0,1.43.09,2,.09h5.49c2.45,0,2.8.38,2.82,2.89,0,.69,0,1.39,0,2.08V64H45.27c0-.67.08-1.22.08-1.78,0-3.78,0-7.57,0-11.35a2.7,2.7,0,0,1,1.53-2.77,7.3,7.3,0,0,0,1-.61c8.77-6.37,12.65-15,11-25.66A25.76,25.76,0,0,0,33.12,0Z"/><path d="M33.22,17.67a9.81,9.81,0,0,1,6.89,2.82,10.11,10.11,0,0,1,3.07,8.22,9.93,9.93,0,0,1-4.46,7.34,4.74,4.74,0,0,0-2.4,4.76,17.21,17.21,0,0,1,0,1.92c0,.3,0,.6,0,.9,0,2.31,0,2.31-2.16,3.19a2.07,2.07,0,0,0-1,1A2,2,0,0,0,31.7,46.6c-1.09-.21-1.9-.58-1.7-3.1,0-.23,0-.44,0-.58a.51.51,0,0,1,0-.09h0a7.53,7.53,0,0,0-3.36-7.64,8.87,8.87,0,0,1-3.49-6.39A10.07,10.07,0,0,1,25.73,21a10.2,10.2,0,0,1,7.49-3.34m0-2a12.13,12.13,0,0,0-9,4c-4.55,5-4.18,13.13,1.2,17.13A5.57,5.57,0,0,1,28,42.58c0,.25,0,.51,0,.76-.21,2.6.46,4.66,3.29,5.22.36,2.59.69,3.29,1.92,3.3h0c1.75,0,1.41-1.91,1.69-3.19,3-1.21,3.39-1.87,3.4-5a27.64,27.64,0,0,0,0-3,2.78,2.78,0,0,1,1.51-2.9,12,12,0,0,0,1.69-18.66,11.81,11.81,0,0,0-8.29-3.39Z"/><path d="M33.16,21.24a1.58,1.58,0,0,1,1.58,1.59v2.26a1.58,1.58,0,0,1-1.58,1.58h0a1.58,1.58,0,0,1-1.58-1.58V22.83a1.59,1.59,0,0,1,1.58-1.59h0m0-1a2.59,2.59,0,0,0-2.58,2.59v2.26a2.58,2.58,0,0,0,5.16,0V22.83a2.58,2.58,0,0,0-2.58-2.59Z"/><path d="M33.5,5.43A1.87,1.87,0,0,1,35.37,7.3V9.86a1.87,1.87,0,0,1-1.87,1.87h-.06a1.87,1.87,0,0,1-1.86-1.87V7.3a1.87,1.87,0,0,1,1.86-1.87h.06m0-1h-.06A2.87,2.87,0,0,0,30.58,7.3V9.86a2.87,2.87,0,0,0,2.86,2.87h.06a2.88,2.88,0,0,0,2.87-2.87V7.3A2.88,2.88,0,0,0,33.5,4.43Z"/><path d="M43.66,8.9a1.83,1.83,0,0,1,1,.31l.05,0a1.87,1.87,0,0,1,.52,2.59L43.84,14a1.86,1.86,0,0,1-1.55.83,1.83,1.83,0,0,1-1-.31l0,0a1.87,1.87,0,0,1-.52-2.59l1.42-2.14a1.86,1.86,0,0,1,1.55-.83m0-1h0a2.88,2.88,0,0,0-2.39,1.28l-1.42,2.14a2.86,2.86,0,0,0-.42,2.15,2.83,2.83,0,0,0,1.23,1.82l0,0a2.81,2.81,0,0,0,1.59.48,2.88,2.88,0,0,0,2.39-1.28l1.42-2.14a2.86,2.86,0,0,0-.81-4l0,0a2.91,2.91,0,0,0-1.59-.48Z"/><path d="M50.2,16.94a1.88,1.88,0,0,1,1.67,1l0,.05a1.85,1.85,0,0,1-.83,2.5l-2.3,1.15a1.75,1.75,0,0,1-.83.2,1.88,1.88,0,0,1-1.67-1l0-.05a1.88,1.88,0,0,1,.84-2.51l2.3-1.14a1.75,1.75,0,0,1,.83-.2m0-1h0a2.86,2.86,0,0,0-1.28.3l-2.3,1.15a2.87,2.87,0,0,0-1.28,3.84l0,.05a2.84,2.84,0,0,0,2.56,1.59,3,3,0,0,0,1.28-.3l2.3-1.15a2.86,2.86,0,0,0,1.28-3.84l0-.06a2.85,2.85,0,0,0-2.56-1.58Z"/><path d="M51.84,27.44A1.86,1.86,0,0,1,53.7,29.3v.06a1.87,1.87,0,0,1-1.86,1.87H49.27a1.87,1.87,0,0,1-1.86-1.87V29.3a1.86,1.86,0,0,1,1.86-1.86h2.57m0-1H49.27a2.86,2.86,0,0,0-2.86,2.86v.06a2.87,2.87,0,0,0,2.86,2.87h2.57a2.87,2.87,0,0,0,2.86-2.87V29.3a2.86,2.86,0,0,0-2.86-2.86Z"/><path d="M22.56,8.9a1.86,1.86,0,0,1,1.56.83l1.42,2.14A1.88,1.88,0,0,1,25,14.46l-.05,0A1.88,1.88,0,0,1,22.38,14L21,11.83a1.88,1.88,0,0,1,.52-2.59l.05,0a1.88,1.88,0,0,1,1-.31m0-1A2.88,2.88,0,0,0,21,8.38l-.05,0a2.82,2.82,0,0,0-1.22,1.82,2.86,2.86,0,0,0,.42,2.15l1.42,2.14a2.85,2.85,0,0,0,2.39,1.28,2.8,2.8,0,0,0,1.58-.48l.05,0a2.82,2.82,0,0,0,1.22-1.82,2.86,2.86,0,0,0-.42-2.15L25,9.18A2.85,2.85,0,0,0,22.56,7.9Z"/><path d="M16,16.94a1.78,1.78,0,0,1,.83.2l2.29,1.14A1.87,1.87,0,0,1,20,20.79l0,.05a1.86,1.86,0,0,1-1.67,1,1.78,1.78,0,0,1-.83-.2l-2.29-1.15a1.86,1.86,0,0,1-.84-2.5l0-.05a1.86,1.86,0,0,1,1.67-1m0-1a2.86,2.86,0,0,0-2.57,1.58l0,.06a2.86,2.86,0,0,0,1.28,3.84L17,22.57a2.93,2.93,0,0,0,1.27.3,2.85,2.85,0,0,0,2.57-1.59l0-.05a2.85,2.85,0,0,0-1.28-3.84l-2.29-1.15a2.86,2.86,0,0,0-1.28-.3Z"/><path d="M17,27.44a1.87,1.87,0,0,1,1.87,1.86v.06A1.87,1.87,0,0,1,17,31.23H14.39a1.87,1.87,0,0,1-1.87-1.87V29.3a1.87,1.87,0,0,1,1.87-1.86H17m0-1H14.39a2.87,2.87,0,0,0-2.87,2.86v.06a2.88,2.88,0,0,0,2.87,2.87H17a2.88,2.88,0,0,0,2.87-2.87V29.3A2.87,2.87,0,0,0,17,26.44Z"/><path d="M33.16,29.83a1.58,1.58,0,0,1,1.58,1.58v6.35a1.58,1.58,0,0,1-1.58,1.58h0a1.58,1.58,0,0,1-1.58-1.58V31.41a1.58,1.58,0,0,1,1.58-1.58h0m0-1a2.59,2.59,0,0,0-2.58,2.58v6.35a2.58,2.58,0,0,0,5.16,0V31.41a2.58,2.58,0,0,0-2.58-2.58Z"/></svg>