<svg id="Layer_1" data-name="Layer 1" xmlns="http://www.w3.org/2000/svg" viewBox="0 0 64 64"><defs><style>.cls-1{fill:none;stroke:#000;stroke-linecap:round;stroke-linejoin:round;stroke-width:1.5px;}</style></defs><title>icons-2</title><path d="M51.12,7.15a2.15,2.15,0,0,1,1.81,1.21,2.21,2.21,0,0,1-.48,2.72c-2,2-4,4-5.92,5.89l-2.81,2.78-.7.73-.42.44-3.72,3.91,5.2-1.42a5.72,5.72,0,0,1,1.51-.24,2,2,0,0,1,1.87,1c.47.78.83,1.75-1,3.42l-5,4.71L48,30.15a5.19,5.19,0,0,1,1.63-.31,2.08,2.08,0,0,1,1.86,1.06c.36.53.86,1.25-.77,3.37l-2.37,3.09,3.83-.7.32-.06.52-.09a2.92,2.92,0,0,1,.5,0,2.34,2.34,0,0,1,2,1.14,2.14,2.14,0,0,1-.31,2.65c-.41.46-.86.9-1.33,1.36l-.55.54-3.16,3.14c-2.36,2.34-4.8,4.75-7.18,7.15A15,15,0,0,1,37.74,56c-3.45,1.33-7,2.7-9.57,5.71l-8.56-8.48-6.75-6.7c.24-.22.5-.46.74-.71a12.12,12.12,0,0,0,0-17c-1-1-2.08-2.06-3.1-3.05L10,25.37a4.81,4.81,0,0,1,3.52-1.8,5.18,5.18,0,0,1,3.12,1.2A28.28,28.28,0,0,1,20.5,28.6c.53.61,1.08,1.23,1.64,1.83a3.84,3.84,0,0,1,.39.54c.1.15.2.32.32.49l1,1.4L25.1,31.7l.35-.32.73-.67,5.45-5.42C37.24,19.73,43,14,48.77,8.34A4.46,4.46,0,0,1,50.72,7.2a1.37,1.37,0,0,1,.4,0m0-1.5a3.29,3.29,0,0,0-.76.09,6.06,6.06,0,0,0-2.65,1.53Q36.37,18.42,25.12,29.64c-.32.31-.65.6-1,1a9.15,9.15,0,0,0-.85-1.2c-1.86-2-3.52-4.2-5.65-5.82a6.66,6.66,0,0,0-4-1.51c-2.06,0-4,1.19-5.53,3.45,1.48,1.44,3,2.87,4.47,4.37a10.55,10.55,0,0,1,0,14.89c-.6.63-1.28,1.18-1.85,1.7L28.35,64c2.34-3.67,6.15-5.13,10-6.61a16.51,16.51,0,0,0,5.8-3.89c3.42-3.45,6.88-6.86,10.33-10.29.65-.65,1.33-1.27,1.94-2a3.65,3.65,0,0,0,.48-4.41A3.8,3.8,0,0,0,53.54,35a5.12,5.12,0,0,0-.77.07l-.84.16c1.6-2.1,1.86-3.62.82-5.14a3.56,3.56,0,0,0-3.1-1.71,6.63,6.63,0,0,0-2.11.39c1.8-1.7,2.35-3.41,1.2-5.29a3.46,3.46,0,0,0-3.15-1.77,7.15,7.15,0,0,0-1.91.29c.47-.49.77-.83,1.09-1.14,2.92-2.9,5.85-5.77,8.75-8.68a3.7,3.7,0,0,0,.73-4.49,3.64,3.64,0,0,0-3.13-2Z"/><path class="cls-1" d="M38.19,3.6,40.5,5.83l-5.29,5.23L33,8.72Z"/><path class="cls-1" d="M25.12,8.37V1h3.65V8.37Z"/><path class="cls-1" d="M13.39,5.84l2.32-2.27L21,8.81,18.57,11Z"/></svg>