<?xml version="1.0" encoding="utf-8"?>
<!-- Generator: Adobe Illustrator 25.2.0, SVG Export Plug-In . SVG Version: 6.00 Build 0)  -->
<svg version="1.1" id="Layer_1" xmlns="http://www.w3.org/2000/svg" xmlns:xlink="http://www.w3.org/1999/xlink" x="0px" y="0px"
	 viewBox="0 0 40 40" style="enable-background:new 0 0 40 40;" xml:space="preserve">
<style type="text/css">
	.st0{fill:#333333;stroke:#333333;stroke-width:0.5;stroke-miterlimit:10;}
</style>
<path class="st0" d="M20,39C9.53,39,1,30.47,1,20C1,9.49,9.52,0.98,20.02,1C30.54,1.02,39.01,9.52,39,20.05
	C38.99,30.48,30.45,39,20,39z M8.52,33.24c0.31-5.1,2.84-8.51,7.57-10.29c-4.62-2.78-4.83-8.61-1.89-11.85
	c2.96-3.26,7.96-3.49,11.13-0.46c1.57,1.5,2.39,3.35,2.39,5.52c0,2.96-1.38,5.18-3.86,6.78c4.79,1.8,7.3,5.22,7.6,10.28
	c4.5-3.64,7.5-10.75,5.45-18c-2.08-7.37-8.72-12.59-16.25-12.8C12.78,2.2,5.89,6.94,3.36,14.34C0.88,21.59,3.56,29.12,8.52,33.24z
	 M19.88,37.57c3.32-0.03,6.29-0.86,9.07-2.43c0.79-0.45,1.11-0.95,1.08-1.9c-0.14-4-2.41-7.32-6.04-8.7
	c-1.59-0.61-3.25-0.6-4.9-0.57c-2.47,0.05-4.59,0.94-6.34,2.66c-2.11,2.08-2.9,4.66-2.74,7.57c0.01,0.17,0.21,0.37,0.37,0.48
	C13.3,36.6,16.52,37.53,19.88,37.57z M20.03,9.95c-3.5-0.02-6.33,2.78-6.35,6.29c-0.02,3.45,2.82,6.29,6.28,6.31
	c3.47,0.01,6.33-2.8,6.35-6.24C26.33,12.79,23.54,9.96,20.03,9.95z"/>
</svg>
