<?xml version="1.0" encoding="utf-8"?>
<!-- Generator: Adobe Illustrator 24.0.0, SVG Export Plug-In . SVG Version: 6.00 Build 0)  -->
<svg version="1.1" id="Layer_1" xmlns="http://www.w3.org/2000/svg" xmlns:xlink="http://www.w3.org/1999/xlink" x="0px" y="0px"
	 viewBox="0 0 250 107.5" style="enable-background:new 0 0 250 107.5;" xml:space="preserve">
<style type="text/css">
	.st0{enable-background:new    ;}
	.st1{fill:#231F20;}
	.st2{fill:url(#SVGID_1_);}
	.st3{fill:#FFFFFF;}
	.st4{fill:url(#SVGID_2_);}
	.st5{fill:url(#SVGID_3_);}
	.st6{fill:url(#SVGID_4_);}
	.st7{fill:url(#SVGID_5_);}
	.st8{fill:url(#SVGID_6_);}
	.st9{fill:url(#SVGID_7_);}
	.st10{fill:url(#SVGID_8_);}
	.st11{fill:url(#SVGID_9_);}
	.st12{fill:url(#SVGID_10_);}
	.st13{fill:url(#SVGID_11_);}
</style>
<title>vet and tech-250-107.5</title>
<g class="st0">
	<path class="st1" d="M89.1,74.8c0.1-0.1,0.2-0.1,0.3-0.1c0.1,0,0.2,0,0.3,0.1c0.1,0.1,0.1,0.1,0,0.2c-0.4,0.4-1,1-2,1.9
		c-1,0.8-2,1.7-3.1,2.5s-1.9,1.4-2.5,1.8c-0.3,0.2-0.7,0.2-1.1,0.2c-0.8-0.2-1.2-0.6-1.3-1.1c-0.1-0.6-0.1-1.1,0-1.5
		c0-0.3,0.1-0.6,0.3-0.9c0.1-0.4,0.3-0.7,0.4-0.9c-0.2,0.2-0.4,0.4-0.8,0.7c-0.6,0.6-1.4,1.3-2.2,2c-0.8,0.7-1.4,1.3-1.9,1.6
		c-0.2,0.1-0.4,0.2-0.7,0.2c-0.8-0.1-1.5-0.3-2-0.7c-0.5-0.4-0.7-0.8-0.8-1.3c-0.1-1,0.1-1.9,0.8-2.8c0.6-0.9,1.4-1.7,2.5-2.5
		c0.7-0.5,1.7-0.9,2.8-1.2c1.1-0.3,2.2-0.4,3.4-0.2c0.3,0.1,0.7,0.1,1,0.2l0,0c0,0,0-0.1,0.1-0.1c0.2-0.3,0.5-0.4,1-0.4
		s0.8,0.1,1.1,0.3s0.3,0.4,0.1,0.8c-0.5,0.6-0.9,1.2-1.3,1.8c-0.8,1.2-1.4,2.5-1.8,3.7c0,0.1-0.1,0.3-0.1,0.6s0,0.5,0,0.7
		c0.1,0.2,0.2,0.4,0.4,0.4c0.2,0,0.6-0.3,1.2-0.7c0.6-0.5,1.3-1,2.2-1.7c0.8-0.7,1.6-1.3,2.2-1.9C88.3,75.6,88.8,75.1,89.1,74.8z
		 M75.7,80.1c0.4-0.3,1-0.9,1.9-1.7c0.9-0.8,1.7-1.6,2.5-2.4s1.3-1.3,1.5-1.6h-0.1c-0.2-0.1-0.4-0.1-0.6-0.1s-0.4,0-0.6,0
		C79,74.5,77.9,75,77,75.9c-0.9,0.8-1.5,1.6-1.8,2.4c-0.1,0.3-0.2,0.6-0.2,1c0,0.3,0.1,0.7,0.4,0.9c0.1,0,0.1,0.1,0.2,0.1
		C75.5,80.2,75.6,80.2,75.7,80.1z"/>
	<path class="st1" d="M106.2,74.6c0.1-0.1,0.2-0.1,0.3-0.1c0.1,0,0.2,0,0.3,0.1c0.1,0.1,0.1,0.1,0,0.2c-1.1,1.2-2.4,2.4-3.6,3.5
		c-0.1,0.1-0.3,0.2-0.4,0.4c-0.5,0.5-1.1,1-1.9,1.6c-0.7,0.6-1.4,0.9-2.1,0.9c-1.3,0-2.2-0.4-2.6-1s-0.6-1.3-0.5-2.2
		c0.1-0.8,0.3-1.6,0.6-2.3c0.3-0.7,0.5-1.2,0.7-1.4l0.1-0.1c-0.2-0.1-0.6,0.2-1.2,0.8c-0.6,0.6-1.3,1.3-2.1,2.1
		c-0.8,0.8-1.5,1.6-2.1,2.4c-0.4,0.4-0.7,0.8-1,1.1s-0.4,0.5-0.5,0.5s-0.1,0.1-0.2,0.1s-0.2,0.1-0.3,0.1l0,0c-0.1,0-0.1,0-0.2,0
		s-0.2,0-0.2,0l0,0c0,0,0,0-0.1,0c-0.6-0.1-0.9-0.3-1.1-0.7c-0.2-0.4-0.3-0.8-0.3-1.2c0-0.4,0.1-0.8,0.1-1.2c0-0.1,0-0.2,0-0.2
		c0.3-1.4,0.8-2.8,1.6-4.2c0.2-0.2,0.4-0.4,0.8-0.5c0.3-0.1,0.7-0.1,1.1,0s0.7,0.3,0.8,0.5c0.1,0.2,0.1,0.4-0.1,0.7
		c-0.6,0.7-1.1,1.6-1.7,2.7c-0.5,1.1-0.8,2.1-0.8,2.9c0,0,0.1-0.2,0.3-0.4c0.5-0.7,1.5-1.8,2.7-3.3c1.3-1.5,2.6-2.7,4-3.7
		c0.4-0.2,0.8-0.4,1.4-0.4c0.2,0,0.4,0,0.5,0h0.1h0.1c0.7,0.2,1.1,0.5,1.1,0.9s0,0.8-0.1,1.2c-0.3,0.7-0.6,1.5-1,2.2
		c0,0.1-0.1,0.2-0.1,0.3c0,0.1-0.1,0.2-0.2,0.4c-0.2,0.3-0.3,0.7-0.5,1.1s-0.2,0.8-0.2,1.1c0,0.3,0.1,0.6,0.5,0.8
		c0.1,0,0.2,0,0.3,0.1c0.1,0,0.2,0,0.4,0c0.5-0.2,0.9-0.4,1.3-0.6c0.1,0,0.1-0.1,0.2-0.1c0.8-0.5,1.5-1,2.2-1.6
		C103.8,77,105.1,75.8,106.2,74.6z"/>
	<path class="st1" d="M122.6,56.1c0.3-0.3,0.7-0.5,1.2-0.5s0.9,0.1,1.3,0.3c0.3,0.2,0.5,0.5,0.3,0.8c-1.4,2.4-2.9,4.7-4.4,7
		c-2.3,4.4-4.2,8.8-5.7,13.3c-0.6,1.7-1,3.5-1.3,5.2c0,0.1,0,0.1,0,0.2c-0.1,0.4,0,0.8,0.2,1.2c0,0,0,0,0,0.1
		c0.2,0.1,0.2,0.1,0.2,0.2s-0.1,0.2-0.2,0.2c-0.1,0.1-0.2,0.1-0.4,0l0,0c-0.1,0-0.1,0-0.2-0.1c0,0,0,0-0.1,0h-0.1
		c-0.4-0.3-0.5-0.8-0.5-1.7c0-0.8,0.1-1.7,0.3-2.6c0.2-0.9,0.4-1.7,0.5-2.3c0.1-0.2,0.1-0.4,0.1-0.5c0.3-0.9,0.5-1.8,0.8-2.7
		c-0.3,0.1-0.5,0.1-0.8,0c-0.4,0.6-0.9,1.3-1.4,2s-0.9,1.4-1.4,2c-0.4,0.5-0.8,1.1-1.2,1.6l-0.1,0.1c-0.1,0.2-0.3,0.4-0.6,0.6
		c-0.1,0.1-0.3,0.2-0.6,0.3c-0.1,0-0.2,0-0.3,0c-0.1,0-0.1,0-0.2,0h-0.1c-0.1,0-0.2,0-0.3,0l-0.3-0.1c-1.3-0.3-2.2-0.8-2.6-1.6
		c-0.4-0.8-0.4-1.7-0.1-2.6s0.9-1.7,1.7-2.4c0.7-0.6,1.5-1.2,2.5-1.6s2.2-0.6,3.5-0.6c0.3,0,0.7,0,1,0.1c0.6-0.9,1.2-1.9,1.8-2.8
		c0.9-1.5,1.8-3,2.7-4.4c0.8-1.8,1.6-3.6,2.5-5.4C121,58.3,121.8,57.2,122.6,56.1z M110.9,75.8c0.5-0.6,0.9-1.3,1.3-1.9
		c-0.6-0.1-1.2,0-1.7,0.2c-0.6,0.2-1.1,0.4-1.5,0.7c-1.4,0.9-2.1,2-2.4,3.2c-0.1,0.3,0,0.7,0.2,1s0.5,0.6,1,0.7
		c0.2-0.2,0.4-0.4,0.5-0.6c0,0,0.1-0.1,0.1-0.2C109.3,77.9,110.1,76.8,110.9,75.8z M115.1,72.6c0-0.1,0.1-0.2,0.1-0.3
		c0,0,0-0.1,0.1-0.1C115.1,72.3,115.1,72.4,115.1,72.6C115,72.5,115,72.5,115.1,72.6C115,72.6,115,72.6,115.1,72.6z"/>
</g>
<linearGradient id="SVGID_1_" gradientUnits="userSpaceOnUse" x1="-0.59" y1="3408.3101" x2="36.4701" y2="3409.8799" gradientTransform="matrix(1 0 0 1 0 -3346)">
	<stop  offset="0" style="stop-color:#2263AF"/>
	<stop  offset="0.42" style="stop-color:#00AEEF"/>
	<stop  offset="1" style="stop-color:#2263AF"/>
</linearGradient>
<path class="st2" d="M34.4,106.8c-7.8-3.5-14.8-8.5-20.5-14.8C8.1,85.6,4,77.9,1.9,69.6c-2-8.4-2.3-17.1-0.9-25.5
	c1.4-8.5,4-16.7,7.8-24.4l1.3,0.6C6.3,27.9,3.5,35.9,2,44.2S0.6,61.1,2.5,69.3c2,8.3,5.9,15.9,11.5,22.3
	C19.7,98.1,26.6,103.2,34.4,106.8z"/>
<path class="st3" d="M11.5,21.1c0.5-1.1,0-2.5-1.1-3s-2.5,0-3,1.1s0,2.5,1.1,3S10.9,22.2,11.5,21.1L11.5,21.1z"/>
<linearGradient id="SVGID_2_" gradientUnits="userSpaceOnUse" x1="1.2015" y1="3365.7549" x2="38.2615" y2="3367.3149" gradientTransform="matrix(1 0 0 1 0 -3346)">
	<stop  offset="0" style="stop-color:#2263AF"/>
	<stop  offset="0.42" style="stop-color:#00AEEF"/>
	<stop  offset="1" style="stop-color:#2263AF"/>
</linearGradient>
<path class="st4" d="M11.7,21.2c-0.6,1.3-2.1,1.8-3.4,1.2C7,21.8,6.5,20.3,7.1,19s2.1-1.8,3.4-1.2S12.3,19.9,11.7,21.2
	C11.1,22.5,12.3,19.9,11.7,21.2z M7.6,19.3c-0.5,1-0.1,2.2,0.9,2.7s2.2,0.1,2.7-0.9s0.1-2.2-0.9-2.7h-0.1
	C9.3,17.9,8.1,18.3,7.6,19.3C7.2,20.3,8.1,18.3,7.6,19.3z"/>
<linearGradient id="SVGID_3_" gradientUnits="userSpaceOnUse" x1="250.559" y1="3397.1899" x2="215.2589" y2="3387.4099" gradientTransform="matrix(1 0 0 1 0 -3346)">
	<stop  offset="0" style="stop-color:#2263AF"/>
	<stop  offset="0.42" style="stop-color:#00AEEF"/>
	<stop  offset="1" style="stop-color:#2263AF"/>
</linearGradient>
<path class="st5" d="M227,0c6.8,5.1,12.5,11.6,16.6,19.1s6.3,16,6.4,24.6c0,8.6-1.7,17.1-5.1,25c-3.4,7.9-7.8,15.2-13.3,21.9
	l-1.1-0.9c5.4-6.5,9.9-13.7,13.4-21.4s5.3-16.1,5.4-24.5c0.1-8.5-2-16.9-5.9-24.4C239.3,11.8,233.8,5.2,227,0z"/>
<path class="st3" d="M229.3,88.5c-0.8,1-0.6,2.4,0.4,3.2s2.4,0.6,3.2-0.4s0.6-2.4-0.4-3.2l0,0C231.5,87.4,230,87.5,229.3,88.5z"/>
<linearGradient id="SVGID_4_" gradientUnits="userSpaceOnUse" x1="239.1995" y1="3438.1716" x2="203.8995" y2="3428.3916" gradientTransform="matrix(1 0 0 1 0 -3346)">
	<stop  offset="0" style="stop-color:#2263AF"/>
	<stop  offset="0.42" style="stop-color:#00AEEF"/>
	<stop  offset="1" style="stop-color:#2263AF"/>
</linearGradient>
<path class="st6" d="M229,88.3c0.9-1.1,2.5-1.3,3.6-0.4s1.3,2.5,0.4,3.6c-0.9,1.1-2.5,1.3-3.6,0.4l0,0C228.3,91,228.1,89.4,229,88.3
	z M232.5,91.1c0.7-0.9,0.6-2.1-0.3-2.8c-0.9-0.7-2.1-0.6-2.8,0.3s-0.6,2.1,0.3,2.8c0,0,0,0,0.1,0.1
	C230.7,92.1,231.9,91.9,232.5,91.1C233.3,90.3,231.9,92,232.5,91.1L232.5,91.1z"/>
<linearGradient id="SVGID_5_" gradientUnits="userSpaceOnUse" x1="19.12" y1="3398.9009" x2="86.62" y2="3398.9009" gradientTransform="matrix(1 0 0 1 0 -3346)">
	<stop  offset="0.59" style="stop-color:#2263AF"/>
	<stop  offset="1" style="stop-color:#00AEEF"/>
</linearGradient>
<path class="st7" d="M51.7,19.9c1.1,0,2.2,0.2,3.1,0.7c0.8,0.4,1.5,1,2.1,1.6c0.4,0.4,0.8,0.9,1.1,1.5c-1.4,4.9-2.5,9.9-3.3,15
	c-1.3,7.2-2.4,14.7-3.4,22.3c-0.8,5.4-1.3,10.8-1.5,16.2c0,0.5,0.1,1,0.2,1.4c0.1,0.4,0.5,0.7,1,0.7c1.5,0,3.8-2.9,7-8.8
	c3.4-6.5,6.2-13.2,8.4-20.2c-2.2-1.1-3.9-2.9-4.9-5.1c-1-2.3-1.5-4.7-1.5-7.2c0-3.1,0.5-6.1,1.5-9c0.9-2.7,2.2-5.2,3.9-7.5
	c1.6-2,3.1-3,4.8-3c1.6-0.1,3.2,0.5,4.3,1.6c1.1,1.2,1.8,2.6,2.1,4.2c0.4,1.6,0.5,3.3,0.5,5v0.4c-0.1,5.2-1.6,12-4.5,20.4
	c1.5,0.2,3,0.3,4.5,0.3c3.2,0,6.3-0.5,9.3-1.4c-2.8,1.9-6.3,2.8-10.7,2.8c-1.2,0-2.5-0.1-3.7-0.2c-1.5,4.3-3.3,8.5-5.2,12.6
	c-1.9,4-4.1,7.9-6.6,11.6c-2.1,3.1-4.5,5.9-7.4,8.3c-2.1,1.9-4.8,3-7.6,3.2c-1.7,0.1-3.3-0.4-4.7-1.4c-1-0.9-1.8-2-2.2-3.3
	c-0.4-1.2-0.6-2.4-0.6-3.6c0-3.4,0.4-8.8,1.1-16c0.7-7.2,1.7-14.4,2.8-21.6c0.8-5.6,2-11.1,3.5-16.6c-3.3,0.1-6.4,1.4-8.9,3.6
	c-2.9,2.5-5.3,5.5-7,8.9c-1.8,3.2-2.7,6.8-2.8,10.4c0,2,0.4,4,1.2,5.8c0.8,1.9,2.2,3.4,4,4.5l-0.3,0.1c-0.6,0.3-1.3,0.6-2,0.8
	c-0.9,0.2-1.8,0.4-2.7,0.3c-1.6,0.1-3.1-0.4-4.4-1.3c-1.1-0.8-2-2-2.5-3.3c-0.5-1.2-0.8-2.5-0.8-3.8c0-3.9,1.1-7.8,3-11.3
	c2-3.7,4.7-7.1,7.8-10c3.1-2.9,6.6-5.3,10.5-7.2C44,20.9,47.8,20,51.7,19.9z M67.2,48.2c1.6-5.1,2.5-10.4,2.7-15.7
	c0-1.1-0.1-2.2-0.3-3.3c-0.2-0.9-0.7-1.4-1.3-1.4c-1.1,0-2.3,1.2-3.5,3.6c-1.2,2.4-1.9,5.1-1.8,7.8c0,1.7,0.3,3.4,1,5
	C64.5,45.9,65.7,47.3,67.2,48.2z"/>
<linearGradient id="SVGID_6_" gradientUnits="userSpaceOnUse" x1="200.5378" y1="3415.3926" x2="260.5278" y2="3415.3926" gradientTransform="matrix(1 4.000000e-02 -4.000000e-02 1 49.15 -3372.0801)">
	<stop  offset="0" style="stop-color:#007DC5"/>
	<stop  offset="0.66" style="stop-color:#2263AF"/>
</linearGradient>
<path class="st8" d="M174.9,21.8c-0.1,1.2-0.4,2.3-0.8,3.5c-0.5,1.4-1.1,2.7-1.9,3.9c-0.6,1-1.6,1.8-2.7,2.2
	c-2.1-1.7-4.4-3.3-6.8-4.6c-3-1.7-6.2-2.8-9.6-3.4c-2.6-0.5-5.2-0.8-7.8-0.9c-1,0-1.9,0-2.8,0c-3.3,0-6.7,0.6-9.9,1.6
	c-2.9,0.9-5.4,2.6-7.4,4.9c-2,2.5-3.1,5.7-3.1,9c-0.2,2,0.6,3.9,2,5.3c1.5,1.3,3.3,2,5.3,2.1c0,1.3-0.3,2.6-1,3.7
	c-0.5,0.8-1.3,1.5-2.2,1.8c-0.9,0.3-1.8,0.5-2.7,0.5c-2.7,0-5.3-1.3-6.9-3.5c-1.7-2.3-2.5-5.2-2.3-8.1c0.2-2.8,1-5.5,2.4-7.9
	c1.8-3,4.2-5.5,7.1-7.4c3.8-2.5,8.1-4.3,12.6-5.3c6.2-1.4,12.5-1.9,18.8-1.6C163.6,18,170.1,19.4,174.9,21.8z M135.8,55.3
	c4.1-13.1,6.3-22,6.4-26.6c1.7-1.7,4.8-2.5,9.1-2.5c1.9,0,3.7,0.5,5.3,1.5c-0.1,2.4-2.2,10.6-6.4,24.6s-6.4,24.9-6.7,32.7
	c-2.1,1.5-4.6,2.4-7.1,2.5c-0.7,0.1-1.3,0.1-2,0.1c-1.9,0-3.7-0.5-5.3-1.5C129.5,78.7,131.7,68.5,135.8,55.3z"/>
<linearGradient id="SVGID_7_" gradientUnits="userSpaceOnUse" x1="75.74" y1="3397.1958" x2="116.85" y2="3397.1958" gradientTransform="matrix(1 0 0 1 0 -3346)">
	<stop  offset="0" style="stop-color:#2263AF"/>
	<stop  offset="0.42" style="stop-color:#00AEEF"/>
	<stop  offset="1" style="stop-color:#2263AF"/>
</linearGradient>
<path class="st9" d="M96.3,43c0,1.5-0.4,3-1.2,4.4c-0.7,1.2-1.6,2.3-2.7,3.2c-1.3,1.1-2.9,1.6-4.6,1.6c-1.1,0-2.1-0.4-2.8-1.2
	c-0.4,1.6-0.6,3.3-0.7,4.9c0,1.1,0.1,2.2,0.5,3.2s1.3,1.7,2.4,1.7c1.5,0,3-0.5,4.2-1.4c1.3-0.9,2.5-2,3.5-3.3c1-1.2,1.8-2.5,2.6-3.8
	c1.1-2,2.1-4.1,2.8-6.2c0,1.3-0.7,3.6-2,6.8c-0.7,1.6-1.6,3.2-2.6,4.7c-1.3,2.1-3,4-4.9,5.6c-1.9,1.6-4.3,2.6-6.8,2.7h0
	c-2.3,0-4.4-0.9-6-2.5c-0.7-0.8-1.3-1.8-1.7-2.8c-0.4-1.3-0.6-2.7-0.6-4.1c0.1-2.6,0.6-5.2,1.3-7.7c0.7-2.5,1.6-4.9,2.8-7.1
	c0.7-1.2,1.5-2.3,2.5-3.1c1.7-1.4,3.8-2.2,6-2.1c1.7,0,3.5,0.4,5,1.3c0.9,0.5,1.7,1.3,2.2,2.2C96.1,40.8,96.4,41.9,96.3,43z
	 M91.4,41L91.4,41c0-1-0.2-1.5-0.6-1.5c-0.5,0-1,0.3-1.4,0.6c-0.5,0.5-0.9,1.1-1.3,1.7c-0.7,1.3-1.3,2.7-1.7,4.1
	c-0.4,1.2-0.8,2.5-1,3.7c0.4,0.3,0.8,0.5,1.3,0.5c0.9-0.1,1.8-0.7,2.2-1.5c0.7-1,1.3-2.1,1.6-3.3C91.1,44,91.3,42.5,91.4,41z"/>
<linearGradient id="SVGID_8_" gradientUnits="userSpaceOnUse" x1="75.74" y1="3388.2095" x2="116.85" y2="3388.2095" gradientTransform="matrix(1 0 0 1 0 -3346)">
	<stop  offset="0" style="stop-color:#2263AF"/>
	<stop  offset="0.42" style="stop-color:#00AEEF"/>
	<stop  offset="1" style="stop-color:#2263AF"/>
</linearGradient>
<path class="st10" d="M102.8,32.5l0.4-1.4c1.6-5.5,2.8-9.4,3.6-11.6c1.7-0.7,3.5-1.1,5.3-1.1c0.7,0,1.4,0.1,2.1,0.3
	c0.5,0.1,1,0.4,1.4,0.9c-1.1,2.9-2.4,7-4,12.4l-0.2,0.8c1.9-0.1,3.7-0.3,5.6-0.7c-0.3,1-1.3,1.7-3,2.3c-1.1,0.4-2.2,0.7-3.3,0.9
	c-1.2,4.3-2.4,8.4-3.4,12.5c-1.3,5.2-2,8.8-2,10.6c0,0.4,0,0.7,0.1,1.1c0.1,0.3,0.4,0.5,0.7,0.5c1.1-0.2,2.1-0.8,2.7-1.7
	c1.1-1.3,2.1-2.6,3-4.1c1-1.6,1.9-3.1,2.6-4.6c0.8-1.5,1.3-2.7,1.6-3.5c-0.1,1-0.4,2-0.7,3c-0.6,1.7-1.3,3.4-2.1,5.1
	c-0.9,1.9-1.9,3.7-3.1,5.5c-1.1,1.7-2.4,3.2-3.8,4.5c-1.1,1.1-2.7,1.8-4.2,1.8c-2.3,0.2-4.4-1.2-5-3.4c-0.3-0.8-0.4-1.7-0.4-2.6
	c0-2.2,0.7-6.2,2.2-12c1-3.9,2-7.8,3-11.5c-0.5,0.1-1,0.1-1.4,0.1c-0.7-0.4-1.1-1.2-1.2-2c0-0.3,0-0.5,0-0.8c0-0.6,0.1-1.2,0.3-1.8
	C100.6,32.2,101.7,32.4,102.8,32.5z"/>
<linearGradient id="SVGID_9_" gradientUnits="userSpaceOnUse" x1="149.5" y1="3413.4958" x2="225.52" y2="3413.4958" gradientTransform="matrix(1 0 0 1 0 -3346)">
	<stop  offset="0" style="stop-color:#2263AF"/>
	<stop  offset="0.42" style="stop-color:#00AEEF"/>
	<stop  offset="1" style="stop-color:#2263AF"/>
</linearGradient>
<path class="st11" d="M170.1,59.3c0,1.5-0.4,3-1.2,4.4c-0.7,1.2-1.6,2.3-2.7,3.2c-1.3,1.1-2.9,1.6-4.6,1.6c-1.1,0-2.1-0.4-2.8-1.2
	c-0.4,1.6-0.6,3.3-0.7,4.9c0,1.1,0.1,2.2,0.5,3.2s1.3,1.7,2.4,1.7c1.5,0,3-0.5,4.2-1.4c1.3-0.9,2.5-2,3.5-3.3c1-1.2,1.8-2.5,2.6-3.8
	c1.1-2,2.1-4.1,2.9-6.2c0,1.3-0.7,3.6-2,6.8c-0.8,1.6-1.6,3.2-2.6,4.7c-1.3,2.1-3,4-4.9,5.6s-4.2,2.6-6.7,2.7h-0.2
	c-2.3,0-4.4-0.9-6-2.5c-0.7-0.8-1.3-1.8-1.7-2.8c-0.4-1.3-0.6-2.7-0.6-4.1c0.1-2.6,0.5-5.2,1.2-7.7s1.6-4.9,2.8-7.1
	c0.7-1.2,1.5-2.2,2.5-3.1c1.6-1.4,3.7-2.2,5.9-2.1c1.7,0,3.5,0.4,5,1.3c0.9,0.5,1.7,1.3,2.2,2.1C169.8,57.1,170.1,58.2,170.1,59.3z
	 M165.2,57.3L165.2,57.3c0-1-0.2-1.5-0.6-1.5c-0.5,0-1,0.3-1.4,0.6c-0.5,0.5-0.9,1.1-1.3,1.7c-0.7,1.3-1.3,2.7-1.7,4.1
	c-0.4,1.3-0.8,2.5-1.1,3.8c0.4,0.3,0.8,0.5,1.3,0.5c1-0.1,1.8-0.7,2.3-1.5c0.7-1,1.3-2.1,1.6-3.3C164.8,60.3,165.1,58.8,165.2,57.3
	L165.2,57.3z"/>
<linearGradient id="SVGID_10_" gradientUnits="userSpaceOnUse" x1="149.5" y1="3413.45" x2="225.52" y2="3413.45" gradientTransform="matrix(1 0 0 1 0 -3346)">
	<stop  offset="0" style="stop-color:#2263AF"/>
	<stop  offset="0.42" style="stop-color:#00AEEF"/>
	<stop  offset="1" style="stop-color:#2263AF"/>
</linearGradient>
<path class="st12" d="M190.9,59.3c0,1.3-0.3,2.6-0.9,3.8c-0.7,0.4-1.5,0.6-2.3,0.6c-1.1,0-2.1-0.1-3.1-0.5c0.4-1.1,0.8-2.3,1.1-3.4
	c0.2-0.8,0.3-1.7,0.3-2.5V57c0-0.8-0.2-1.2-0.6-1.2c-1,0.1-2,1-2.9,2.8c-1.1,2.3-1.9,4.6-2.5,7.1c-0.5,2.1-0.9,4.3-1.1,6.5
	c-0.1,1.2,0.1,2.3,0.6,3.4c0.4,0.9,1.3,1.6,2.3,1.6s2-0.2,2.9-0.7c1-0.5,1.9-1.1,2.7-1.8c1.9-1.7,3.5-3.8,4.8-6
	c1.2-1.9,2.1-4,2.8-6.2c-0.1,1.6-0.4,3.1-1.1,4.5c-0.8,2.1-1.8,4.1-3,6c-1.4,2.4-3.1,4.6-5.2,6.4c-2,1.8-4.5,2.8-7.1,2.9
	c-2.3,0-4.4-0.9-6-2.5c-0.8-0.9-1.4-1.9-1.7-3c-0.4-1.3-0.6-2.6-0.6-4c0.1-2.4,0.5-4.8,1.1-7.2c0.7-2.7,1.6-5.2,2.9-7.7
	c0.9-1.7,2.3-3.2,4-4.2c1.4-0.8,2.9-1.1,4.5-1.1c2,0,3.9,0.5,5.5,1.6C190,55.5,191,57.3,190.9,59.3z"/>
<linearGradient id="SVGID_11_" gradientUnits="userSpaceOnUse" x1="149.5" y1="3404.3999" x2="225.52" y2="3404.3999" gradientTransform="matrix(1 0 0 1 0 -3346)">
	<stop  offset="0" style="stop-color:#2263AF"/>
	<stop  offset="0.42" style="stop-color:#00AEEF"/>
	<stop  offset="1" style="stop-color:#2263AF"/>
</linearGradient>
<path class="st13" d="M210.9,59.6c-1.3,1.1-2.3,2.5-3.1,4c-1.3,2.3-2.4,4.7-3.4,7.1c-1.4,3.4-2.7,6.9-3.7,10.5
	c-0.7,0.4-1.5,0.6-2.3,0.8c-0.7,0.1-1.3,0.2-2,0.2c-0.9,0-1.8-0.1-2.6-0.5c-0.6-0.3-1.2-0.7-1.6-1.3c-0.5-0.6-0.8-1.3-1-2.1
	c-0.2-0.7-0.2-1.4-0.2-2.1c0-2.6,0.3-5.1,0.8-7.7c0.9-5.4,2.2-11.2,3.9-17.3c0.9-3.2,1.7-6.2,2.6-9c0.8-2.5,1.5-4.6,2.1-6.5
	c1.7-0.7,3.5-1.1,5.3-1.1c0.7,0,1.4,0.1,2.1,0.3c0.5,0.1,1,0.4,1.4,0.8c-1,2.8-2,5.5-2.9,8.3c-1.1,3.3-2.1,6.5-3,9.8
	c-0.7,2.5-1.4,5-2,7.5c-0.4,1.6-0.8,3.2-1.1,4.7c-0.7,2.8-1.1,5.6-1.3,8.5c0,0.4,0.1,0.8,0.2,1.2c0.1,0.4,0.3,0.6,0.4,0.6
	c0.7-2.4,1.5-4.8,2.5-7.2c0.9-2.3,1.9-4.5,3.1-6.7c1-1.8,2.1-3.6,3.4-5.3c1-1.5,2.3-2.7,3.8-3.7c1-0.7,2.3-1,3.5-1
	c0.9,0,1.9,0.3,2.6,0.8c0.4,0.3,0.7,0.7,0.9,1.1c0.2,0.5,0.4,1.1,0.3,1.7c-0.2,1.5-0.6,2.9-1.1,4.3c-0.1,0.3-0.2,0.5-0.2,0.8
	c-0.9,2.7-1.6,5.4-2.1,8.1c-0.4,1.8-0.6,3.6-0.6,5.4c0,0.4,0,0.7,0.1,1.1c0.1,0.3,0.4,0.5,0.7,0.5c0.6,0,1.4-0.5,2.3-1.5
	c1-1.2,2-2.5,2.8-3.9c1.7-2.7,3-5.6,3.9-8.6c-0.2,1.7-0.6,3.4-1.2,4.9c-0.9,2.6-2,5.2-3.4,7.6c-0.7,1.3-1.5,2.5-2.5,3.6
	c-0.8,1-1.8,1.9-2.9,2.6c-1.6,1.1-3.6,1.3-5.4,0.6c-1.4-0.5-2.5-1.8-2.8-3.3c-0.2-0.8-0.3-1.6-0.3-2.3c0-2.4,0.3-4.8,0.8-7.1
	C208.6,65.8,209.6,62.6,210.9,59.6z"/>
</svg>
