<?xml version="1.0" encoding="utf-8"?>
<!-- Generator: Adobe Illustrator 24.0.0, SVG Export Plug-In . SVG Version: 6.00 Build 0)  -->
<svg version="1.1" id="Layer_1" xmlns="http://www.w3.org/2000/svg" xmlns:xlink="http://www.w3.org/1999/xlink" x="0px" y="0px"
	 viewBox="0 0 300 129" style="enable-background:new 0 0 300 129;" xml:space="preserve">
<style type="text/css">
	.st0{fill:#FFFFFF;}
	.st1{fill:#2263AE;}
	.st2{fill:url(#SVGID_1_);}
	.st3{fill:url(#SVGID_2_);}
	.st4{fill:url(#SVGID_3_);}
	.st5{fill:url(#SVGID_4_);}
	.st6{fill:url(#SVGID_5_);}
	.st7{fill:url(#SVGID_6_);}
	.st8{fill:#1D1C1C;}
	.st9{fill:url(#SVGID_7_);}
</style>
<g>
	<path class="st0" d="M302.2,83.3c1.8-3.4,3.4-7,4.6-10.6c1.3-4.2,1.9-6.7,1.9-8.9c0-4.2-2.6-8.1-6.6-9.4c-0.2-1.4-0.6-2.8-1.2-4.1
		c-1-2-2.3-3.7-4.1-5.1l-0.4-0.2c-2.6-1.8-5.7-2.6-8.9-2.6c0.7-2,1.4-4.2,2.2-6.3c1.1-3.3,0.6-6.7-1.4-9.4c-1.7-2.2-4-3.7-6.6-4.5
		c-1.7-0.5-3.5-0.7-5.3-0.7c-3.4,0-6.7,0.7-9.9,2c-2.6,1.1-4.8,3.4-5.7,6.1c-0.7,2.3-1.6,4.8-2.5,7.8c-0.6,1.9-1.2,4-1.7,6
		c-2-0.6-4.1-1-6.3-1c-3.6,0-7.1,0.8-10.2,2.6c-0.5,0.4-1,0.6-1.4,1c-0.4-0.2-0.7-0.5-1-0.7c-0.1-0.1-0.2-0.1-0.4-0.2
		c-1.6-0.8-3.1-1.6-4.8-2c0.8-1.7,1.6-3.5,2-5.3c0.5-1.8,0.7-3.5,0.7-5.3c0-3.6-2-7-5.2-8.8c-5.1-2.8-11.3-4.1-19.3-4.1
		c-6.5,0-11.9,0.7-16.7,2.4c-4.5,1.4-8.7,3.7-12.3,6.7c-3.3,2.6-5.8,6-7.6,9.9c-0.2,0.6-0.5,1.2-0.7,1.8c-1.7-0.2-3.5-0.2-5.2-0.2
		H160c-0.5,0-0.8,0-1.3,0.1c-0.5-0.1-0.8-0.1-1.3-0.1h-6.7c-1,0-1.8,0.1-2.8,0.4c-0.8-0.2-1.8-0.4-2.8-0.4h-7.8
		c-1.2,0-2.5,0.2-3.6,0.7c-1.2-0.5-2.4-0.7-3.6-0.7h-6.7c-0.1-0.1-0.1-0.1-0.2-0.2c0.5-1.4,1-2.8,1.3-4c1.2-3.4,0.5-7-1.7-9.8
		c-1.7-2-3.9-3.5-6.4-4.2c-1.7-0.5-3.5-0.7-5.3-0.7c-3.4,0-6.7,0.7-9.9,2c-2.6,1.1-4.7,3.3-5.7,6c-0.7,1.9-1.6,4.8-2.6,8.6
		c-2.3,1-4.1,2.6-5.2,4.8c-1-0.1-1.9-0.2-2.9-0.4c1-4.3,1.4-8.8,1.6-13.2v-0.7c0-2.9-0.2-5.9-0.8-8.7C84.7,16,83,12.5,80.4,9.6
		C78.1,7,74,4,67.4,4c-3.3,0-7.8,1.1-12.3,5.8c-0.8-0.6-1.7-1.2-2.6-1.8c-2.8-1.6-5.9-2.4-9-2.3C37,5.8,30.6,7.4,24.7,10.3
		S13.2,17,8.5,21.6c-4.8,4.6-8.9,10-12,15.9c-3.3,6-4.9,12.8-4.9,19.6c0,3,0.6,5.9,1.7,8.7c1.3,3.4,3.5,6.3,6.4,8.6
		c3.4,2.6,7.6,4,11.9,3.9c1.8,0,3.6-0.1,5.3-0.6c-0.7,7.3-1,12.9-1,16.9c0,2.5,0.4,5.2,1.2,7.6c1,3.5,3,6.7,5.8,9.2
		c3.3,2.9,7.5,4.3,12.6,4.3c2.2,0,4.3-0.4,6.4-1c1.1,0.6,2.2,1,3.4,1.2c4.2,0.7,61.4,9.2,123.6,9.2c49.4,0,102-5.3,133.3-24.5
		c4.8-2.8,6.4-8.9,3.6-13.7c-0.8-1.3-1.9-2.5-3.3-3.4l0.1-0.1C302.2,83.3,302.2,83.3,302.2,83.3z"/>
	<path class="st1" d="M92.3,62c0,1.8-0.5,3.5-1.3,5.1c-0.7,1.4-1.8,2.6-3,3.7c-1.4,1.2-3.3,1.9-5.2,1.9c-1.2,0-2.4-0.5-3.1-1.4
		c-0.5,1.9-0.7,3.9-0.8,5.8c0,1.3,0.1,2.5,0.6,3.7c0.6,1.3,1.6,2,2.6,2c1.7,0,3.4-0.6,4.8-1.6c1.6-1.1,2.9-2.4,4-3.9
		c1.1-1.4,2-2.9,2.9-4.5c1.3-2.3,2.4-4.8,3.3-7.3c0,1.6-0.7,4.2-2.3,8.1C94,75.4,93,77.3,91.9,79c-1.4,2.4-3.4,4.7-5.5,6.5
		c-2,1.9-4.8,3-7.6,3.1h-0.2c-2.5,0-5.1-1.1-6.7-2.9c-0.8-1-1.4-2.2-1.9-3.4c-0.7-1.4-1-3-1-4.7c0.1-3,0.6-6,1.3-9
		c0.7-2.9,1.8-5.7,3.3-8.3c0.7-1.4,1.7-2.6,2.9-3.7c1.8-1.7,4.2-2.5,6.7-2.5c1.9,0,3.9,0.5,5.7,1.4c1.1,0.6,1.9,1.4,2.5,2.5
		C92,59.3,92.3,60.6,92.3,62z M86.7,59.6L86.7,59.6c0-1.2-0.2-1.8-0.7-1.8c-0.6,0-1.2,0.2-1.6,0.7c-0.6,0.6-1.1,1.3-1.4,2
		c-0.8,1.6-1.4,3.1-1.9,4.8c-0.5,1.4-0.8,2.9-1.2,4.5c0.4,0.4,1,0.6,1.6,0.7c1,0,1.8-0.6,2.6-1.8c0.8-1.2,1.4-2.5,1.8-4
		C86.4,63.1,86.6,61.2,86.7,59.6z"/>
	<path class="st1" d="M99.6,49.6l0.5-1.6c1.8-6.5,3.1-11,4-13.6c1.9-0.8,4-1.2,6-1.3c0.8,0,1.6,0.1,2.4,0.4c0.6,0.1,1.2,0.5,1.6,1
		c-1.2,3.4-2.8,8.3-4.6,14.6l-0.2,1c2.2-0.1,4.2-0.4,6.3-0.7c-0.4,1.1-1.4,2-3.4,2.6c-1.2,0.5-2.5,0.8-3.9,1.1
		c-1.4,4.9-2.6,9.9-3.9,14.7c-1.4,6.1-2.3,10.2-2.3,12.4c0,0.4,0,0.8,0.1,1.2c0.1,0.4,0.4,0.6,0.8,0.6c0.8,0,1.9-0.7,3-2
		c1.2-1.4,2.4-3.1,3.4-4.8c1.1-1.8,2-3.6,3-5.4c0.8-1.8,1.4-3.1,1.8-4.1c-0.1,1.2-0.4,2.4-0.8,3.5c-0.6,2-1.4,4-2.3,5.9
		c-1,2.2-2.2,4.3-3.5,6.4c-1.2,1.9-2.6,3.7-4.3,5.2c-1.3,1.3-3,2-4.8,2c-1.3,0.1-2.8-0.4-3.9-1.2c-0.8-0.7-1.4-1.7-1.8-2.8
		c-0.4-1-0.5-2-0.5-3c0-2.6,0.8-7.3,2.4-14.1c1.1-4.6,2.3-9,3.5-13.5c-0.5-0.1-1-0.1-1.5-0.1c-0.8-0.5-1.3-1.4-1.3-2.4
		c0-0.4,0-0.6,0-1c0-0.7,0.1-1.3,0.4-2C97.1,49.2,98.4,49.4,99.6,49.6z"/>
	<path class="st1" d="M224.5,34.4c0,1-0.2,1.9-0.5,2.9c-0.2,1.2-0.7,2.3-1.3,3.4c-0.4,0.8-1.1,1.6-1.9,1.9c-1.6-1.3-3.3-2.5-5.1-3.6
		c-2.2-1.3-4.6-2.2-7-2.5C206.8,36,205,36,203,36c-0.7,0-1.3,0-2,0.1c-2.4,0.1-4.8,0.6-7.1,1.7c-2.2,1-4,2.4-5.2,4.3
		c-1.3,1.9-2,4.5-2,7.6c-0.1,1.6,0.5,3.1,1.6,4.3c1.1,1,2.4,1.6,3.9,1.6c0,1.1-0.1,2.2-0.6,3.1c-0.4,0.7-0.8,1.2-1.6,1.6
		c-0.6,0.4-1.3,0.5-1.9,0.5c-2,0-4-1-5.1-2.8c-1.3-1.9-2-4.3-1.9-6.6c0-2.3,0.6-4.6,1.6-6.6c1.2-2.5,2.9-4.7,4.9-6.4
		c2.6-2.2,5.7-3.9,8.9-4.8c3.7-1.2,8.2-1.8,13.5-1.8C216.2,31.5,221,32.5,224.5,34.4z M197.2,63.4c2.6-11.1,4-18.5,4-22.4
		c1.2-1.4,3.4-2.3,6.5-2.4c1.3,0,2.6,0.4,3.9,1.1c0,2-1.3,8.9-4,20.6c-2.6,11.7-3.9,21-3.9,27.5c-1.4,1.3-3.1,2-5.1,2.3
		c-0.5,0.1-1,0.1-1.4,0.1c-1.3,0-2.6-0.4-3.9-1.1C193.2,82.9,194.5,74.4,197.2,63.4z"/>
	<path class="st1" d="M235.1,62c0,1.8-0.5,3.5-1.3,5.1c-0.7,1.4-1.8,2.6-3,3.7c-1.4,1.2-3.3,1.9-5.2,1.9c-1.2,0-2.4-0.5-3.1-1.4
		c-0.5,1.9-0.7,3.9-0.8,5.8c0,1.3,0.1,2.5,0.6,3.7c0.7,1.3,1.6,2,2.6,2c1.7,0,3.4-0.6,4.8-1.6c1.6-1.1,2.9-2.4,4-3.9
		c1.1-1.4,2-2.9,2.9-4.5c1.3-2.3,2.3-4.8,3.3-7.2c0,1.6-0.7,4.2-2.3,8.1c-0.8,1.9-1.8,3.7-2.9,5.5c-1.4,2.4-3.4,4.7-5.5,6.5
		c-2,1.9-4.8,3-7.6,3.1h-0.2c-2.5,0-5.1-1.1-6.7-2.9c-0.8-1-1.4-2.2-1.9-3.4c-0.5-1.6-0.7-3.1-0.7-4.8c0.1-3,0.6-6,1.4-9
		c0.7-2.9,1.8-5.7,3.3-8.3c0.7-1.4,1.7-2.6,2.9-3.7c1.8-1.7,4.2-2.5,6.7-2.5c1.9,0,3.9,0.5,5.7,1.4c1.1,0.6,1.9,1.4,2.5,2.5
		C234.9,59.3,235.3,60.6,235.1,62z M229.6,59.6L229.6,59.6c0-1.2-0.2-1.8-0.7-1.8c-0.6,0-1.2,0.2-1.6,0.7c-0.6,0.6-1.1,1.3-1.4,2
		c-0.8,1.6-1.4,3.1-1.9,4.8c-0.5,1.4-0.8,2.9-1.2,4.5c0.4,0.4,1,0.6,1.6,0.7c1,0,1.8-0.6,2.6-1.8c0.8-1.2,1.4-2.5,1.8-3.9
		C229.2,63.1,229.5,61.2,229.6,59.6z"/>
	<path class="st1" d="M258.7,62c0,1.6-0.4,3.1-1,4.6c-0.7,0.5-1.7,0.7-2.6,0.7c-1.2,0-2.4-0.1-3.6-0.6c0.5-1.3,0.8-2.6,1.2-4
		c0.2-1,0.4-1.9,0.4-2.9v-0.5c0-1-0.2-1.3-0.7-1.4c-1.2,0.1-2.3,1.2-3.3,3.4c-1.2,2.6-2.2,5.4-2.8,8.3c-0.8,3.9-1.2,6.4-1.2,7.6
		c-0.1,1.3,0.1,2.6,0.7,4c0.6,1.2,1.4,1.8,2.5,1.8s2.3-0.2,3.3-0.7c1.1-0.6,2.2-1.3,3.1-2.2c2.2-2,4-4.5,5.4-7
		c1.3-2.3,2.4-4.7,3.1-7.2c-0.1,1.8-0.5,3.6-1.2,5.3c-1,2.4-2.2,4.7-3.5,7c-1.6,2.8-3.5,5.4-5.9,7.6c-2.2,2-5.1,3.3-8.1,3.4
		c-2.5,0-5.1-1.1-6.7-2.9c-0.8-1.1-1.6-2.2-1.9-3.5c-0.5-1.4-0.7-3-0.7-4.6c0.1-2.9,0.6-5.7,1.3-8.4c0.7-3.1,1.8-6.1,3.4-8.9
		c1-2,2.5-3.7,4.6-4.8c1.6-0.8,3.4-1.3,5.1-1.3c2.3,0,4.5,0.6,6.3,1.9C257.8,57.4,258.9,59.7,258.7,62z"/>
	<path class="st1" d="M281.5,62.2c-1.1,0.8-2.3,2.4-3.5,4.7c-1.4,2.8-2.6,5.5-3.9,8.3c-1.6,4-3,8.1-4.1,12.3c-0.8,0.5-1.7,0.7-2.6,1
		c-0.7,0.1-1.6,0.2-2.3,0.2c-1,0-1.9-0.1-2.9-0.6c-0.7-0.4-1.3-0.8-1.8-1.4c-0.6-0.7-1-1.6-1.1-2.5c-0.1-0.8-0.2-1.7-0.2-2.5
		c0-3,0.4-6,0.8-9c1.1-6.4,2.5-13.1,4.3-20.2c1-3.7,1.9-7.2,3-10.6c0.8-2.9,1.7-5.4,2.4-7.6c1.9-0.8,4-1.2,6-1.3
		c0.8,0,1.6,0.1,2.4,0.4c0.6,0.1,1.2,0.5,1.6,1c-1.1,3.3-2.3,6.5-3.3,9.8c-1.2,3.9-2.4,7.6-3.5,11.4c-0.8,2.9-1.6,5.8-2.3,8.8
		c-0.5,1.9-0.8,3.7-1.2,5.4c-1,4.6-1.4,7.8-1.4,9.9c0,0.5,0.1,1,0.2,1.4c0.1,0.5,0.4,0.7,0.5,0.7c0.8-2.9,1.8-5.7,2.9-8.4
		c1-2.6,2.2-5.3,3.5-7.8c1.1-2.2,2.4-4.2,3.9-6.1c1.2-1.7,2.6-3.1,4.3-4.3c1.2-0.8,2.5-1.2,4-1.2c1.1,0,2.2,0.4,3,1
		c0.5,0.4,0.8,0.8,1,1.3c0.2,0.6,0.4,1.3,0.4,2s-0.4,2.4-1.2,5.1c-0.1,0.2-0.2,0.6-0.2,0.8c-0.8,2.9-1.7,6.1-2.4,9.5
		c-0.5,2-0.6,4.2-0.7,6.4c0,0.4,0,0.8,0.1,1.2c0.1,0.4,0.4,0.6,0.8,0.6c0.7,0,1.6-0.6,2.6-1.8c1.2-1.4,2.2-2.9,3.1-4.5
		c1.9-3.1,3.4-6.5,4.5-10c0,1-0.5,2.9-1.4,5.8c-1,3.1-2.3,6-3.9,8.9c-0.8,1.4-1.8,2.9-2.8,4.2c-1,1.2-2,2.2-3.3,3.1
		c-1.1,0.7-2.3,1.2-3.6,1.2c-0.8,0-1.7-0.1-2.5-0.5c-0.6-0.2-1.2-0.7-1.8-1.2c-0.7-0.7-1.2-1.7-1.4-2.6c-0.2-0.8-0.4-1.8-0.4-2.8
		c0-2.9,0.4-5.7,1-8.4C278.9,69.6,280.1,65.8,281.5,62.2z"/>
	
		<linearGradient id="SVGID_1_" gradientUnits="userSpaceOnUse" x1="-662.488" y1="1241.5105" x2="-433.3741" y2="1241.5105" gradientTransform="matrix(1 0 0 1 731.44 -1170.1105)">
		<stop  offset="0" style="stop-color:#2263AE"/>
		<stop  offset="0.42" style="stop-color:#00ADEE"/>
		<stop  offset="1" style="stop-color:#2263AE"/>
	</linearGradient>
	<path class="st2" d="M92.3,62c0,1.8-0.5,3.5-1.3,5.1c-0.7,1.4-1.8,2.6-3,3.7c-1.4,1.2-3.3,1.9-5.2,1.9c-1.2,0-2.4-0.5-3.1-1.4
		c-0.5,1.9-0.7,3.9-0.8,5.8c0,1.3,0.1,2.5,0.6,3.7c0.6,1.3,1.6,2,2.6,2c1.7,0,3.4-0.6,4.8-1.6c1.6-1.1,2.9-2.4,4-3.9
		c1.1-1.4,2-2.9,2.9-4.5c1.3-2.3,2.4-4.8,3.3-7.3c0,1.6-0.7,4.2-2.3,8.1C94,75.4,93,77.3,91.9,79c-1.4,2.4-3.4,4.7-5.5,6.5
		c-2,1.9-4.8,3-7.6,3.1h-0.2c-2.5,0-5.1-1.1-6.7-2.9c-0.8-1-1.4-2.2-1.9-3.4c-0.7-1.4-1-3-1-4.7c0.1-3,0.6-6,1.3-9
		c0.7-2.9,1.8-5.7,3.3-8.3c0.7-1.4,1.7-2.6,2.9-3.7c1.8-1.7,4.2-2.5,6.7-2.5c1.9,0,3.9,0.5,5.7,1.4c1.1,0.6,1.9,1.4,2.5,2.5
		C92,59.3,92.3,60.6,92.3,62z M86.7,59.6L86.7,59.6c0-1.2-0.2-1.8-0.7-1.8c-0.6,0-1.2,0.2-1.6,0.7c-0.6,0.6-1.1,1.3-1.4,2
		c-0.8,1.6-1.4,3.1-1.9,4.8c-0.5,1.4-0.8,2.9-1.2,4.5c0.4,0.4,1,0.6,1.6,0.7c1,0,1.8-0.6,2.6-1.8c0.8-1.2,1.4-2.5,1.8-4
		C86.4,63.1,86.6,61.2,86.7,59.6z"/>
	
		<linearGradient id="SVGID_2_" gradientUnits="userSpaceOnUse" x1="-662.5097" y1="1230.9668" x2="-433.3957" y2="1230.9668" gradientTransform="matrix(1 0 0 1 731.44 -1170.1105)">
		<stop  offset="0" style="stop-color:#2263AE"/>
		<stop  offset="0.42" style="stop-color:#00ADEE"/>
		<stop  offset="1" style="stop-color:#2263AE"/>
	</linearGradient>
	<path class="st3" d="M99.6,49.6l0.5-1.6c1.8-6.5,3.1-11,4-13.6c1.9-0.8,4-1.2,6-1.3c0.8,0,1.6,0.1,2.4,0.4c0.6,0.1,1.2,0.5,1.6,1
		c-1.2,3.4-2.8,8.3-4.6,14.6l-0.2,1c2.2-0.1,4.2-0.4,6.3-0.7c-0.4,1.1-1.4,2-3.4,2.6c-1.2,0.5-2.5,0.8-3.9,1.1
		c-1.4,4.9-2.6,9.9-3.9,14.7c-1.4,6.1-2.3,10.2-2.3,12.4c0,0.4,0,0.8,0.1,1.2c0.1,0.4,0.4,0.6,0.8,0.6c0.8,0,1.9-0.7,3-2
		c1.2-1.4,2.4-3.1,3.4-4.8c1.1-1.8,2-3.6,3-5.4c0.8-1.8,1.4-3.1,1.8-4.1c-0.1,1.2-0.4,2.4-0.8,3.5c-0.6,2-1.4,4-2.3,5.9
		c-1,2.2-2.2,4.3-3.5,6.4c-1.2,1.9-2.6,3.7-4.3,5.2c-1.3,1.3-3,2-4.8,2c-1.3,0.1-2.8-0.4-3.9-1.2c-0.8-0.7-1.4-1.7-1.8-2.8
		c-0.4-1-0.5-2-0.5-3c0-2.6,0.8-7.3,2.4-14.1c1.1-4.6,2.3-9,3.5-13.5c-0.5-0.1-1-0.1-1.5-0.1c-0.8-0.5-1.3-1.4-1.3-2.4
		c0-0.4,0-0.6,0-1c0-0.7,0.1-1.3,0.4-2C97.1,49.2,98.4,49.4,99.6,49.6z"/>
	
		<linearGradient id="SVGID_3_" gradientUnits="userSpaceOnUse" x1="-662.5097" y1="1231.0342" x2="-433.3957" y2="1231.0342" gradientTransform="matrix(1 0 0 1 731.44 -1170.1105)">
		<stop  offset="0" style="stop-color:#2263AE"/>
		<stop  offset="0.42" style="stop-color:#00ADEE"/>
		<stop  offset="1" style="stop-color:#2263AE"/>
	</linearGradient>
	<path class="st4" d="M224.5,34.4c0,1-0.2,1.9-0.5,2.9c-0.2,1.2-0.7,2.3-1.3,3.4c-0.4,0.8-1.1,1.6-1.9,1.9c-1.6-1.3-3.3-2.5-5.1-3.6
		c-2.2-1.3-4.6-2.2-7-2.5C206.8,36,205,36,203,36c-0.7,0-1.3,0-2,0.1c-2.4,0.1-4.8,0.6-7.1,1.7c-2.2,1-4,2.4-5.2,4.3
		c-1.3,1.9-2,4.5-2,7.6c-0.1,1.6,0.5,3.1,1.6,4.3c1.1,1,2.4,1.6,3.9,1.6c0,1.1-0.1,2.2-0.6,3.1c-0.4,0.7-0.8,1.2-1.6,1.6
		c-0.6,0.4-1.3,0.5-1.9,0.5c-2,0-4-1-5.1-2.8c-1.3-1.9-2-4.3-1.9-6.6c0-2.3,0.6-4.6,1.6-6.6c1.2-2.5,2.9-4.7,4.9-6.4
		c2.6-2.2,5.7-3.9,8.9-4.8c3.7-1.2,8.2-1.8,13.5-1.8C216.2,31.5,221,32.5,224.5,34.4z M197.2,63.4c2.6-11.1,4-18.5,4-22.4
		c1.2-1.4,3.4-2.3,6.5-2.4c1.3,0,2.6,0.4,3.9,1.1c0,2-1.3,8.9-4,20.6c-2.6,11.7-3.9,21-3.9,27.5c-1.4,1.3-3.1,2-5.1,2.3
		c-0.5,0.1-1,0.1-1.4,0.1c-1.3,0-2.6-0.4-3.9-1.1C193.2,82.9,194.5,74.4,197.2,63.4z"/>
	
		<linearGradient id="SVGID_4_" gradientUnits="userSpaceOnUse" x1="-662.5097" y1="1241.5604" x2="-433.3957" y2="1241.5604" gradientTransform="matrix(1 0 0 1 731.44 -1170.1105)">
		<stop  offset="0" style="stop-color:#2263AE"/>
		<stop  offset="0.42" style="stop-color:#00ADEE"/>
		<stop  offset="1" style="stop-color:#2263AE"/>
	</linearGradient>
	<path class="st5" d="M235.1,62c0,1.8-0.5,3.5-1.3,5.1c-0.7,1.4-1.8,2.6-3,3.7c-1.4,1.2-3.3,1.9-5.2,1.9c-1.2,0-2.4-0.5-3.1-1.4
		c-0.5,1.9-0.7,3.9-0.8,5.8c0,1.3,0.1,2.5,0.6,3.7c0.7,1.3,1.6,2,2.6,2c1.7,0,3.4-0.6,4.8-1.6c1.6-1.1,2.9-2.4,4-3.9
		c1.1-1.4,2-2.9,2.9-4.5c1.3-2.3,2.3-4.8,3.3-7.2c0,1.6-0.7,4.2-2.3,8.1c-0.8,1.9-1.8,3.7-2.9,5.5c-1.4,2.4-3.4,4.7-5.5,6.5
		c-2,1.9-4.8,3-7.6,3.1h-0.2c-2.5,0-5.1-1.1-6.7-2.9c-0.8-1-1.4-2.2-1.9-3.4c-0.5-1.6-0.7-3.1-0.7-4.8c0.1-3,0.6-6,1.4-9
		c0.7-2.9,1.8-5.7,3.3-8.3c0.7-1.4,1.7-2.6,2.9-3.7c1.8-1.7,4.2-2.5,6.7-2.5c1.9,0,3.9,0.5,5.7,1.4c1.1,0.6,1.9,1.4,2.5,2.5
		C234.9,59.3,235.3,60.6,235.1,62z M229.6,59.6L229.6,59.6c0-1.2-0.2-1.8-0.7-1.8c-0.6,0-1.2,0.2-1.6,0.7c-0.6,0.6-1.1,1.3-1.4,2
		c-0.8,1.6-1.4,3.1-1.9,4.8c-0.5,1.4-0.8,2.9-1.2,4.5c0.4,0.4,1,0.6,1.6,0.7c1,0,1.8-0.6,2.6-1.8c0.8-1.2,1.4-2.5,1.8-3.9
		C229.2,63.1,229.5,61.2,229.6,59.6z"/>
	
		<linearGradient id="SVGID_5_" gradientUnits="userSpaceOnUse" x1="-662.5097" y1="1242.0604" x2="-433.3957" y2="1242.0604" gradientTransform="matrix(1 0 0 1 731.44 -1170.1105)">
		<stop  offset="0" style="stop-color:#2263AE"/>
		<stop  offset="0.42" style="stop-color:#00ADEE"/>
		<stop  offset="1" style="stop-color:#2263AE"/>
	</linearGradient>
	<path class="st6" d="M258.7,62c0,1.6-0.4,3.1-1,4.6c-0.7,0.5-1.7,0.7-2.6,0.7c-1.2,0-2.4-0.1-3.6-0.6c0.5-1.3,0.8-2.6,1.2-4
		c0.2-1,0.4-1.9,0.4-2.9v-0.5c0-1-0.2-1.3-0.7-1.4c-1.2,0.1-2.3,1.2-3.3,3.4c-1.2,2.6-2.2,5.4-2.8,8.3c-0.8,3.9-1.2,6.4-1.2,7.6
		c-0.1,1.3,0.1,2.6,0.7,4c0.6,1.2,1.4,1.8,2.5,1.8s2.3-0.2,3.3-0.7c1.1-0.6,2.2-1.3,3.1-2.2c2.2-2,4-4.5,5.4-7
		c1.3-2.3,2.4-4.7,3.1-7.2c-0.1,1.8-0.5,3.6-1.2,5.3c-1,2.4-2.2,4.7-3.5,7c-1.6,2.8-3.5,5.4-5.9,7.6c-2.2,2-5.1,3.3-8.1,3.4
		c-2.5,0-5.1-1.1-6.7-2.9c-0.8-1.1-1.6-2.2-1.9-3.5c-0.5-1.4-0.7-3-0.7-4.6c0.1-2.9,0.6-5.7,1.3-8.4c0.7-3.1,1.8-6.1,3.4-8.9
		c1-2,2.5-3.7,4.6-4.8c1.6-0.8,3.4-1.3,5.1-1.3c2.3,0,4.5,0.6,6.3,1.9C257.8,57.4,258.9,59.7,258.7,62z"/>
	
		<linearGradient id="SVGID_6_" gradientUnits="userSpaceOnUse" x1="-662.5097" y1="1230.9604" x2="-433.3957" y2="1230.9604" gradientTransform="matrix(1 0 0 1 731.44 -1170.1105)">
		<stop  offset="0" style="stop-color:#2263AE"/>
		<stop  offset="0.42" style="stop-color:#00ADEE"/>
		<stop  offset="1" style="stop-color:#2263AE"/>
	</linearGradient>
	<path class="st7" d="M281.5,62.2c-1.1,0.8-2.3,2.4-3.5,4.7c-1.4,2.8-2.6,5.5-3.9,8.3c-1.6,4-3,8.1-4.1,12.3c-0.8,0.5-1.7,0.7-2.6,1
		c-0.7,0.1-1.6,0.2-2.3,0.2c-1,0-1.9-0.1-2.9-0.6c-0.7-0.4-1.3-0.8-1.8-1.4c-0.6-0.7-1-1.6-1.1-2.5c-0.1-0.8-0.2-1.7-0.2-2.5
		c0-3,0.4-6,0.8-9c1.1-6.4,2.5-13.1,4.3-20.2c1-3.7,1.9-7.2,3-10.6c0.8-2.9,1.7-5.4,2.4-7.6c1.9-0.8,4-1.2,6-1.3
		c0.8,0,1.6,0.1,2.4,0.4c0.6,0.1,1.2,0.5,1.6,1c-1.1,3.3-2.3,6.5-3.3,9.8c-1.2,3.9-2.4,7.6-3.5,11.4c-0.8,2.9-1.6,5.8-2.3,8.8
		c-0.5,1.9-0.8,3.7-1.2,5.4c-1,4.6-1.4,7.8-1.4,9.9c0,0.5,0.1,1,0.2,1.4c0.1,0.5,0.4,0.7,0.5,0.7c0.8-2.9,1.8-5.7,2.9-8.4
		c1-2.6,2.2-5.3,3.5-7.8c1.1-2.2,2.4-4.2,3.9-6.1c1.2-1.7,2.6-3.1,4.3-4.3c1.2-0.8,2.5-1.2,4-1.2c1.1,0,2.2,0.4,3,1
		c0.5,0.4,0.8,0.8,1,1.3c0.2,0.6,0.4,1.3,0.4,2s-0.4,2.4-1.2,5.1c-0.1,0.2-0.2,0.6-0.2,0.8c-0.8,2.9-1.7,6.1-2.4,9.5
		c-0.5,2-0.6,4.2-0.7,6.4c0,0.4,0,0.8,0.1,1.2c0.1,0.4,0.4,0.6,0.8,0.6c0.7,0,1.6-0.6,2.6-1.8c1.2-1.4,2.2-2.9,3.1-4.5
		c1.9-3.1,3.4-6.5,4.5-10c0,1-0.5,2.9-1.4,5.8c-1,3.1-2.3,6-3.9,8.9c-0.8,1.4-1.8,2.9-2.8,4.2c-1,1.2-2,2.2-3.3,3.1
		c-1.1,0.7-2.3,1.2-3.6,1.2c-0.8,0-1.7-0.1-2.5-0.5c-0.6-0.2-1.2-0.7-1.8-1.2c-0.7-0.7-1.2-1.7-1.4-2.6c-0.2-0.8-0.4-1.8-0.4-2.8
		c0-2.9,0.4-5.7,1-8.4C278.9,69.6,280.1,65.8,281.5,62.2z"/>
	<path class="st8" d="M113.2,86.3l7-34.3h8.9l7,34.3h-7.5l-1-6.6h-5.9l-1,6.6H113.2z M122.5,73.4h4.3l-2.2-14.9L122.5,73.4z"/>
	<path class="st8" d="M136.5,86.3V52h7.8l6.3,21.2c-0.2-3.6-0.5-6.6-0.6-9.3c-0.1-2.5-0.1-4.8-0.1-6.5V52h6.7v34.3h-7.8l-6.3-21.8
		c0.2,2.9,0.5,5.5,0.6,8.3c0.1,2.8,0.2,5.3,0.2,7.7v5.8C143.3,86.2,136.5,86.2,136.5,86.3z"/>
	<path class="st8" d="M159.3,86.3V52h8.3c3,0,5.3,0.2,6.7,0.8s2.6,1.6,3.5,2.9c0.7,1.2,1.2,2.6,1.4,4.1c0.4,3.1,0.5,6.3,0.5,9.4
		c0.1,3.1-0.1,6.3-0.5,9.4c-0.2,1.4-0.7,2.9-1.4,4.1c-0.8,1.3-2,2.3-3.5,2.9c-1.4,0.6-3.7,0.8-6.7,0.8L159.3,86.3z M166.8,58.4v21.6
		c0.1,0,0.2,0,0.5,0h0.7c0.7,0,1.3-0.1,2-0.4c0.5-0.2,1-0.6,1.3-1.1c0.4-0.7,0.6-1.6,0.6-2.4c0.1-1.2,0.1-3.5,0.1-7v-1.6
		c0-2.9,0-4.8-0.1-5.8c0-0.7-0.2-1.4-0.6-2c-0.2-0.5-0.7-0.8-1.3-1.1c-0.7-0.2-1.4-0.4-2.2-0.4h-0.6L166.8,58.4z"/>
	<path class="st1" d="M42.7,17.5c1.4,0,2.8,0.2,4,1c1,0.6,1.9,1.3,2.6,2.2c0.5,0.6,1,1.2,1.3,1.9c-1.2,3.6-2.6,10.4-4.2,20
		c-1.6,9.6-3,19.5-4.2,29.7s-1.9,17.3-1.9,21.6c0,0.6,0.1,1.3,0.2,1.9c0.1,0.6,0.6,1,1.2,1c1.9,0,4.9-4,9-11.8
		c4.5-8.7,8.1-17.6,10.8-26.9c-2.9-1.4-5.1-3.9-6.4-6.7c-1.3-3-1.9-6.3-1.9-9.5c0-4.1,0.7-8.2,1.9-12c1.1-3.6,2.8-6.9,4.9-9.9
		c2-2.6,4.1-4,6.1-4c2.4,0,4.2,0.7,5.5,2.2c1.3,1.6,2.3,3.5,2.6,5.7c0.5,2.2,0.7,4.5,0.7,6.7v0.6c-0.1,7-2,16-5.8,27.2
		c1.9,0.2,3.9,0.5,5.8,0.5c4.1,0,8.2-0.6,12-1.8c-3.6,2.4-8.2,3.7-13.7,3.7c-1.6,0-3.1-0.1-4.7-0.2c-1.9,5.7-4.2,11.3-6.9,16.7
		c-2.4,5.3-5.3,10.5-8.4,15.3c-2.6,4.1-5.8,7.8-9.4,11.1c-3.3,2.8-6.5,4.2-9.8,4.2c-2.6,0-4.6-0.6-6-1.8c-1.3-1.2-2.3-2.6-2.8-4.3
		c-0.5-1.6-0.7-3.1-0.7-4.8c0-4.6,0.5-11.7,1.4-21.3c1-9.6,2.2-19.3,3.6-28.8s2.9-16.9,4.5-21.9c-4,0-7.7,1.6-11.4,4.8
		s-6.9,7.3-9,11.8c-2.3,4.2-3.5,9-3.6,13.9c0,2.6,0.5,5.3,1.6,7.7s2.9,4.6,5.1,5.9l-0.4,0.1c-0.8,0.5-1.7,0.8-2.6,1.1
		c-1.1,0.4-2.3,0.5-3.4,0.5c-2,0.1-4.1-0.5-5.7-1.7c-1.4-1.1-2.5-2.6-3.3-4.3c-0.6-1.6-1-3.3-1-5.1c0-5.2,1.3-10.4,3.9-15.1
		c2.6-4.9,6-9.5,10-13.4S23,24,28.1,21.6C32.7,18.9,37.6,17.6,42.7,17.5z M62.5,55.2c2.3-7.8,3.4-14.8,3.4-20.8
		c0-1.4-0.1-2.9-0.4-4.3c-0.2-1.2-0.8-1.9-1.8-1.9c-1.4,0-3,1.6-4.6,4.7c-1.6,3.3-2.4,6.9-2.4,10.5c0,2.3,0.4,4.5,1.2,6.6
		C59.2,52.1,60.6,53.9,62.5,55.2z"/>
	
		<linearGradient id="SVGID_7_" gradientUnits="userSpaceOnUse" x1="39.6402" y1="2236.7573" x2="297.7592" y2="2236.7573" gradientTransform="matrix(0.97 1.000000e-02 -1.000000e-02 1 29.2962 -2135.1863)">
		<stop  offset="0" style="stop-color:#2263AE"/>
		<stop  offset="0.42" style="stop-color:#00ADEE"/>
		<stop  offset="1" style="stop-color:#2263AE"/>
	</linearGradient>
	<path class="st9" d="M63.7,89.8c-1.6,3.7-7,14.8-17.9,17.8c0,0,181.8,27.6,250.2-14c0,0-53.7,28.2-230.4-4.9
		C64.8,88.8,64.1,89.2,63.7,89.8z"/>
</g>
</svg>
