<?xml version="1.0" encoding="utf-8"?>
<!-- Generator: Adobe Illustrator 25.2.0, SVG Export Plug-In . SVG Version: 6.00 Build 0)  -->
<svg version="1.1" id="Layer_1" xmlns="http://www.w3.org/2000/svg" xmlns:xlink="http://www.w3.org/1999/xlink" x="0px" y="0px"
	 viewBox="0 0 60 60" style="enable-background:new 0 0 60 60;" xml:space="preserve">
<style type="text/css">
	.st0{stroke:#000000;stroke-width:0.75;stroke-miterlimit:10;}
	.st1{stroke:#000000;stroke-width:0.5;stroke-miterlimit:10;}
</style>
<g>
	<path class="st0" d="M1.5,40.7c0.1-0.6,0.2-1.2,0.4-1.8c1.9-7,9.9-10.3,16.3-6.9c0.2,0.1,0.4,0.2,0.6,0.3c6-6.2,16-6.2,22-0.4
		c1.6-1,3.3-1.7,5.2-1.9c5.9-0.8,11.9,3.7,12.5,9.7c0.2,1.5,0.1,3.1,0.1,4.6c0,1.1-0.9,2-2,2.2c-0.3,0-0.5,0-0.8,0
		c-3.2,0-6.3,0-9.5,0c-0.2,0-0.4,0-0.7,0c0,0.2,0,0.4,0,0.5c0,2-1.3,3.2-3.2,3.2c-2.5,0-5,0-7.5,0c-5.6,0-11.2,0-16.8,0
		c-2.1,0-3.2-0.9-3.6-3c-0.2,0-0.4,0-0.6,0c-3.1,0-6.2,0-9.4,0c-1.5,0-2.5-0.5-3-1.9C1.5,43.8,1.5,42.3,1.5,40.7z M30,48.4
		c4.1,0,8.2,0,12.3,0c0.9,0,1.4-0.4,1.4-1.4c0-0.6,0-1.1,0-1.7c0-1.9,0.1-3.9-0.5-5.7c-2.1-7.5-10-11.8-17.4-9.4
		c-5.3,1.7-9,6.4-9.4,12c-0.1,1.6,0,3.1-0.1,4.7c0,1.1,0.4,1.5,1.5,1.5C21.9,48.4,25.9,48.4,30,48.4z M42.1,33.4
		c2.7,3.3,3.7,7.1,3.4,11.2c0.1,0,0.2,0.1,0.2,0.1c3.5,0,6.9,0,10.4,0c0.5,0,0.7-0.3,0.7-0.7c0-1.1,0-2.2,0-3.3
		c-0.2-3.3-1.7-5.8-4.5-7.5C49.1,31.3,44.8,31.4,42.1,33.4z M17.6,33.9c-0.2-0.1-0.3-0.2-0.3-0.2C12,30.7,5,33.7,3.6,39.6
		c-0.4,1.6-0.2,3.3-0.3,4.9c0,0.7,0.1,0.9,0.9,0.9c3.2,0,6.5,0,9.7,0c0.2,0,0.4,0,0.6,0C14.2,41.2,15,37.3,17.6,33.9z"/>
	<path class="st0" d="M29.7,26.6c-4.7,0-8.5-3.8-8.5-8.4c0-4.6,3.8-8.4,8.5-8.4c4.7,0,8.5,3.8,8.5,8.4
		C38.2,22.8,34.4,26.6,29.7,26.6z M29.7,24.8c3.7,0,6.7-2.9,6.7-6.6c0-3.6-3-6.6-6.6-6.6c-3.7,0-6.7,2.9-6.7,6.5
		C23,21.8,26,24.8,29.7,24.8z"/>
	<path class="st0" d="M53.8,22.1c0,3.6-3,6.6-6.6,6.5c-3.6,0-6.6-3-6.6-6.6c0-3.6,3-6.5,6.7-6.5C50.9,15.5,53.9,18.5,53.8,22.1z
		 M47.2,26.8c2.6,0,4.8-2.1,4.8-4.7c0-2.6-2.1-4.7-4.8-4.7c-2.6,0-4.8,2.1-4.8,4.7C42.5,24.7,44.6,26.8,47.2,26.8z"/>
	<path class="st0" d="M12.8,16c3.6,0,6.6,3,6.6,6.6c0,3.6-3,6.6-6.6,6.5c-3.6,0-6.6-3-6.6-6.6C6.2,18.9,9.1,16,12.8,16z M12.7,27.2
		c2.6,0,4.8-2.1,4.8-4.7c0-2.6-2.1-4.7-4.8-4.7c-2.6,0-4.8,2.1-4.8,4.7C8,25.1,10.1,27.2,12.7,27.2z"/>
</g>
</svg>
