<svg id="Layer_1" data-name="Layer 1" xmlns="http://www.w3.org/2000/svg" viewBox="0 0 64 64"><defs><style>.cls-1,.cls-2{fill:none;stroke:#000;}.cls-1{stroke-miterlimit:10;stroke-width:1.5px;}.cls-2{stroke-linecap:round;stroke-linejoin:round;stroke-width:2px;}</style></defs><title>final from nida</title><path class="cls-1" d="M55.68,25.49c0,3,0,6.08,0,9.12a26.42,26.42,0,0,1-5.76,17A30.77,30.77,0,0,1,40,60c-2.1,1.11-4.33,2-6.52,2.93a5.38,5.38,0,0,1-3.89.05,35.17,35.17,0,0,1-16-10.59A26.19,26.19,0,0,1,7.25,35.21q0-10.71,0-21.43a3.93,3.93,0,0,1,3.49-4.31A44,44,0,0,0,24.37,4.59c1.56-.91,3-1.95,4.53-3A3.9,3.9,0,0,1,34,1.6,42.89,42.89,0,0,0,51.79,9.39a6.24,6.24,0,0,1,1.6.45,3.94,3.94,0,0,1,2.29,3.89C55.67,17.65,55.68,21.57,55.68,25.49Z"/><path class="cls-1" d="M31.45,46.64A15.32,15.32,0,1,1,46.8,31.33,15.38,15.38,0,0,1,31.45,46.64Z"/><polyline class="cls-2" points="23.39 30.11 28.72 35.31 39.24 26.19"/></svg>