<svg id="Layer_1" data-name="Layer 1" xmlns="http://www.w3.org/2000/svg" xmlns:xlink="http://www.w3.org/1999/xlink" viewBox="0 0 250 250"><defs><style>.cls-1{fill:#2263ae;}.cls-2{fill:url(#linear-gradient);}.cls-3{fill:#1d1c1c;}.cls-4{fill:url(#linear-gradient-2);}</style><linearGradient id="linear-gradient" x1="133.5" y1="125.69" x2="250" y2="125.69" gradientUnits="userSpaceOnUse"><stop offset="0.27" stop-color="#7684f4"/><stop offset="0.72" stop-color="#ba36d4"/></linearGradient><linearGradient id="linear-gradient-2" y1="125" x2="151.3" y2="125" gradientUnits="userSpaceOnUse"><stop offset="0.29" stop-color="#ba36d4"/><stop offset="0.97" stop-color="#7288f6"/></linearGradient></defs><path class="cls-1" d="M250,54.34a33.45,33.45,0,0,1-1.24,7.79,39.11,39.11,0,0,1-3.43,9q-2.21,4.08-5.1,5.16a84.1,84.1,0,0,0-13.53-9.67,55.45,55.45,0,0,0-18.79-6.87,84.67,84.67,0,0,0-15.25-1.4c-1.86,0-3.69.08-5.48.22a53.16,53.16,0,0,0-19,4.4,33.21,33.21,0,0,0-14.07,11.6q-5.37,7.73-5.37,20.29,0,7.52,4.3,11.71a14.35,14.35,0,0,0,10.41,4.18,17.79,17.79,0,0,1-1.66,8.43,10,10,0,0,1-4.24,4.35,11.66,11.66,0,0,1-5.26,1.29q-8.49,0-13.64-7.35T133.5,99.55a43.49,43.49,0,0,1,4.13-17.83,49.92,49.92,0,0,1,13.31-17.18Q160.12,56.61,175,51.6t36.34-5Q235.94,46.61,250,54.34Zm-73.45,78.17q10.53-44.44,10.53-60.13,4.83-5.91,17.5-6.44a17.24,17.24,0,0,1,10.31,3q0,8.16-10.53,55.52t-10.52,73.87q-4.83,4.84-13.64,6.13a25.41,25.41,0,0,1-3.86.32,17.25,17.25,0,0,1-10.31-3Q166,177,176.55,132.51Z"/><path class="cls-2" d="M250,54.34a33.45,33.45,0,0,1-1.24,7.79,39.11,39.11,0,0,1-3.43,9q-2.21,4.08-5.1,5.16a84.1,84.1,0,0,0-13.53-9.67,55.45,55.45,0,0,0-18.79-6.87,84.67,84.67,0,0,0-15.25-1.4c-1.86,0-3.69.08-5.48.22a53.16,53.16,0,0,0-19,4.4,33.21,33.21,0,0,0-14.07,11.6q-5.37,7.73-5.37,20.29,0,7.52,4.3,11.71a14.35,14.35,0,0,0,10.41,4.18,17.79,17.79,0,0,1-1.66,8.43,10,10,0,0,1-4.24,4.35,11.66,11.66,0,0,1-5.26,1.29q-8.49,0-13.64-7.35T133.5,99.55a43.49,43.49,0,0,1,4.13-17.83,49.92,49.92,0,0,1,13.31-17.18Q160.12,56.61,175,51.6t36.34-5Q235.94,46.61,250,54.34Zm-73.45,78.17q10.53-44.44,10.53-60.13,4.83-5.91,17.5-6.44a17.24,17.24,0,0,1,10.31,3q0,8.16-10.53,55.52t-10.52,73.87q-4.83,4.84-13.64,6.13a25.41,25.41,0,0,1-3.86.32,17.25,17.25,0,0,1-10.31-3Q166,177,176.55,132.51Z"/><path class="cls-3" d="M95.79,204.78l6.64-32.38h8.45l6.55,32.38h-7.11l-.88-6.21h-5.59l-.89,6.21Zm8.79-12.05h4.09l-2-14.13Z"/><path class="cls-3" d="M117.79,204.78V172.4h7.41l5.9,20q-.36-5-.52-8.7t-.17-6.18V172.4h6.34v32.38h-7.43l-5.94-20.59q.39,4,.6,7.79t.21,7.33v5.47Z"/><path class="cls-3" d="M139.3,204.78V172.4h7.84a19.08,19.08,0,0,1,6.38.79,6.54,6.54,0,0,1,3.29,2.7,10.35,10.35,0,0,1,1.35,3.86,64.91,64.91,0,0,1,.39,8.84,64.73,64.73,0,0,1-.39,8.83,10.53,10.53,0,0,1-1.35,3.87,6.64,6.64,0,0,1-3.29,2.7,19.35,19.35,0,0,1-6.38.79Zm7.15-26.35v20.44a2,2,0,0,0,.41,0h.61a4.63,4.63,0,0,0,1.91-.34,2.71,2.71,0,0,0,1.23-1.07,5.21,5.21,0,0,0,.55-2.27c.1-1.12.14-3.32.14-6.6v-1.47c0-2.69,0-4.51-.13-5.46a4.4,4.4,0,0,0-.52-1.94,2.46,2.46,0,0,0-1.21-1,5.22,5.22,0,0,0-2.05-.34h-.58Z"/><path class="cls-4" d="M72.94,48.26a13.93,13.93,0,0,1,7,1.68,17.45,17.45,0,0,1,4.67,3.75,19.08,19.08,0,0,1,2.39,3.36q-3.15,9.56-7.33,34.74t-7.43,51.77Q69,170.15,69,181.11a11.55,11.55,0,0,0,.49,3.37,2,2,0,0,0,2.12,1.63q5,0,15.68-20.52a287.25,287.25,0,0,0,18.94-46.78,23.84,23.84,0,0,1-11-11.77,41.47,41.47,0,0,1-3.31-16.66,66.64,66.64,0,0,1,3.42-21A58.24,58.24,0,0,1,104,52.12q5.27-6.9,10.7-6.9,6.28,0,9.71,3.8a20.15,20.15,0,0,1,4.61,9.77,53.72,53.72,0,0,1,1.2,11.61v1q-.33,18.14-10,47.32a66.55,66.55,0,0,0,10.1.76,74.94,74.94,0,0,0,20.94-3.14q-9.33,6.41-24,6.4-3.91,0-8.25-.43a291.26,291.26,0,0,1-11.83,29.19,207.41,207.41,0,0,1-14.76,26.65A92.6,92.6,0,0,1,76,197.45q-8.52,7.32-17,7.33-6.84,0-10.42-3.15A15.9,15.9,0,0,1,43.74,194a30,30,0,0,1-1.3-8.31q0-11.94,2.44-37.17t6.24-50.15q3.8-24.9,7.82-38.26Q48.62,60.09,39,68.4A66.11,66.11,0,0,0,23.23,89,53.13,53.13,0,0,0,17,113.06a33.89,33.89,0,0,0,2.66,13.41,23.33,23.33,0,0,0,8.85,10.36l-.66.22A30.69,30.69,0,0,1,23.34,139a19.22,19.22,0,0,1-6,.76,15.55,15.55,0,0,1-9.94-3,17.86,17.86,0,0,1-5.64-7.54A23.67,23.67,0,0,1,0,120.44a55.68,55.68,0,0,1,6.73-26.1A89.67,89.67,0,0,1,24.26,71.11,92.5,92.5,0,0,1,47.92,54.5Q60.78,48.26,72.94,48.26Zm34.73,65.67q6-20.52,6-36.36A39.44,39.44,0,0,0,113,70c-.43-2.17-1.45-3.26-3-3.26-2.53,0-5.16,2.76-7.87,8.25A40.48,40.48,0,0,0,98,93.09a31.15,31.15,0,0,0,2.17,11.5A20.64,20.64,0,0,0,107.67,113.93Z"/></svg>