<svg id="Layer_1" data-name="Layer 1" xmlns="http://www.w3.org/2000/svg" viewBox="0 0 64 64"><defs><style>.cls-1{fill:none;stroke-width:1.5px;}.cls-1,.cls-2{stroke:#000;stroke-miterlimit:10;}.cls-2{fill:#fff;stroke-width:0.4px;}</style></defs><title>icons-2</title><path class="cls-1" d="M17.71,7.55a1.7,1.7,0,0,0,0,.26C18,13.35,19.68,15,25.27,15H41.14c4.45,0,6.58-2.11,6.62-6.56V7.34a32.52,32.52,0,0,1,5.67.57A4.93,4.93,0,0,1,57,12.39a12.84,12.84,0,0,1,.1,1.75c0,14.33,0,28.65,0,43a9.47,9.47,0,0,1-.8,3.84,5.13,5.13,0,0,1-4.93,3q-18.62,0-37.23,0a5.74,5.74,0,0,1-5.66-5.13,14.67,14.67,0,0,1-.1-1.62c0-14.41,0-28.82,0-43.23a9.63,9.63,0,0,1,.81-3.71,4.68,4.68,0,0,1,3.95-2.71A42.57,42.57,0,0,1,17.71,7.55Zm3.73,18c-.48-.55-.82-1-1.19-1.36a13.85,13.85,0,0,0-1.16-1.14,1.85,1.85,0,1,0-2.61,2.63c1.2,1.27,2.44,2.5,3.7,3.71a1.67,1.67,0,0,0,2.48.14c2.63-2.54,5.23-5.13,7.77-7.77a1.66,1.66,0,0,0-.13-2.47,1.73,1.73,0,0,0-2.48-.1,12.19,12.19,0,0,0-.9.86Zm0,26.31c-.9-1-1.58-1.84-2.37-2.57a1.76,1.76,0,0,0-2.57,0,1.82,1.82,0,0,0-.06,2.59c1.22,1.31,2.5,2.57,3.79,3.8a1.77,1.77,0,0,0,2.59,0c.38-.32.72-.7,1.07-1.05,2.12-2.12,4.25-4.22,6.35-6.37a1.87,1.87,0,1,0-2.62-2.65c-.34.31-.65.64-1,1Zm0-13.11c-.82-.9-1.46-1.67-2.17-2.37A1.87,1.87,0,1,0,16.63,39q1.65,1.71,3.35,3.36a1.92,1.92,0,0,0,3.05,0q3.6-3.55,7.15-7.16a2.22,2.22,0,0,0,.58-.93A1.68,1.68,0,0,0,30,32.2a1.79,1.79,0,0,0-2.39.29C25.64,34.5,23.66,36.52,21.46,38.76ZM42.15,22.49H36.91c-1.44,0-2.27.75-2.23,1.93s.84,1.81,2.22,1.81H47.37c1.44,0,2.26-.74,2.23-1.92s-.84-1.8-2.22-1.82Zm0,30h5.24c1.44,0,2.26-.75,2.23-1.93s-.84-1.81-2.22-1.81H36.91c-1.44,0-2.27.74-2.23,1.92s.84,1.8,2.22,1.82Zm0-13.13c1.71,0,3.42,0,5.12,0,1.52,0,2.32-.66,2.34-1.83s-.78-1.88-2.27-1.89q-5.19,0-10.38,0c-1.49,0-2.29.7-2.27,1.89s.82,1.82,2.33,1.83C38.72,39.37,40.43,39.36,42.14,39.36Z"/><path class="cls-1" d="M32.66,11.24H23.92c-1.76,0-2.39-.65-2.41-2.42,0-.37,0-.75,0-1.12a3.76,3.76,0,0,1,3.9-4,6,6,0,0,1,1.12,0C28,3.92,29,3.69,29.51,2a3.2,3.2,0,0,1,3.42-2,3.33,3.33,0,0,1,3.25,2.32,1.75,1.75,0,0,0,2.26,1.41c.12,0,.25,0,.38,0C42.45,3.42,44.31,5.14,44,9c-.11,1.51-.72,2.19-2.25,2.2C38.74,11.25,35.7,11.24,32.66,11.24Z"/><path class="cls-2" d="M21.44,25.56l5.48-5.5a12.19,12.19,0,0,1,.9-.86,1.73,1.73,0,0,1,2.48.1,1.66,1.66,0,0,1,.13,2.47c-2.54,2.64-5.14,5.23-7.77,7.77a1.67,1.67,0,0,1-2.48-.14c-1.26-1.21-2.5-2.44-3.7-3.71a1.85,1.85,0,1,1,2.61-2.63,13.85,13.85,0,0,1,1.16,1.14C20.62,24.59,21,25,21.44,25.56Z"/><path class="cls-2" d="M21.42,51.87l5.21-5.26c.32-.33.63-.66,1-1a1.87,1.87,0,1,1,2.62,2.65c-2.1,2.15-4.23,4.25-6.35,6.37-.35.35-.69.73-1.07,1.05a1.77,1.77,0,0,1-2.59,0c-1.29-1.23-2.57-2.49-3.79-3.8a1.82,1.82,0,0,1,.06-2.59,1.76,1.76,0,0,1,2.57,0C19.84,50,20.52,50.88,21.42,51.87Z"/><path class="cls-2" d="M21.46,38.76c2.2-2.24,4.18-4.26,6.18-6.27A1.79,1.79,0,0,1,30,32.2a1.68,1.68,0,0,1,.73,2.07,2.22,2.22,0,0,1-.58.93Q26.63,38.8,23,42.36a1.92,1.92,0,0,1-3.05,0Q18.29,40.69,16.63,39a1.87,1.87,0,1,1,2.66-2.59C20,37.09,20.64,37.86,21.46,38.76Z"/><path class="cls-2" d="M42.15,22.49h5.23c1.38,0,2.19.69,2.22,1.82s-.79,1.92-2.23,1.92H36.9c-1.38,0-2.19-.69-2.22-1.81s.79-1.91,2.23-1.93Z"/><path class="cls-2" d="M42.13,52.49H36.9c-1.38,0-2.19-.69-2.22-1.82s.79-1.92,2.23-1.92H47.38c1.38,0,2.19.69,2.22,1.81s-.79,1.91-2.23,1.93Z"/><path class="cls-2" d="M42.14,39.36c-1.71,0-3.42,0-5.13,0-1.51,0-2.31-.66-2.33-1.83s.78-1.88,2.27-1.89q5.19,0,10.38,0c1.49,0,2.29.71,2.27,1.89s-.82,1.82-2.34,1.83C45.56,39.37,43.85,39.36,42.14,39.36Z"/></svg>