<svg id="Layer_1" data-name="Layer 1" xmlns="http://www.w3.org/2000/svg" viewBox="0 0 64 64"><defs><style>.cls-1{fill:none;}</style></defs><title>icons-2</title><path d="M28.29,19.07v1.5h.06a15.33,15.33,0,0,1,10.77,4.66,14.81,14.81,0,0,1,4.32,10.68V36a14.81,14.81,0,0,1-4.35,10.71A15.19,15.19,0,0,1,28.34,51.3h-.1A15.36,15.36,0,0,1,13.11,35.92,15.45,15.45,0,0,1,28.29,20.57v-1.5m-3.31,7a6.66,6.66,0,0,0-3.6,5.55c-.1,1.43-.08,2.81-.06,4.27,0,.63,0,1.27,0,1.91v1.5h7.34c0,.1,0,.2,0,.29,0,.48-.16.51-.48.52H21.38v6.66H25v3.62h6.59V45.84a6.82,6.82,0,0,0,3.57-5.09,12.55,12.55,0,0,0,.11-2.27c0-.23,0-.46,0-.68V32.63H27.89v-.16c0-.67.08-.67.63-.67h4.29c.3,0,.57,0,.81-.07l.24,0,1.35-.13V25.15H31.57V21.51H25v4.54m3.31-7a16.87,16.87,0,0,0-.06,33.73h.11a16.87,16.87,0,0,0,0-33.73ZM22.85,37.78c0-2.12-.12-4.1,0-6.07a5.2,5.2,0,0,1,3.17-4.52,4.64,4.64,0,0,0,.43-.27V23h3.59v3.64h3.64v3.56c-.29,0-.6.08-.91.09H28.5a1.9,1.9,0,0,0-2.11,2.14c0,.5,0,1,0,1.62a16.52,16.52,0,0,0,1.71.07h5.67c0,1.28,0,2.46,0,3.65a17.55,17.55,0,0,1-.09,2.72,5.34,5.34,0,0,1-3,4.13c-.18.08-.35.19-.58.32v3.92H26.5V45.25H22.88V41.59h3.77c.53,0,1.06,0,1.59,0a1.85,1.85,0,0,0,1.94-1.94c0-.41,0-.83,0-1.24,0-.16-.05-.32-.09-.62Z"/><path d="M10.14,16.83,13,20.3C5.7,28.56,4.49,37.4,9.42,46.62,13.34,54,20,57.85,28.59,57.85h.67a20.37,20.37,0,0,0,14-6.05,21.66,21.66,0,0,0,6.47-12.45h4.52A26.28,26.28,0,1,1,10.14,16.83m.19-2.13c-8.82,7.06-13,20.83-7.07,33.36A27.56,27.56,0,0,0,36.13,62.85c12.86-3.78,19.65-15.78,19.72-25H48.44a20.19,20.19,0,0,1-6.19,12.87,19,19,0,0,1-13,5.63h-.64c-7.81,0-14.07-3.37-17.85-10.44-5-9.39-3-17.92,4.23-25.56L10.33,14.7Z"/><path d="M31.64,1.9c5.62.28,14.13,3.36,20.5,9.75S61.67,26.7,62,32.56H49.74A21.81,21.81,0,0,0,32.93,14.51q-.63-.13-1.29-.24V1.9M30.82.38l-.68,0V15.52c.88.16,1.68.29,2.47.46A20.28,20.28,0,0,1,48.33,33.29a3.31,3.31,0,0,0,.25.77h14.9c.21-6.34-3.07-16.24-10.28-23.47C46.3,3.66,37,.38,30.82.38Z"/><path d="M24.91,5.83c.11,2.13.15,6.29.05,8.44a21.49,21.49,0,0,0-6.63,2.16c-1.54-1.82-3-3.65-4.6-5.57L13,9.93a29.14,29.14,0,0,1,11.94-4.1m1.34-1.62A30.9,30.9,0,0,0,10.74,9.57c2.46,3,4.78,5.91,7.25,8.76a20.34,20.34,0,0,1,8.37-2.73,77.53,77.53,0,0,0-.11-11.39Z"/><path class="cls-1" d="M26.48,23h3.59v3.64h3.64v3.56c-.29,0-.6.08-.91.09-1.43,0-2.87,0-4.3,0a1.9,1.9,0,0,0-2.11,2.14c0,.5,0,1,0,1.62,1.27.13,2.49,0,3.7.06s2.36,0,3.68,0c0,1.28,0,2.46,0,3.65a17.55,17.55,0,0,1-.09,2.72,5.34,5.34,0,0,1-3,4.13c-.18.08-.35.19-.58.32v3.92H26.5V45.25H22.88V41.59h1.43c1.31,0,2.62,0,3.93,0a1.85,1.85,0,0,0,1.94-1.94c0-.41,0-.83,0-1.24,0-.16-.05-.32-.09-.62H22.85c0-2.12-.12-4.1,0-6.07a5.2,5.2,0,0,1,3.17-4.52,4.64,4.64,0,0,0,.43-.27Z"/></svg>