<svg id="Layer_1" data-name="Layer 1" xmlns="http://www.w3.org/2000/svg" xmlns:xlink="http://www.w3.org/1999/xlink" viewBox="0 0 54 54"><defs><style>.cls-1{fill:url(#linear-gradient);}.cls-2{fill:url(#linear-gradient-2);}.cls-3{fill:url(#linear-gradient-3);}.cls-4{fill:url(#linear-gradient-4);}</style><linearGradient id="linear-gradient" x1="20.87" y1="26.76" x2="20.87" y2="14.34" gradientUnits="userSpaceOnUse"><stop offset="0" stop-color="#52c6f6"/><stop offset="1" stop-color="#f021da"/></linearGradient><linearGradient id="linear-gradient-2" x1="20.87" y1="40.96" x2="20.87" y2="28.54" xlink:href="#linear-gradient"/><linearGradient id="linear-gradient-3" x1="35.09" y1="26.76" x2="35.09" y2="14.34" xlink:href="#linear-gradient"/><linearGradient id="linear-gradient-4" x1="35.98" y1="42.76" x2="35.98" y2="28.54" xlink:href="#linear-gradient"/></defs><path class="cls-1" d="M20.88,14.34h3.95A2.28,2.28,0,0,1,27,16.16a3.07,3.07,0,0,1,0,.53v7.7a2.28,2.28,0,0,1-2.33,2.36c-2.59,0-5.17,0-7.76,0a2.29,2.29,0,0,1-2.34-2.37V16.72A2.3,2.3,0,0,1,17,14.34Zm4.42,6.22V16.73a.54.54,0,0,0-.61-.61H17a.54.54,0,0,0-.61.61v7.63a.55.55,0,0,0,.63.62h7.61a.55.55,0,0,0,.63-.63Z"/><path class="cls-2" d="M27.08,34.76v3.81A2.31,2.31,0,0,1,24.69,41H17a2.31,2.31,0,0,1-2.39-2.4V30.91a2.31,2.31,0,0,1,2-2.35H17c2.58,0,5.16,0,7.74,0a2.29,2.29,0,0,1,2.33,2,2.82,2.82,0,0,1,0,.41Zm-6.22-4.44H17a.54.54,0,0,0-.61.61v7.65a.55.55,0,0,0,.62.61h7.63a.55.55,0,0,0,.62-.63V31a.55.55,0,0,0-.63-.63Z"/><path class="cls-3" d="M28.87,20.54c0-1.26,0-2.53,0-3.79a2.3,2.3,0,0,1,2.4-2.41h7.61a2.31,2.31,0,0,1,2.41,2.41v7.6a2.31,2.31,0,0,1-2.41,2.41H31.28a2.3,2.3,0,0,1-2.4-2.41C28.87,23.08,28.87,21.81,28.87,20.54Zm6.22-4.42H31.32c-.48,0-.67.18-.67.67v7.52c0,.48.2.67.67.67h7.54c.47,0,.67-.2.67-.66V16.76c0-.45-.2-.64-.65-.64Z"/><path class="cls-4" d="M38.93,39.82a6.26,6.26,0,0,1-5.31,1.07,6,6,0,0,1-3.57-2.43,6.27,6.27,0,1,1,10.11.12l1.12,1.11,1.54,1.54a.89.89,0,0,1-.17,1.41.89.89,0,0,1-1.11-.18L39,40A1.71,1.71,0,0,1,38.93,39.82Zm-3.78-9.5a4.49,4.49,0,1,0,4.49,4.49A4.51,4.51,0,0,0,35.15,30.32Z"/></svg>