<svg id="Layer_1" data-name="Layer 1" xmlns="http://www.w3.org/2000/svg" xmlns:xlink="http://www.w3.org/1999/xlink" viewBox="0 0 54 54"><defs><style>.cls-1{fill:url(#linear-gradient);}.cls-2{fill:url(#linear-gradient-2);}.cls-3{fill:url(#linear-gradient-3);}.cls-4{fill:url(#linear-gradient-4);}</style><linearGradient id="linear-gradient" x1="34.71" y1="35.23" x2="34.71" y2="17.57" gradientUnits="userSpaceOnUse"><stop offset="0" stop-color="#52c6f6"/><stop offset="1" stop-color="#f021da"/></linearGradient><linearGradient id="linear-gradient-2" x1="21.3" y1="41.94" x2="21.3" y2="24.24" xlink:href="#linear-gradient"/><linearGradient id="linear-gradient-3" x1="23.44" y1="26.94" x2="23.44" y2="12.06" xlink:href="#linear-gradient"/><linearGradient id="linear-gradient-4" x1="23.69" y1="23.92" x2="23.69" y2="17.84" xlink:href="#linear-gradient"/></defs><path class="cls-1" d="M36.2,17.58A5.54,5.54,0,0,1,40,19.14c.31.31.62.61.92.93a5.73,5.73,0,0,1-.38,8.3c-1.87,1.68-3.66,3.46-5.49,5.19a5.73,5.73,0,0,1-4.68,1.64,5.31,5.31,0,0,1-2.64-1A2.41,2.41,0,0,1,27,31.5a2.52,2.52,0,0,1,2.09-1.73,2.39,2.39,0,0,1,1.44.23.93.93,0,0,0,1.24-.19c1.76-1.69,3.54-3.35,5.3-5,.63-.6.63-.81.06-1.45L37,23.22c-.73-.78-.93-.8-1.7-.09s-1.44,1.34-2.14,2a2.42,2.42,0,0,1-2.88.47,2.62,2.62,0,0,1-1.42-2.58,1.89,1.89,0,0,1,.57-1.23c1.09-1,2.15-2.12,3.3-3.09A5,5,0,0,1,36.2,17.58ZM31.09,34A3.87,3.87,0,0,0,34,32.91q3-2.82,6-5.68A4.39,4.39,0,0,0,40.2,21c-.31-.34-.64-.67-1-1a4.48,4.48,0,0,0-6-.22c-1,.84-1.88,1.73-2.79,2.62a1.18,1.18,0,0,0-.06,1.78,1.25,1.25,0,0,0,1.85.18c.2-.16.38-.35.57-.53l2-1.91a1.82,1.82,0,0,1,1.43-.53,3.3,3.3,0,0,1,2.42,2.33A2,2,0,0,1,38,25.54c-1.2,1.1-2.36,2.23-3.54,3.34-.7.66-1.4,1.32-2.1,2a1.75,1.75,0,0,1-2.08.35,2.88,2.88,0,0,0-.49-.18,1.35,1.35,0,0,0-1.64.8,1.28,1.28,0,0,0,.65,1.61A4,4,0,0,0,31.09,34Z"/><path class="cls-2" d="M24.87,24.24a6.05,6.05,0,0,1,3,.87A2.45,2.45,0,0,1,29.05,28a2.62,2.62,0,0,1-2.32,1.82,3.18,3.18,0,0,1-1.25-.29.93.93,0,0,0-1.17.16c-1.82,1.75-3.66,3.48-5.48,5.22-.48.47-.47.65,0,1.18.91,1.11,1.09,1.12,2.1.14.67-.64,1.34-1.28,2-1.91a2.45,2.45,0,0,1,3.45.08,2.4,2.4,0,0,1,.09,3.49c-1,.94-1.94,1.91-3,2.79A5.59,5.59,0,0,1,16,40.39a8.86,8.86,0,0,1-1.93-2.33,5.68,5.68,0,0,1,1.18-6.77l3.54-3.35,2.35-2.2A5.68,5.68,0,0,1,24.87,24.24Zm-5,16.51a3.94,3.94,0,0,0,2.69-.9c1.06-.9,2.05-1.88,3-2.85a1.37,1.37,0,0,0,.35-.76,1.28,1.28,0,0,0-.8-1.32,1.14,1.14,0,0,0-1.43.25c-.81.78-1.63,1.56-2.47,2.33a1.89,1.89,0,0,1-2.78-.08,5.73,5.73,0,0,0-.54-.56A2,2,0,0,1,18,33.93c1-.79,1.83-1.69,2.73-2.54L23.6,28.7a1.8,1.8,0,0,1,2.16-.39,2.18,2.18,0,0,0,.47.21,1.41,1.41,0,0,0,1.61-.73,1.22,1.22,0,0,0-.46-1.6,2.77,2.77,0,0,0-.76-.4,4.47,4.47,0,0,0-4.9,1c-.87.81-1.73,1.63-2.59,2.45-1.11,1.06-2.26,2.09-3.31,3.21a4.34,4.34,0,0,0-.14,5.86,9.76,9.76,0,0,0,1.26,1.31A4.33,4.33,0,0,0,19.86,40.75Z"/><path class="cls-3" d="M24.08,12.06l3.31.78-.51,2.26,1.36,1,2-1.17L32,17.84l-2.41,1.47-.64-1,1.38-.91-.53-.9-1.69,1-2.59-1.89.4-1.93-1-.24-.51,1.91-3.17.48-1.05-1.64-.93.53,1,1.72L18.44,19l-2-.38-.2,1,1,.28.82.23.53,3.16L17,24.38l.52.92,1.4-.81.66,1-2.42,1.49-1.8-3,2-1.22-.21-1.55c-.66-.43-1.49-.36-2.26-.72.12-.52.24-1.05.37-1.58s.27-1.06.43-1.69l2.24.48.95-1.35-1.14-2,2.91-1.8,1.23,1.94,1.65-.25Z"/><path class="cls-4" d="M23.46,23.92a3,3,0,0,1-2.74-2.17,3.08,3.08,0,0,1,5-3.12,2.86,2.86,0,0,1,.68,3.49l-.93-.42c0-.26.06-.48.07-.71a1.88,1.88,0,0,0-3.68-.6,1.87,1.87,0,0,0,1,2.24c.21.1.42.17.66.27Z"/></svg>