<svg id="Layer_1" data-name="Layer 1" xmlns="http://www.w3.org/2000/svg" xmlns:xlink="http://www.w3.org/1999/xlink" viewBox="0 0 54 54"><defs><style>.cls-1{fill:url(#linear-gradient);}.cls-2{fill:url(#linear-gradient-2);}.cls-3{fill:url(#linear-gradient-3);}.cls-4{fill:url(#linear-gradient-4);}.cls-5{fill:url(#linear-gradient-5);}.cls-6{fill:url(#linear-gradient-6);}.cls-7{fill:url(#linear-gradient-7);}.cls-8{fill:url(#linear-gradient-8);}.cls-9{fill:url(#linear-gradient-9);}</style><linearGradient id="linear-gradient" x1="25.45" y1="28.2" x2="25.45" y2="11.26" gradientUnits="userSpaceOnUse"><stop offset="0" stop-color="#52c6f6"/><stop offset="1" stop-color="#f021da"/></linearGradient><linearGradient id="linear-gradient-2" x1="36.51" y1="42.74" x2="36.51" y2="30.58" xlink:href="#linear-gradient"/><linearGradient id="linear-gradient-3" x1="20.98" y1="40.64" x2="20.98" y2="33.89" xlink:href="#linear-gradient"/><linearGradient id="linear-gradient-4" x1="24.84" y1="20.23" x2="24.84" y2="18.01" xlink:href="#linear-gradient"/><linearGradient id="linear-gradient-5" x1="24.84" y1="27" x2="24.84" y2="24.79" xlink:href="#linear-gradient"/><linearGradient id="linear-gradient-6" x1="22.63" y1="33.77" x2="22.63" y2="31.54" xlink:href="#linear-gradient"/><linearGradient id="linear-gradient-7" x1="13.66" y1="29.35" x2="13.66" y2="22.65" xlink:href="#linear-gradient"/><linearGradient id="linear-gradient-8" x1="13.64" y1="21.49" x2="13.64" y2="19.26" xlink:href="#linear-gradient"/><linearGradient id="linear-gradient-9" x1="13.69" y1="32.73" x2="13.69" y2="30.54" xlink:href="#linear-gradient"/></defs><path class="cls-1" d="M25.37,11.26h9.2a3.46,3.46,0,0,1,3.84,3.81c0,3.89,0,7.79,0,11.68,0,.94-.39,1.45-1.11,1.45s-1.12-.53-1.12-1.44c0-3.87,0-7.74,0-11.61,0-1.3-.36-1.66-1.66-1.65L16,13.62c-.93,0-1.29.38-1.31,1.32,0,.61,0,1.22,0,1.84,0,.8-.45,1.28-1.12,1.29s-1.09-.49-1.11-1.29,0-1.44,0-2.16a3.29,3.29,0,0,1,3.28-3.24c3.2,0,6.4,0,9.6,0Z"/><path class="cls-2" d="M39.53,38.17c.85.83,1.7,1.64,2.52,2.46.65.65.71,1.23.22,1.75s-1.13.47-1.8-.19-1.41-1.38-2.09-2.1a.65.65,0,0,0-.88-.18,4.91,4.91,0,0,1-7.06-4,5,5,0,0,1,4.43-5.26,4.92,4.92,0,0,1,5.34,4.2A5.21,5.21,0,0,1,39.53,38.17Zm-4.16-5.33a2.68,2.68,0,0,0-2.7,2.67,2.7,2.7,0,1,0,2.7-2.67Z"/><path class="cls-3" d="M22,40.64H16.25A3.37,3.37,0,0,1,12.58,37c0-.66,0-1.33,0-2s.51-1.19,1.17-1.13a1,1,0,0,1,1,1.18c0,.62,0,1.23,0,1.84,0,1.08.43,1.51,1.51,1.51l11-.08h.56c1,0,1.53.41,1.52,1.14s-.53,1.07-1.48,1.07H22Z"/><path class="cls-4" d="M24.88,20.23H19.53c-.89,0-1.39-.39-1.41-1.06S18.62,18,19.54,18q5.33,0,10.63,0c.9,0,1.37.4,1.39,1.09s-.46,1.12-1.41,1.13Z"/><path class="cls-5" d="M24.87,24.79h5.35c.9,0,1.35.4,1.34,1.12S31.11,27,30.26,27q-5.43,0-10.86,0a1.14,1.14,0,0,1-1.28-1.12c0-.65.51-1.07,1.32-1.08Z"/><path class="cls-6" d="M22.64,31.54h3.28a1.09,1.09,0,0,1,1.22,1.08A1.08,1.08,0,0,1,26,33.75q-3.33,0-6.64,0a1.11,1.11,0,0,1-1.2-1.13,1.15,1.15,0,0,1,1.24-1.08Z"/><path class="cls-7" d="M14.77,26c0,.75,0,1.49,0,2.24a1,1,0,0,1-1,1.07,1,1,0,0,1-1.13-1c-.06-1.57-.08-3.14,0-4.7a1,1,0,0,1,1.2-1,1.06,1.06,0,0,1,1,1.14V26Z"/><path class="cls-8" d="M13.59,21.48H12.47a1,1,0,0,1-1.06-1,1,1,0,0,1,.85-1.16,15.19,15.19,0,0,1,2.78,0,1,1,0,0,1,.82,1.1,1,1,0,0,1-1,1,10.76,10.76,0,0,1-1.27,0Z"/><path class="cls-9" d="M13.65,32.72c-.39,0-.8,0-1.19,0a1,1,0,0,1-1-1,1,1,0,0,1,.93-1.09,24.1,24.1,0,0,1,2.55,0,.94.94,0,0,1,.93,1A1,1,0,0,1,15,32.7a12.32,12.32,0,0,1-1.36,0Z"/></svg>