<svg id="Layer_1" data-name="Layer 1" xmlns="http://www.w3.org/2000/svg" xmlns:xlink="http://www.w3.org/1999/xlink" viewBox="0 0 54 54"><defs><style>.cls-1{fill:url(#linear-gradient);}.cls-2{fill:url(#linear-gradient-2);}</style><linearGradient id="linear-gradient" x1="27.7" y1="44.17" x2="27.7" y2="9.48" gradientUnits="userSpaceOnUse"><stop offset="0" stop-color="#52c6f6"/><stop offset="1" stop-color="#f021da"/></linearGradient><linearGradient id="linear-gradient-2" x1="36.67" y1="44.17" x2="36.67" y2="29.17" xlink:href="#linear-gradient"/></defs><path class="cls-1" d="M43.28,34.38l-1.45-.77A15.62,15.62,0,0,0,43.28,28H37.94l-.33,3.36-1.44-.77C35.9,30.44,36,30.2,36,30c0-.65.11-1.3.16-2H28.63v6.45c.29,0,.59,0,.88,0a.51.51,0,0,1,.57.44c.1.4.22.79.35,1.27H28.72a42.28,42.28,0,0,0-.07,6.12,3.44,3.44,0,0,0,1.58-.58c.49-.3.94-.65,1.49-1l.78,2.71A17.29,17.29,0,0,1,16,14.07a17.31,17.31,0,0,1,27.3,20.31Zm-14.66-8.2H36.2A25.3,25.3,0,0,0,35,18.84l-6.37.38Zm-1.83,0v-7l-6.32-.38a24.19,24.19,0,0,0-1.22,7.35Zm-6.32,8.64,6.33-.39V28H19.27A23.9,23.9,0,0,0,20.47,34.83Zm-2.95-8.65A28.27,28.27,0,0,1,18.7,18.6l-3.81-.71a15.26,15.26,0,0,0-2.77,8.29Zm25.8,0a15.19,15.19,0,0,0-2.8-8.3l-3.79.71a28.82,28.82,0,0,1,1.19,7.59ZM17.52,28c-1.83,0-3.58,0-5.4,0a15.59,15.59,0,0,0,2.78,7.78l3.8-.71A28.73,28.73,0,0,1,17.52,28ZM34.31,17.17c-1.05-3-3.57-5.62-5.64-5.83a39.08,39.08,0,0,0,.06,6.13Zm-7.5.23V11.34c-2.15.32-5.32,3.63-5.57,5.8A46.61,46.61,0,0,0,26.81,17.4Zm0,25V36.26a42.92,42.92,0,0,0-5.58.27,1.77,1.77,0,0,0,0,.19,12,12,0,0,0,3.06,4.35A5.17,5.17,0,0,0,26.8,42.35ZM19.3,16.93a16.45,16.45,0,0,1,2.77-4.61c-1.88.51-5.12,2.78-5.86,4.09Zm16.83,0,3.15-.55a14.13,14.13,0,0,0-5.92-4.07A16.36,16.36,0,0,1,36.13,16.94Zm-20,20.33A14.74,14.74,0,0,0,22,41.33a18.1,18.1,0,0,1-2.73-4.6Z"/><path class="cls-2" d="M36.52,39.44l-2.19,4h-.16a5.89,5.89,0,0,1-.24-.58l-2.77-9.67c-.3-1.07-.61-2.14-.91-3.2-.06-.22-.1-.43-.19-.81.34.15.56.22.76.32l9.93,5.28,1.91,1c.17.09.33.21.62.39-1.51.64-3,.86-4.5,1.45.2.27.35.49.51.69l2.93,3.6c.49.61.48.7-.12,1.19l-.91.74c-.56.45-.67.44-1.14-.14Q38.52,41.85,37,40Z"/></svg>