<svg id="Layer_1" data-name="Layer 1" xmlns="http://www.w3.org/2000/svg" xmlns:xlink="http://www.w3.org/1999/xlink" viewBox="0 0 54 54"><defs><style>.cls-1{fill:url(#linear-gradient);}.cls-2{fill:url(#linear-gradient-2);}.cls-3{fill:url(#linear-gradient-3);}.cls-4{fill:url(#linear-gradient-4);}.cls-5{fill:url(#linear-gradient-5);}</style><linearGradient id="linear-gradient" x1="27" y1="43.88" x2="27" y2="11.99" gradientUnits="userSpaceOnUse"><stop offset="0" stop-color="#52c6f6"/><stop offset="1" stop-color="#f021da"/></linearGradient><linearGradient id="linear-gradient-2" x1="36.37" y1="44.89" x2="36.37" y2="30.5" xlink:href="#linear-gradient"/><linearGradient id="linear-gradient-3" x1="36.52" y1="31.19" x2="36.52" y2="24.61" xlink:href="#linear-gradient"/><linearGradient id="linear-gradient-4" y1="31.15" x2="27" y2="24.66" xlink:href="#linear-gradient"/><linearGradient id="linear-gradient-5" x1="17.44" y1="31.15" x2="17.44" y2="24.63" xlink:href="#linear-gradient"/></defs><path class="cls-1" d="M44,33A1.92,1.92,0,0,1,41.79,34l-.89,1.7L40,35.07l.43-1c-1.2.08-2.32.06-3.11-1.13H42c.78,0,.91-.14.91-.93V23.91c0-.93-.09-1-1-1H15.58c-1.21,0-2.41,0-3.62,0-.72,0-.85.14-.85.92V32c0,.84.12,1,1,1H29.35a4.3,4.3,0,0,1,.56.06L30,34H27.61v1.72l2.63.15.2,1.06H27.61v5.66a5.87,5.87,0,0,0,3.32-1.71c.1.8.19,1.43.25,2.07,0,.34-.25.38-.5.44a14.66,14.66,0,0,1-4.71.41,15.86,15.86,0,0,1-12.63-7.71c-.4-.63-.72-1.32-1.12-2.06A2,2,0,0,1,10,33V22.85a2,2,0,0,1,2.18-1.1C15.27,15.54,20.1,12,27,12s11.77,3.58,14.81,9.79A1.91,1.91,0,0,1,44,22.85ZM20.76,18.58l5.62.29V13.25C24.37,13.24,21.72,15.74,20.76,18.58Zm12.55,0a10.55,10.55,0,0,0-3-4.18,12.52,12.52,0,0,0-1.9-1.06,2.65,2.65,0,0,0-.78-.13v5.68ZM20.69,37.24a10.49,10.49,0,0,0,2.9,4.08,12.41,12.41,0,0,0,2,1.16,2.72,2.72,0,0,0,.79.13V36.93Zm-.48-17.55-.61,2h6.79V20.05Zm14.2,2-.64-2-6.17.37v1.65ZM20.21,36.12l6.18-.36V34.1H19.6Zm-6.65-14.4H18.4l.66-2.18c-1.24-.23-2.39-.45-3.55-.65a.38.38,0,0,0-.32.12A12.27,12.27,0,0,0,13.56,21.72Zm22,0h4.95l-1.62-2.58c-.17-.27-.39-.24-.65-.19-.89.17-1.78.32-2.67.48-.21,0-.42.08-.66.13ZM13.45,34.08,15.24,37l3.83-.7-.69-2.19Zm9-20.22c-1.86.42-5.16,2.43-6.18,4l3.2.52c.45-.81.84-1.61,1.32-2.33S21.87,14.63,22.45,13.86Zm9,0a14.53,14.53,0,0,1,3,4.55l3.28-.55A12.77,12.77,0,0,0,31.44,13.87ZM16.13,38a14.12,14.12,0,0,0,6.3,3.95,15.83,15.83,0,0,1-2.9-4.51Z"/><path class="cls-2" d="M38.25,44.89l-2.19-3.6c-.19-.31-.39-.62-.66-1L33,43.43l-.2-.06c-.59-4.25-1.1-8.5-1.64-12.75l.19-.12,10.28,7.66,0,.19c-1.25.34-2.59.29-3.92.66.14.27.25.49.37.7C38.65,40.82,39.3,41.92,40,43c.45.76.44.8-.35,1.26l-1.05.6Z"/><path class="cls-3" d="M32.2,24.71a2.22,2.22,0,0,1,.35-.08c1.09-.06,1.09-.06,1.35,1a29.46,29.46,0,0,0,1,3.27L36,24.66h1l1.23,4.47,1.16-4.47h1.37a4.42,4.42,0,0,1-.09.61c-.48,1.71-1,3.43-1.46,5.14-.23.8-.23.8-1.09.78l-.5-.06-1.08-4H36.5l-1.09,4.06H34Z"/><path class="cls-4" d="M27,26.85l-1.16,4.3H24.48l-1.84-6.46h1.45l1.08,4.18.13,0,1.17-4.23h1.05l1.16,4.22h.13l1.1-4.24h1.46l-1.86,6.49H28.14Z"/><path class="cls-5" d="M18,24.7l1.21,4.46,1.15-4.48H21.8L20,31.15H18.6l-1.1-4.07h-.11l-1.1,4.07H14.92l-1.84-6.47h1.44l1.17,4.48c.36-1.35.68-2.54,1-3.72C16.92,24.55,16.93,24.56,18,24.7Z"/></svg>