<svg id="Layer_1" data-name="Layer 1" xmlns="http://www.w3.org/2000/svg" xmlns:xlink="http://www.w3.org/1999/xlink" viewBox="0 0 250 250"><defs><style>.cls-1{fill:url(#linear-gradient);}.cls-2{fill:#fff;}</style><linearGradient id="linear-gradient" x1="250" y1="250" x2="0" gradientUnits="userSpaceOnUse"><stop offset="0" stop-color="#ed3abd"/><stop offset="1" stop-color="#2e3192"/></linearGradient></defs><rect class="cls-1" width="250" height="250"/><path class="cls-2" d="M55.84,81.51c1.56-1.66,2.29-1.78,4.23-.66Q64.53,83.4,69,86a2.07,2.07,0,0,1,1.17,2.36,2.15,2.15,0,0,1-1.86,1.73,2.63,2.63,0,0,1-1.77-.52c-1.76-1-3.54-2-5.26-3-1-.61-1.26-.47-1.26.71,0,7.52,0,15,0,22.55,0,5,0,10,0,15a2,2,0,0,0,1.17,2c1.74.93,3.45,1.93,5.14,3,.82.5,1.3.46,1.82-.45q8.06-14.06,16.19-28.06c.53-.9.41-1.32-.5-1.73a12.9,12.9,0,0,1-2.33-1.36c-1-.76-1.65-.6-2.3.56-2.42,4.32-4.92,8.59-7.4,12.87-.22.39-.44.79-.69,1.16-.82,1.27-2,1.65-3.08,1a2.19,2.19,0,0,1-.66-3.17c1.19-2.12,2.42-4.22,3.63-6.32,1.53-2.66,3-5.31,4.61-8,.43-.73.51-1.2-.29-1.78A2.12,2.12,0,0,1,77.55,91c3.73,2.09,7.42,4.25,11.12,6.4a2,2,0,0,1,1.11,1.46c.11,1.17.91,1.63,1.8,2.13,2.67,1.49,5.3,3,8,4.56a22,22,0,0,0,2.16,1.11c2.39,1,4.58,1.2,7-.42,3.12-2.12,6.5-3.86,9.79-5.72a13.14,13.14,0,0,1,13.39-.23c3,1.59,5.89,3.29,8.78,5a9.43,9.43,0,0,0,10.23.11l8.18-4.73c.46-.27,1-.48,1-1.14A3.17,3.17,0,0,1,162,97l28-16.13c1.93-1.12,2.66-1,4.23.66v49.7c-1.3,1.7-2.32,1.91-4.1.69-.59-.41-1-.2-1.46.07-1.67,1-3.36,1.92-5,2.91a2.74,2.74,0,0,1-2.93.23,1.22,1.22,0,0,0-1.38.09c-1.67,1-3.34,2-5,2.9-.66.36-.74.72-.42,1.39a6.93,6.93,0,0,1-.25,6.61c-.41.75-.82,1.5-1.19,2.27a7.32,7.32,0,0,1-5.08,4.26c-.48.11-.86.31-.88.86-.08,2.28-1.43,4-2.45,5.92a7.1,7.1,0,0,1-6.63,4.08c-.5,0-.85,0-1,.65a18.15,18.15,0,0,1-2.57,5.47,6.92,6.92,0,0,1-9.51,2.85c-.85-.42-1-.24-1.33.57-1.51,3.46-2.88,7.11-7.15,8.16H133.1c-2.91-1-5.39-2.86-8.06-4.34a1.42,1.42,0,0,0-1.91.13,23.13,23.13,0,0,1-5.76,3.47,6.78,6.78,0,0,1-8.15-2,20.8,20.8,0,0,1-3.09-5.52c-.3-.86-.62-1.08-1.54-.9a6.51,6.51,0,0,1-6.6-2.16,17.45,17.45,0,0,1-3.42-6.07c-.28-.93-.68-1.22-1.59-1.15a5.71,5.71,0,0,1-4.82-1.7c-2.15-2.37-4-5-4.27-8.36a1.21,1.21,0,0,0-1-1.22,7.4,7.4,0,0,1-4.36-3.81c-.41-.79-.88-1.56-1.33-2.35a6.77,6.77,0,0,1-.87-5.31,1.23,1.23,0,0,0-.68-1.64c-1.74-1-3.44-2-5.15-3a1.2,1.2,0,0,0-1.26-.12,2.86,2.86,0,0,1-2.82-.28c-3-1.75-6-3.49-9-5.21a4.65,4.65,0,0,1-1.59-1.43Zm54.21,42.16A12.36,12.36,0,0,1,99.66,117c-1.13-2-1.28-3.82.33-5.57.39-.43.35-.62-.17-.87-3.83-1.81-7.38-4.12-11.06-6.21-.72-.4-1.07-.34-1.47.4-1,1.81-2.06,3.59-3.1,5.38-3.78,6.55-7.54,13.11-11.37,19.63-.67,1.15-.49,1.69.65,2.27,1.68.85,3.31,1.83,4.91,2.83a1.89,1.89,0,0,0,2.23,0c2.27-1.37,4.56-2.73,6.91-4A8.83,8.83,0,0,1,100,141.45c-.26.83-.2,1.23.67,1.64a8.66,8.66,0,0,1,5.13,7.54c.08,1,.36,1.3,1.35,1.33a8.69,8.69,0,0,1,8.68,8.42c0,.89.25,1.34,1.24,1.26,4.52-.39,9.55,4.08,8.83,9.81a1.11,1.11,0,0,0,.55,1.25c2.23,1.27,4.43,2.6,6.69,3.81a2.62,2.62,0,0,0,3.71-1.11c.57-.92,1.08-1.87,1.57-2.83.92-1.79.55-3-1.19-4.1-1.42-.87-2.88-1.67-4.31-2.53s-1.94-2-1.31-3.2,2-1.4,3.54-.52l.58.34c3.35,1.93,6.69,3.88,10.06,5.8,1.91,1.09,3.29.69,4.39-1.22.47-.82.95-1.64,1.37-2.49a2.81,2.81,0,0,0-1.12-4.06c-1-.64-2.1-1.22-3.15-1.83l-7.95-4.6a2.16,2.16,0,0,1-1.2-2.23,2,2,0,0,1,1.46-1.78,2.64,2.64,0,0,1,2.29.47q6.56,3.8,13.1,7.55a4.63,4.63,0,0,0,2.47,1c2.44-.14,2.79-2.39,3.84-3.93a3,3,0,0,0,.28-3.3,4.52,4.52,0,0,0-2-1.58c-4.44-2.57-8.89-5.12-13.32-7.71-1.43-.83-1.84-2.13-1.13-3.26s1.92-1.25,3.34-.46c.71.39,1.41.8,2.11,1.21,4.41,2.54,8.81,5.1,13.22,7.63,2.05,1.18,3.39.8,4.57-1.27.38-.67.74-1.34,1.09-2,1.13-2.19.77-3.45-1.39-4.71-2.6-1.52-5.22-3-7.84-4.52s-5.08-2.89-7.59-4.4c-1.73-1-1.84-3-.3-3.92a2.4,2.4,0,0,1,2.65.27c4.56,2.64,9.13,5.25,13.68,7.91a1.65,1.65,0,0,0,2,0c1.88-1.16,3.78-2.3,5.74-3.3,1.27-.65,1.32-1.34.58-2.42a33.76,33.76,0,0,1-1.77-3c-.76-1.41-.5-2.6.66-3.27s2.28-.26,3.13,1.16c1,1.71,2,3.42,3,5.15.38.69.79.89,1.5.45a28.87,28.87,0,0,1,2.7-1.54c1.08-.51,1.14-1.05.54-2.08q-7.95-13.65-15.81-27.35c-.91-1.58-.91-1.58-2.54-.63a17.91,17.91,0,0,1-2,1.14c-1.16.5-1.11,1.13-.53,2.1,1.5,2.46,2.91,5,4.35,7.47,1.25,2.19,2.52,4.37,3.75,6.56a2.18,2.18,0,0,1-.2,2.65,2.08,2.08,0,0,1-2.35.54,2.51,2.51,0,0,1-1.4-1.39c-2.36-4.09-4.74-8.18-7.07-12.29-.49-.86-.9-1.15-1.87-.56-2.45,1.51-5,2.84-7.47,4.34-5.2,3.19-10.33,3.18-15.53,0-2.72-1.67-5.5-3.24-8.31-4.78a8.4,8.4,0,0,0-8.41-.15c-5.83,3.22-11.57,6.61-17.35,9.92-.58.34-.73.68-.37,1.3a7.89,7.89,0,0,0,6.43,4.12c2.61.24,4.66-1.11,6.76-2.34,2.74-1.6,4.9-1.38,7.15.66,3.82,3.47,8.9,2.25,10.78-2.59.61-1.57,1.59-2.22,2.81-1.84s1.86,1.59,1.29,3.18c-.38,1,0,1.55.84,2,2,1.1,4,2.27,6,3.43,1.51.89,1.94,2,1.27,3.22s-2,1.4-3.52.5c-2.07-1.19-4.16-2.34-6.18-3.6a2,2,0,0,0-2.53,0,10.47,10.47,0,0,1-13.1-.73,2.16,2.16,0,0,0-3.16-.25A14.49,14.49,0,0,1,110.05,123.67Zm79.84-.61a3.67,3.67,0,0,0,.11-.59q0-17.67,0-35.34c0-1.26-.43-1.08-1.23-.62-4.55,2.65-9.09,5.3-13.67,7.87-1.11.62-1.19,1.13-.57,2.19,3.55,6.05,7,12.14,10.54,18.22C186.65,117.49,188.23,120.19,189.89,123.06Zm-93.8,15.58a4.39,4.39,0,0,0-6.38-4c-2.72,1.38-5.33,3-7.94,4.56a2.55,2.55,0,0,0-.93,3.54c.5,1,1.07,2,1.66,2.93,1,1.72,2.34,2.11,4.11,1.14,2.47-1.37,4.91-2.81,7.35-4.24A4.18,4.18,0,0,0,96.09,138.64Zm.49,8a3.76,3.76,0,0,0-1.12.23,43.06,43.06,0,0,0-6.18,3.56,2.53,2.53,0,0,0-.66,3.4,36.55,36.55,0,0,0,1.91,3.26,2.46,2.46,0,0,0,3.29,1,39.91,39.91,0,0,0,5.93-3.46,4.34,4.34,0,0,0,1.45-5.08A4.47,4.47,0,0,0,96.58,146.65ZM111.48,161a4.43,4.43,0,0,0-6.46-4.18c-1.73.85-3.4,1.86-5,2.88a2.56,2.56,0,0,0-1,3.63c.53,1,1.12,2,1.75,3a2.59,2.59,0,0,0,3.81,1.07q2.51-1.32,4.89-2.85A4,4,0,0,0,111.48,161Zm10.19,9.55a4.49,4.49,0,0,0-6.3-4.19,39.78,39.78,0,0,0-3.87,2.17,2.21,2.21,0,0,0-1.27,2.08,9.25,9.25,0,0,0,3.15,5.73,1.52,1.52,0,0,0,1.42.26c2.51-.76,4.86-1.82,6.38-4.12A3.3,3.3,0,0,0,121.67,170.52Z"/><path class="cls-2" d="M114.73,68.81a4.32,4.32,0,0,1,1.61,2,15.65,15.65,0,0,0,8.6,8.69,5.38,5.38,0,0,1,1.16.67,2.35,2.35,0,0,1,.07,3.9,8.63,8.63,0,0,1-1.75,1,14.67,14.67,0,0,0-7.54,7.38,12.69,12.69,0,0,1-.94,1.79,2.42,2.42,0,0,1-4.3-.09,15,15,0,0,1-.74-1.44A15.15,15.15,0,0,0,103.24,85c-1.3-.6-2.78-1.13-2.77-2.93s1.52-2.29,2.81-2.89a15.12,15.12,0,0,0,7.63-7.68,5.68,5.68,0,0,1,1.93-2.7Zm-.84,19.72a4.68,4.68,0,0,0,.4-.45,18.16,18.16,0,0,1,5.6-5.54c.67-.4.38-.63-.08-.92a17.63,17.63,0,0,1-5.47-5.47c-.39-.62-.64-.62-1,0a18,18,0,0,1-5.37,5.4c-.66.44-.64.73,0,1.15a17.45,17.45,0,0,1,5.3,5.28C113.39,88.19,113.49,88.47,113.89,88.53Z"/><path class="cls-2" d="M153.23,87.64a2.25,2.25,0,0,1-1.06,2.06,6.07,6.07,0,0,1-.83.46,12.55,12.55,0,0,0-7,6.93c-.47,1.12-1.14,2.06-2.56,2.06s-2.07-.94-2.55-2.05a12.66,12.66,0,0,0-6.89-6.88c-1.12-.48-2-1.16-2-2.57a2.7,2.7,0,0,1,2-2.45,12.78,12.78,0,0,0,6.9-6.86c.48-1.12,1.12-2.06,2.55-2.07s2.08.93,2.56,2a12.68,12.68,0,0,0,6.9,6.86A2.7,2.7,0,0,1,153.23,87.64Zm-6.59.3-.11-.43c-.19-.11-.39-.21-.58-.34a14.24,14.24,0,0,1-3.59-3.59c-.38-.54-.69-.65-1.1,0a14.83,14.83,0,0,1-3.6,3.6c-.5.36-.7.64-.06,1.09a14.7,14.7,0,0,1,3.69,3.69c.38.55.67.43,1,0a15.44,15.44,0,0,1,3.7-3.69A2.83,2.83,0,0,1,146.64,87.94Z"/></svg>