<svg id="Layer_1" data-name="Layer 1" xmlns="http://www.w3.org/2000/svg" xmlns:xlink="http://www.w3.org/1999/xlink" viewBox="0 0 250 250"><defs><style>.cls-1{fill:url(#linear-gradient);}.cls-2{fill:none;stroke:#fff;stroke-miterlimit:10;stroke-width:3px;}</style><linearGradient id="linear-gradient" y1="250" x2="250" gradientUnits="userSpaceOnUse"><stop offset="0" stop-color="#9305e8"/><stop offset="1" stop-color="#9e005d"/></linearGradient></defs><rect class="cls-1" width="250" height="250"/><path class="cls-2" d="M120.51,109.46A31,31,0,0,1,99.84,95.57a30.25,30.25,0,0,1-4.61-20.85A31.1,31.1,0,0,1,156,70.3a30.15,30.15,0,0,1-3.6,25.07c-4.87,7.75-12,12.3-21,14.14v1.37c0,7,0,14,0,21a2.1,2.1,0,0,0,.93,1.9c3.47,2.56,6.9,5.17,10.35,7.76,2.84,2.13,5.7,4.23,8.52,6.38a1.06,1.06,0,0,0,1.63,0,29.57,29.57,0,0,1,17-7.6,31.24,31.24,0,0,1,33.15,21.24,28.14,28.14,0,0,1,1.5,12.5,32.28,32.28,0,0,1-6.21,15.86,31.51,31.51,0,0,1-10.31,8.84,31.4,31.4,0,0,1-28.88.15,31.3,31.3,0,0,1-16.19-21.41,30.56,30.56,0,0,1-.05-12.09,29.36,29.36,0,0,1,2.4-7.32,9.93,9.93,0,0,0,.35-.93c-1-.8-2.06-1.6-3.1-2.39l-14.91-11.18-.1-.08c-1.39-1-1.41-1-2.79-.07-3.62,2.58-7.2,5.19-10.8,7.78-2.68,1.92-5.34,3.87-8.06,5.73a1.28,1.28,0,0,0-.5,1.89,31.4,31.4,0,0,1,1.42,20.61,30,30,0,0,1-6,11.49,31.21,31.21,0,0,1-9.63,7.9,29.78,29.78,0,0,1-12.74,3.46,30.71,30.71,0,0,1-26.2-11.85,29.83,29.83,0,0,1-5-9.2,29.29,29.29,0,0,1-1.57-13.11,32,32,0,0,1,5.53-14.7A30.8,30.8,0,0,1,69.23,141a31.19,31.19,0,0,1,18,.85A28.17,28.17,0,0,1,97.49,148c1,.94,1.07.91,2.23.07,4.42-3.18,8.86-6.34,13.29-9.52,2.33-1.68,4.65-3.38,7-5.05a1.25,1.25,0,0,0,.65-1.12q0-11.23,0-22.47A2.53,2.53,0,0,0,120.51,109.46Zm39,77.76h26.07a2.14,2.14,0,0,0,.88,0c.28-.14.68-.44.68-.69.07-2.74.27-5.51-1-8.1-1.58-3.37-4-5.66-7.89-5.89-3-.18-6.08-.19-9.12-.13a9.27,9.27,0,0,0-8.43,5.36C159.18,180.68,159.46,183.84,159.52,187.22Zm-69.06,0a25.32,25.32,0,0,0-.22-6.38A13.32,13.32,0,0,0,89,177.4c-1.59-2.85-4-4.76-7.34-4.91-3-.13-6.09-.11-9.13-.11a8,8,0,0,0-2.39.29,9.84,9.84,0,0,0-6.39,5.72c-1.17,2.61-1,5.36-.94,8.11,0,.24.4.54.68.68a2.15,2.15,0,0,0,.88,0H90.46Zm49.45-92.46c0-1.75.13-3.4,0-5-.51-5.33-4.14-9.7-9.78-9.74-2.75,0-5.5,0-8.25,0a8.81,8.81,0,0,0-4.59,1.25,9.72,9.72,0,0,0-4.66,6.66,36.2,36.2,0,0,0-.35,5.42c0,1.51,0,1.52,1.57,1.52h24.62C138.89,94.86,139.34,94.8,139.91,94.76Zm-54,65.39a9.25,9.25,0,1,0-18.49,0,9.25,9.25,0,1,0,18.49,0ZM126,77.05a9.28,9.28,0,1,0-9.21-9.31A9.28,9.28,0,0,0,126,77.05Zm38.09,83.15a9.25,9.25,0,1,0,9.2-9.29A9.2,9.2,0,0,0,164.09,160.2Z"/></svg>