<svg id="Layer_1" data-name="Layer 1" xmlns="http://www.w3.org/2000/svg" xmlns:xlink="http://www.w3.org/1999/xlink" viewBox="0 0 250 250"><defs><style>.cls-1{fill:url(#linear-gradient);}.cls-2{fill:#fff;}</style><linearGradient id="linear-gradient" x1="250" x2="0" y2="250" gradientUnits="userSpaceOnUse"><stop offset="0.25" stop-color="#9e005d"/><stop offset="1" stop-color="#662d91"/></linearGradient></defs><rect class="cls-1" width="250" height="250"/><path class="cls-2" d="M182.74,117.1a1.83,1.83,0,0,1-.94-1.7,54.83,54.83,0,0,0-10.36-29.75,56.36,56.36,0,0,0-38.37-23.48,40.29,40.29,0,0,0-4.22-.37c-1.19-.07-2.43-.14-3.65-.29h-.46c-1.17.16-2.42.23-3.63.3s-2.62.15-3.91.34a57.1,57.1,0,0,0-48.07,45.6,44.12,44.12,0,0,0-.92,7.51,1.88,1.88,0,0,1-.94,1.84,13.55,13.55,0,0,0-7.06,9.52V146l.1.33c.08.28.15.56.24.84a12.85,12.85,0,0,0,10.13,9.54,9.22,9.22,0,0,0,7.79-1.57,8.35,8.35,0,0,0,3.11-6.6c.13-8.46.07-17.05,0-24.44a8.25,8.25,0,0,0-5.7-7.94c-2.11-.71-2.26-1-2-3.18a52.37,52.37,0,0,1,9.18-24.15,51.19,51.19,0,0,1,53-20.48c15.23,3.52,26.81,12.39,34.42,26.34a49,49,0,0,1,5.56,18.49c0,.11,0,.21.05.32a1.91,1.91,0,0,1-1.36,2.5c-4.23,1.29-6.38,4.22-6.39,8.69q0,11.64,0,23.28c0,4.57,2.24,7.51,6.65,8.75a1.63,1.63,0,0,1,1.37,1.84c0,.85,0,1.69,0,2.54s0,1.95,0,2.93a12.91,12.91,0,0,1-12.33,12.4c-1.57.05-3.17.05-4.71,0-1.34,0-2.67,0-4,0A2.34,2.34,0,0,1,153,175a8.06,8.06,0,0,0-6.41-4.6,52.41,52.41,0,0,0-12.71,0c-3.8.49-6.32,2.82-7.31,6.72-.92,3.66.21,6.83,3.36,9.42a10,10,0,0,0,5.51,1.91H145A11.15,11.15,0,0,0,149.8,187a8.44,8.44,0,0,0,3.28-3.57,2.23,2.23,0,0,1,2.39-1.41c2.54,0,5.13,0,7.63,0h.42a18.47,18.47,0,0,0,18.33-17c.14-1.61.13-3.25.13-4.84,0-.89,0-1.78,0-2.67a2.07,2.07,0,0,1,1-2.1,13.45,13.45,0,0,0,6.82-9.4v-19.4A13.51,13.51,0,0,0,182.74,117.1ZM75,121.85a3.35,3.35,0,0,1,1,2.64q0,4.19,0,8.35v6.21c0,3,0,6,0,9a3.49,3.49,0,0,1-1.07,2.83,3,3,0,0,1-2,.62,6.18,6.18,0,0,1-1.08-.11,7.33,7.33,0,0,1-6.16-7.2c-.07-5.15-.07-10.4,0-15.6a7.38,7.38,0,0,1,6.4-7.27A3.41,3.41,0,0,1,75,121.85Zm72.66,59.93a3.33,3.33,0,0,1-2.36,1.06c-1.71.06-3.4.09-5.05.09s-3.45,0-5.1-.09a3.3,3.3,0,0,1-2.35-1.09,3.69,3.69,0,0,1-.91-2.74,3.41,3.41,0,0,1,3.55-3.2c1.12,0,2.23,0,3.35,0h2.77c1.12,0,2.25,0,3.37,0a3.47,3.47,0,0,1,3.67,3.38A3.6,3.6,0,0,1,147.63,181.78Zm36.64-37.66a7.33,7.33,0,0,1-6.27,7.25,5.74,5.74,0,0,1-1,.09,3,3,0,0,1-2-.64,3.46,3.46,0,0,1-1-2.78q0-4.09,0-8.19V133c0-2.82,0-5.63,0-8.45a3,3,0,0,1,3.84-3.25,7.35,7.35,0,0,1,6.44,7.37C184.34,134,184.33,139.17,184.27,144.12Z"/><path class="cls-2" d="M144.57,91.89H120c-4.91,0-9.82,0-14.72,0h0a14.56,14.56,0,0,0-3.57.42,12.88,12.88,0,0,0-9.79,12.54c0,6.89,0,13.88,0,20.65V131c0,7.45,4.62,12.66,12,13.59a1.5,1.5,0,0,1,1.5,1.75c0,.81,0,1.62,0,2.43s0,1.68,0,2.51c-.06,3.13,1.17,5.19,3.76,6.32s4.87.53,7.12-1.73q2.12-2.13,4.25-4.24c2-2,3.92-3.9,5.86-5.87a3.74,3.74,0,0,1,2.75-1.15c4.57,0,9.21,0,13.7,0h1.77c7.94,0,13.5-5.56,13.51-13.5q0-12.87,0-25.74C158.1,97.45,152.53,91.9,144.57,91.89Zm7.93,39.92a7.08,7.08,0,0,1-7.17,7.18c-5.57.06-11.43.06-17.44,0a5.64,5.64,0,0,0-4.37,1.77c-2.6,2.7-5.31,5.37-7.92,7.95l-2.48,2.45a2.09,2.09,0,0,0-.2.22,1.94,1.94,0,0,1-1.16.78l-.31.05-.18-.25a2,2,0,0,1-.29-1.38,2.64,2.64,0,0,0,0-.29c0-1.07,0-2.13,0-3.2,0-1.53,0-3.07,0-4.6,0-2.33-1.11-3.41-3.47-3.48h-3a7.06,7.06,0,0,1-7-7.09c0-9.06,0-18.21,0-27.18a7.12,7.12,0,0,1,7.29-7.22q20.22,0,40.44,0a7.11,7.11,0,0,1,7.26,7.24C152.53,114,152.53,123.06,152.5,131.81Z"/><path class="cls-2" d="M144.36,118.79v0a4.24,4.24,0,0,1-1.26,3,4.12,4.12,0,0,1-2.92,1.2h0a4.34,4.34,0,0,1-4.26-4.23,4.18,4.18,0,0,1,1.28-3,4.36,4.36,0,0,1,3-1.26h.05A4.23,4.23,0,0,1,144.36,118.79Z"/><path class="cls-2" d="M114.11,118.73a4.21,4.21,0,0,1-1.25,3,4.34,4.34,0,0,1-3,1.3h0a4.27,4.27,0,0,1-2.9-7.27,4.12,4.12,0,0,1,2.94-1.22h0A4.34,4.34,0,0,1,114.11,118.73Z"/><path class="cls-2" d="M129.25,118.76v0a4.3,4.3,0,0,1-4.39,4.19,4.25,4.25,0,0,1,.15-8.49h.07A4.29,4.29,0,0,1,129.25,118.76Z"/></svg>